<svg width="56" height="56" viewBox="0 0 56 56" fill="none" xmlns="http://www.w3.org/2000/svg">
<path d="M27.399 47.5819L31.6801 6.86717C31.7281 6.41147 32.1123 6.06549 32.5705 6.06549C33.0126 6.06549 33.3885 6.38809 33.4555 6.82501L39.7022 47.5348C39.7951 48.1404 39.3265 48.6865 38.7138 48.6865H28.3935C27.7998 48.6865 27.3369 48.1723 27.399 47.5819Z" fill="#FFE8A8"/>
<path d="M47.1836 21.3265L49.5374 18.7216C50.0922 18.1077 50.961 17.9019 51.7262 18.2032C52.7699 18.6141 53.2755 19.817 52.8454 20.8661L51.9848 22.9661" fill="url(#paint0_linear_717_8471)"/>
<path d="M47.1836 21.3265L49.5374 18.7216C50.0922 18.1077 50.961 17.9019 51.7262 18.2032C52.7699 18.6141 53.2755 19.817 52.8454 20.8661L51.9848 22.9661" stroke="url(#paint1_linear_717_8471)" stroke-opacity="0.4" stroke-width="0.5" stroke-linejoin="round"/>
<path d="M48.421 20.4331C47.5826 20.1729 46.6731 20.4677 46.1385 21.1731L38.8577 30.7798C38.2008 31.6464 37.0052 31.8694 36.0877 31.2963L14.8932 18.0582C13.6592 17.2875 12.0451 17.9838 11.7355 19.4205L10.6302 24.5482C9.93149 27.7899 8.77132 30.9109 7.18624 33.813L4.26506 39.1613C3.60209 40.3752 4.238 41.8985 5.55831 42.2594L38.9407 51.3835C40.4985 51.8093 42.1218 50.9738 42.7041 49.4466L52.3838 24.0584C52.8249 22.9015 52.2054 21.6077 51.0367 21.245L48.421 20.4331Z" fill="url(#paint2_linear_717_8471)"/>
<path d="M48.421 20.4331C47.5826 20.1729 46.6731 20.4677 46.1385 21.1731L38.8577 30.7798C38.2008 31.6464 37.0052 31.8694 36.0877 31.2963L14.8932 18.0582C13.6592 17.2875 12.0451 17.9838 11.7355 19.4205L10.6302 24.5482C9.93149 27.7899 8.77132 30.9109 7.18624 33.813L4.26506 39.1613C3.60209 40.3752 4.238 41.8985 5.55831 42.2594L38.9407 51.3835C40.4985 51.8093 42.1218 50.9738 42.7041 49.4466L52.3838 24.0584C52.8249 22.9015 52.2054 21.6077 51.0367 21.245L48.421 20.4331Z" fill="#EBF5FF"/>
<path d="M48.421 20.4331C47.5826 20.1729 46.6731 20.4677 46.1385 21.1731L38.8577 30.7798C38.2008 31.6464 37.0052 31.8694 36.0877 31.2963L14.8932 18.0582C13.6592 17.2875 12.0451 17.9838 11.7355 19.4205L10.6302 24.5482C9.93149 27.7899 8.77132 30.9109 7.18624 33.813L4.26506 39.1613C3.60209 40.3752 4.238 41.8985 5.55831 42.2594L38.9407 51.3835C40.4985 51.8093 42.1218 50.9738 42.7041 49.4466L52.3838 24.0584C52.8249 22.9015 52.2054 21.6077 51.0367 21.245L48.421 20.4331Z" stroke="url(#paint3_linear_717_8471)" stroke-opacity="0.4" stroke-width="0.5" stroke-linejoin="round"/>
<g style="mix-blend-mode:overlay" opacity="0.8">
<path d="M23.5185 23.292L20.4627 21.5012L4.62109 41.7174L7.09716 42.6172L23.5185 23.292Z" fill="black"/>
</g>
<g style="mix-blend-mode:overlay" opacity="0.8">
<path d="M35.3032 30.7482L32.2475 28.9573L18.8984 46.2231L22.5421 46.9801L35.3032 30.7482Z" fill="black"/>
</g>
<g style="mix-blend-mode:overlay" opacity="0.8">
<path d="M43.3504 24.7155L41.3164 27.6419L48.6714 34.2828L49.7443 30.668L43.3504 24.7155Z" fill="black"/>
</g>
<path d="M46.1385 21.1732C46.6731 20.4679 47.5826 20.173 48.421 20.4333L51.0367 21.2451C52.0545 21.561 52.6558 22.5831 52.5027 23.606L49.9745 22.8213C49.136 22.561 48.2265 22.8559 47.6919 23.5612L40.3781 33.2114C39.7353 34.0595 38.5734 34.2938 37.6601 33.7594L16.9188 21.6249C15.7488 20.9404 14.2557 21.5359 13.8578 22.8457L12.1608 28.4315C11.4754 30.6876 10.5615 32.8655 9.43378 34.9303L5.81849 41.5495C5.69256 41.78 5.61349 42.0218 5.57708 42.2646L5.55831 42.2595C4.238 41.8986 3.60209 40.3753 4.26506 39.1615L7.18625 33.8131C8.77132 30.911 9.93149 27.79 10.6302 24.5484L11.7355 19.4206C12.0451 17.9839 13.6592 17.2876 14.8932 18.0583L36.0877 31.2964C37.0052 31.8695 38.2008 31.6466 38.8577 30.7799L46.1385 21.1732Z" fill="white"/>
<g style="mix-blend-mode:overlay">
<path d="M4.18441 39.3271L37.2214 47.0597C38.6666 47.398 40.1484 46.6669 40.7791 45.3045L51.744 21.6196C52.4351 22.1825 52.7287 23.158 52.3879 24.0517L42.7042 49.4504C42.1232 50.9744 40.5032 51.8082 38.9486 51.3833L5.55478 42.256C4.29556 41.9119 3.66033 40.508 4.18441 39.3271Z" fill="black"/>
</g>
<path d="M27.1604 48.1638L5.55831 42.2595C4.238 41.8986 3.60209 40.3753 4.26506 39.1615L8.82957 30.8044C9.32491 29.8975 9.68746 28.9222 9.90581 27.9092L11.7355 19.4206C12.0451 17.9839 13.6592 17.2876 14.8932 18.0583L36.0877 31.2964C37.0052 31.8695 38.2008 31.6466 38.8577 30.7799L46.1385 21.1732C46.6731 20.4679 47.5826 20.173 48.421 20.4333L51.0367 21.2451C52.2054 21.6078 52.8249 22.9016 52.3838 24.0585L42.6547 49.5125C42.1123 50.9316 40.5947 51.7212 39.1213 51.3509L35.6713 50.4839" stroke="url(#paint4_linear_717_8471)" stroke-width="0.5" stroke-linecap="round" stroke-linejoin="round"/>
<path d="M22.7279 24.4608L10.8529 38.1792M6.89453 42.752L8.8737 40.4656" stroke="url(#paint5_linear_717_8471)" stroke-width="0.5" stroke-linecap="round" stroke-linejoin="round"/>
<path d="M22.9297 46.0824L31.7304 34.9046M33.1971 33.0416L34.6639 31.1786" stroke="url(#paint6_linear_717_8471)" stroke-width="0.5" stroke-linecap="round" stroke-linejoin="round"/>
<path d="M43.9465 43.5126L33.6641 33.7687" stroke="url(#paint7_linear_717_8471)" stroke-width="0.5" stroke-linecap="round" stroke-linejoin="round"/>
<path d="M22.0642 42.8206L14.5117 35.0859" stroke="url(#paint8_linear_717_8471)" stroke-width="0.5" stroke-linecap="round" stroke-linejoin="round"/>
<path d="M43.2109 25.2149L49.7461 30.774" stroke="url(#paint9_linear_717_8471)" stroke-width="0.5" stroke-linecap="round" stroke-linejoin="round"/>
<path d="M12.0625 6.59829C12.0625 5.71558 12.7781 5 13.6608 5H41.9555C42.8382 5 43.5537 5.71558 43.5537 6.59829C43.5537 7.481 42.8382 8.19657 41.9555 8.19657H13.6608C12.7781 8.19657 12.0625 7.481 12.0625 6.59829Z" fill="url(#paint10_linear_717_8471)" stroke="url(#paint11_linear_717_8471)" stroke-opacity="0.4" stroke-width="0.5" stroke-linejoin="round"/>
<path d="M13.6524 5C12.7743 5 12.0625 5.71558 12.0625 6.59829C12.0625 6.7851 12.0944 6.96443 12.153 7.13107C12.3712 6.51031 12.9602 6.06556 13.6524 6.06556H41.9638C42.6561 6.06556 43.245 6.51032 43.4633 7.13108C43.5219 6.96443 43.5537 6.7851 43.5537 6.59829C43.5537 5.71558 42.8419 5 41.9638 5H13.6524Z" fill="white"/>
<g style="mix-blend-mode:overlay" opacity="0.8">
<path d="M12.153 6.06549C12.0944 6.23213 12.0625 6.41146 12.0625 6.59827C12.0625 7.48098 12.7743 8.19656 13.6524 8.19656H41.9638C42.8419 8.19656 43.5537 7.48098 43.5537 6.59827C43.5537 6.41146 43.5219 6.23214 43.4633 6.0655C43.245 6.68625 42.6561 7.131 41.9638 7.131H13.6524C12.9602 7.131 12.3712 6.68625 12.153 6.06549Z" fill="black"/>
</g>
<path d="M12.0625 6.59829C12.0625 5.71558 12.7781 5 13.6608 5H41.9555C42.8382 5 43.5537 5.71558 43.5537 6.59829V6.59829C43.5537 7.481 42.8382 8.19657 41.9555 8.19657H13.6608C12.7781 8.19657 12.0625 7.481 12.0625 6.59829V6.59829Z" stroke="url(#paint12_linear_717_8471)" stroke-width="0.5" stroke-linecap="round" stroke-linejoin="round"/>
<g filter="url(#filter0_d_717_8471)">
<path d="M23.2331 8.19653H25.6888L35.6523 50.6682C35.7389 51.0373 35.3994 51.3647 35.0337 51.2647L23.3195 48.0629C22.8787 47.9424 22.5757 47.5384 22.5833 47.0815L23.2331 8.19653Z" fill="#FFBB00"/>
</g>
<g style="mix-blend-mode:overlay" opacity="0.8">
<path d="M35.2288 48.8514L35.653 50.6598C35.7405 51.0326 35.3996 51.3639 35.0318 51.2634L23.3276 48.0643C22.8837 47.943 22.5784 47.5343 22.5861 47.072L22.608 45.759L35.2288 48.8514Z" fill="black"/>
</g>
<defs>
<filter id="filter0_d_717_8471" x="20.5833" y="6.19653" width="19.0828" height="49.0864" filterUnits="userSpaceOnUse" color-interpolation-filters="sRGB">
<feFlood flood-opacity="0" result="BackgroundImageFix"/>
<feColorMatrix in="SourceAlpha" type="matrix" values="0 0 0 0 0 0 0 0 0 0 0 0 0 0 0 0 0 0 127 0" result="hardAlpha"/>
<feOffset dx="1" dy="1"/>
<feGaussianBlur stdDeviation="1.5"/>
<feComposite in2="hardAlpha" operator="out"/>
<feColorMatrix type="matrix" values="0 0 0 0 1 0 0 0 0 0.823529 0 0 0 0 0.341176 0 0 0 0.8 0"/>
<feBlend mode="normal" in2="BackgroundImageFix" result="effect1_dropShadow_717_8471"/>
<feBlend mode="normal" in="SourceGraphic" in2="effect1_dropShadow_717_8471" result="shape"/>
</filter>
<linearGradient id="paint0_linear_717_8471" x1="53.7769" y1="21.0344" x2="49.1184" y2="24.0647" gradientUnits="userSpaceOnUse">
<stop stop-color="#008FFF"/>
<stop offset="1" stop-color="#33A5FF"/>
</linearGradient>
<linearGradient id="paint1_linear_717_8471" x1="54.3631" y1="21.3712" x2="46.7774" y2="24.8821" gradientUnits="userSpaceOnUse">
<stop stop-color="white"/>
<stop offset="1" stop-color="white" stop-opacity="0"/>
</linearGradient>
<linearGradient id="paint2_linear_717_8471" x1="57.3953" y1="59.8139" x2="-4.10034" y2="5.40888" gradientUnits="userSpaceOnUse">
<stop stop-color="#33A5FF"/>
<stop offset="1" stop-color="#99D2FF"/>
</linearGradient>
<linearGradient id="paint3_linear_717_8471" x1="53.4657" y1="51.4942" x2="-14.2925" y2="39.6457" gradientUnits="userSpaceOnUse">
<stop stop-color="white"/>
<stop offset="1" stop-color="white" stop-opacity="0"/>
</linearGradient>
<linearGradient id="paint4_linear_717_8471" x1="70.7032" y1="29.4166" x2="-6.93432" y2="33.9699" gradientUnits="userSpaceOnUse">
<stop stop-color="#1B217C"/>
<stop offset="1" stop-color="#1B217C" stop-opacity="0"/>
</linearGradient>
<linearGradient id="paint5_linear_717_8471" x1="24.8504" y1="26.877" x2="4.59032" y2="40.0561" gradientUnits="userSpaceOnUse">
<stop stop-color="#1B217C"/>
<stop offset="1" stop-color="#1B217C" stop-opacity="0"/>
</linearGradient>
<linearGradient id="paint6_linear_717_8471" x1="36.4094" y1="33.2077" x2="20.7539" y2="43.3915" gradientUnits="userSpaceOnUse">
<stop stop-color="#1B217C"/>
<stop offset="1" stop-color="#1B217C" stop-opacity="0"/>
</linearGradient>
<linearGradient id="paint7_linear_717_8471" x1="40.6613" y1="37.9378" x2="37.5916" y2="39.9346" gradientUnits="userSpaceOnUse">
<stop stop-color="#1B217C"/>
<stop offset="1" stop-color="#1B217C" stop-opacity="0"/>
</linearGradient>
<linearGradient id="paint8_linear_717_8471" x1="19.2006" y1="38.3414" x2="17.3588" y2="39.5395" gradientUnits="userSpaceOnUse">
<stop stop-color="#1B217C"/>
<stop offset="1" stop-color="#1B217C" stop-opacity="0"/>
</linearGradient>
<linearGradient id="paint9_linear_717_8471" x1="47.8395" y1="28.1034" x2="45.9977" y2="29.3015" gradientUnits="userSpaceOnUse">
<stop stop-color="#1B217C"/>
<stop offset="1" stop-color="#1B217C" stop-opacity="0"/>
</linearGradient>
<linearGradient id="paint10_linear_717_8471" x1="42.5156" y1="7.80502" x2="12.7546" y2="7.80502" gradientUnits="userSpaceOnUse">
<stop stop-color="#008FFF"/>
<stop offset="1" stop-color="#33A5FF"/>
</linearGradient>
<linearGradient id="paint11_linear_717_8471" x1="44.1634" y1="8.19657" x2="25.5595" y2="-14.0959" gradientUnits="userSpaceOnUse">
<stop stop-color="white"/>
<stop offset="1" stop-color="white" stop-opacity="0"/>
</linearGradient>
<linearGradient id="paint12_linear_717_8471" x1="63.0286" y1="8.19657" x2="8.91688" y2="3.66428" gradientUnits="userSpaceOnUse">
<stop stop-color="#1B217C"/>
<stop offset="1" stop-color="#1B217C" stop-opacity="0"/>
</linearGradient>
</defs>
</svg>
