<svg width="104" height="104" viewBox="0 0 104 104" fill="none" xmlns="http://www.w3.org/2000/svg">
<g clip-path="url(#clip0_3522_195372)">
<path fill-rule="evenodd" clip-rule="evenodd" d="M47.0762 58.5669H102.708V11H47.0762C49.977 17.986 51.5085 26.1565 51.467 34.5307C51.4636 42.7419 49.976 50.8849 47.0762 58.5669ZM78.9476 29.2264C78.9077 29.3214 78.8869 29.4233 78.8864 29.5263L78.8902 35.26H72.5039V29.5263C72.5034 29.4233 72.4826 29.3214 72.4427 29.2264C72.4029 29.1314 72.3447 29.0451 72.2714 28.9726C72.1982 28.9001 72.1115 28.8428 72.0161 28.8038C71.9207 28.7648 71.8186 28.745 71.7155 28.7455H70.135C70.032 28.745 69.9298 28.7648 69.8344 28.8038C69.7391 28.8428 69.6523 28.9001 69.5791 28.9726C69.5059 29.0451 69.4477 29.1314 69.4078 29.2264C69.3679 29.3214 69.3471 29.4233 69.3466 29.5263V43.77C69.3471 43.8731 69.3679 43.975 69.4078 44.07C69.4477 44.165 69.5059 44.2512 69.5791 44.3237C69.6523 44.3962 69.7391 44.4536 69.8344 44.4926C69.9298 44.5315 70.032 44.5513 70.135 44.5508H71.708C71.811 44.5513 71.9132 44.5315 72.0085 44.4926C72.1039 44.4536 72.1907 44.3962 72.2639 44.3237C72.3371 44.2512 72.3953 44.165 72.4352 44.07C72.4751 43.975 72.4959 43.8731 72.4964 43.77V37.9043H78.8902V43.7738C78.8932 43.9822 78.9786 44.181 79.1277 44.3266C79.2769 44.4722 79.4777 44.5529 79.6861 44.5508H81.2516C81.3546 44.5513 81.4567 44.5315 81.5521 44.4926C81.6475 44.4536 81.7343 44.3962 81.8075 44.3237C81.8807 44.2512 81.9389 44.165 81.9788 44.07C82.0187 43.975 82.0394 43.8731 82.0399 43.77V29.5263C82.0394 29.4233 82.0187 29.3214 81.9788 29.2264C81.9389 29.1314 81.8807 29.0451 81.8075 28.9726C81.7343 28.9001 81.6475 28.8428 81.5521 28.8038C81.4567 28.7648 81.3546 28.745 81.2516 28.7455H79.6748C79.5718 28.745 79.4696 28.7648 79.3742 28.8038C79.2789 28.8428 79.1921 28.9001 79.1189 28.9726C79.0457 29.0451 78.9875 29.1314 78.9476 29.2264ZM98.2565 28.7455C98.7883 28.7417 98.7167 29.0925 98.3394 29.5263L93.3338 35.094L98.7619 43.77C99.026 44.2 98.8902 44.5508 98.4564 44.5508H96.1931C95.9629 44.521 95.7439 44.4338 95.5561 44.2974C95.3682 44.161 95.2176 43.9797 95.118 43.77L91.2025 37.463L88.4941 40.4543V43.77C88.4977 43.8713 88.4808 43.9722 88.4444 44.0668C88.4081 44.1614 88.3531 44.2478 88.2827 44.3206C88.2123 44.3935 88.1279 44.4515 88.0346 44.491C87.9413 44.5306 87.841 44.5509 87.7397 44.5508H86.1327C86.0297 44.5513 85.9276 44.5315 85.8322 44.4926C85.7368 44.4536 85.65 44.3962 85.5768 44.3237C85.5036 44.2512 85.4454 44.165 85.4055 44.07C85.3656 43.975 85.3448 43.8731 85.3443 43.77V29.5301C85.3453 29.3217 85.4288 29.1221 85.5766 28.9751C85.7243 28.828 85.9243 28.7455 86.1327 28.7455H87.7359C87.8376 28.7454 87.9382 28.7659 88.0317 28.8057C88.1253 28.8455 88.2099 28.9037 88.2803 28.977C88.3508 29.0503 88.4057 29.1371 88.4418 29.2321C88.4779 29.3272 88.4944 29.4285 88.4903 29.5301V35.8824L94.3787 29.349C94.5632 29.1244 94.8023 28.951 95.0731 28.8453C95.3439 28.7396 95.6374 28.7053 95.9253 28.7455H98.2565ZM58.8817 28.9773C59.0736 28.8354 59.308 28.763 59.5465 28.7719H61.4062C61.6447 28.763 61.8792 28.8354 62.0711 28.9773C62.263 29.1192 62.401 29.3221 62.4624 29.5527L67.3662 43.7964C67.4079 43.8817 67.4266 43.9765 67.4202 44.0712C67.4139 44.1659 67.3829 44.2574 67.3302 44.3364C67.2776 44.4154 67.2051 44.4792 67.1201 44.5214C67.0351 44.5637 66.9404 44.583 66.8457 44.5773H65.2802C65.0461 44.5632 64.821 44.4822 64.6317 44.3437C64.4424 44.2053 64.297 44.0153 64.2127 43.7964L63.1678 40.5901H57.7925L56.7589 43.7964C56.6728 44.0148 56.5264 44.2042 56.3367 44.3424C56.147 44.4807 55.9219 44.5621 55.6876 44.5773H54.1222C54.0273 44.5834 53.9326 44.5644 53.8474 44.5222C53.7623 44.4799 53.6898 44.4159 53.6374 44.3367C53.5849 44.2574 53.5543 44.1657 53.5487 44.0709C53.5431 43.976 53.5627 43.8813 53.6054 43.7964L58.4903 29.5527C58.5518 29.3221 58.6898 29.1192 58.8817 28.9773ZM61.9607 37.9232L60.1765 32.4007L58.3734 37.9232H61.9607Z" fill="#B3B8BC"/>
<path d="M27.0654 42.0751C26.9787 42.0487 26.56 41.9242 26.5298 41.9242C26.2356 41.9242 25.5943 42.0524 25.5 42.3618C26.1492 42.4863 26.8161 42.4863 27.4653 42.3618C27.371 42.1694 27.2842 42.1505 27.0654 42.0751Z" fill="#B3B8BC"/>
<path d="M27.4434 38.8762C27.494 38.9793 27.5648 39.0712 27.6516 39.1464C27.7385 39.2216 27.8395 39.2785 27.9488 39.3138L28.2204 38.9705C28.5448 39.0196 28.4732 39.0988 28.7636 39.2535C28.7636 38.9404 28.4166 38.6914 28.1789 38.499C27.8969 38.534 27.6363 38.6676 27.4434 38.8762Z" fill="#B3B8BC"/>
<path d="M28.5028 43.2482C28.2274 43.2181 27.8275 43.1162 27.6465 43.2482L29.0497 43.9084C29.0007 43.6518 28.6914 43.4331 28.5028 43.2482Z" fill="#B3B8BC"/>
<path d="M28.6458 41.9392C28.5968 41.7054 28.4836 41.7393 28.378 41.4828C28.2723 41.2263 28.378 41.3093 28.378 40.9547C28.0385 40.9547 28.1818 41.0943 27.8951 41.0264C27.6839 40.9773 27.6839 40.8755 27.582 41.1433C27.5783 41.2753 28.5289 41.9166 28.6458 41.9392Z" fill="#B3B8BC"/>
<path d="M25.3075 38.8725C25.5791 38.7706 25.6847 38.8046 25.764 38.5782C25.2359 38.1671 24.9529 38.5782 24.7455 38.7178C24.471 38.977 24.2256 39.2654 24.0137 39.5779C24.4739 39.608 24.587 39.1516 25.3075 38.8725Z" fill="#B3B8BC"/>
<path d="M22.1159 40.487C21.4859 40.4304 21.5274 40.7548 21.4859 40.9133C21.403 41.2301 21.2106 41.4678 21.3803 41.762C21.452 41.7017 22.0216 40.6643 22.1159 40.487Z" fill="#B3B8BC"/>
<path d="M29.5289 21.9431C29.5553 22.3391 30.008 22.2297 30.2607 22.1354C30.2993 21.9618 30.2752 21.7801 30.1928 21.6224C29.9099 21.5998 29.4987 21.547 29.5289 21.9431Z" fill="#B3B8BC"/>
<path d="M30.227 19.1629L29.6801 19.1139C29.4537 19.4685 29.533 19.6873 29.533 20.1286C29.533 20.4606 29.4311 21.0037 29.8461 20.9811C30.4156 20.9472 30.2874 20.3285 30.2534 19.6231C30.2704 19.4693 30.2615 19.3138 30.227 19.1629Z" fill="#B3B8BC"/>
<path d="M30.8605 18.9895C30.5097 18.9631 30.5701 20.4644 30.687 20.7888C31.0831 20.9321 31.1208 20.8642 31.3999 20.5813V19.9929C31.3999 19.5591 31.3924 19.0234 30.8605 18.9895Z" fill="#B3B8BC"/>
<path d="M28.6048 22.2561C28.8278 22.2854 29.0541 22.2375 29.2461 22.1203C29.28 21.8298 29.3027 21.6563 29.1593 21.5922C28.6388 21.381 28.2201 21.728 28.6048 22.2561Z" fill="#B3B8BC"/>
<path d="M30.6793 21.9431C30.7057 22.3391 31.1621 22.2297 31.4111 22.1354C31.4508 21.9622 31.4281 21.7805 31.347 21.6224C31.0603 21.5998 30.6491 21.547 30.6793 21.9431Z" fill="#B3B8BC"/>
<path d="M27.7757 21.7205C27.5117 21.7431 27.7493 21.6186 27.4211 21.7205C27.2174 22.3278 27.6475 22.5541 28.1001 22.1995V21.6526C27.8889 21.6375 27.9379 21.7054 27.7757 21.7205Z" fill="#B3B8BC"/>
<path d="M28.6056 21.0529C29.3411 21.1396 29.2619 20.7285 29.2619 20.1287C29.2619 19.4535 29.2883 19.2649 28.5829 19.1781C28.3981 19.4987 28.5301 19.5251 28.5263 20.1287C28.5226 20.5097 28.3755 20.7473 28.6056 21.0529Z" fill="#B3B8BC"/>
<path d="M27.4423 21.0603C27.7667 21.0829 27.8195 21.1207 28.0873 20.917V19.2648C27.3932 19.212 27.3329 18.9894 27.3329 19.7212C27.2983 20.1705 27.3352 20.6225 27.4423 21.0603Z" fill="#B3B8BC"/>
<path d="M37.0279 53.7423C36.7299 52.8785 36.496 52.2032 36.4394 52.0297C36.1452 51.1508 35.866 50.2757 35.5869 49.4118L34.9268 47.3334C34.8626 47.1561 34.8664 47.0505 34.8212 46.8996C34.7611 46.5797 34.6701 46.2664 34.5496 45.9641C34.4628 45.6548 34.361 45.4096 34.2666 45.4209C33.9762 45.4586 34.2138 46.0471 34.2666 46.2508C35.1795 49.5439 36.6733 53.7461 37.7823 57.0807L38.2538 58.5895H38.5481C38.4893 58.3015 38.415 58.017 38.3255 57.737C38.0577 56.6883 37.4843 55.0286 37.0279 53.7423Z" fill="#B3B8BC"/>
<path d="M31.4084 41.4036C31.4952 40.2719 31.4726 41.049 31.6272 40.5322C31.3699 40.3508 31.0694 40.2402 30.7559 40.2115C30.8627 40.5467 31.0083 40.8682 31.1897 41.1697C31.3066 41.4111 31.25 41.3545 31.4084 41.4036Z" fill="#B3B8BC"/>
<path d="M37.4577 45.5265C36.8844 44.6589 36.3902 43.8743 36.1299 43.3688C35.9413 42.9916 35.6735 42.5163 35.5188 42.1617C35.4201 41.8772 35.2937 41.6031 35.1416 41.3432C34.9719 40.8792 34.8927 40.6302 34.6135 40.5887C34.5155 40.7924 34.5456 40.7623 34.6135 40.966C34.6588 41.0829 34.7078 41.1847 34.7606 41.3017C35.5657 43.2699 36.648 45.113 37.9745 46.7751L41.1658 51.2602C41.4487 51.6374 41.6675 51.992 41.9466 52.3692C42.2257 52.7464 42.4898 53.1236 42.7576 53.5008C43.0254 53.8781 43.2027 54.1195 43.4291 54.4439L43.5234 54.5797C43.629 54.7381 43.7384 54.8965 43.8515 55.0587C44.1835 55.5454 44.5041 56.0056 44.7946 56.3979L45.2322 56.9712C45.4132 57.2202 45.6094 57.4654 45.7678 57.7257C45.9659 57.9738 46.1191 58.2546 46.2205 58.5555H46.7335L38.9968 47.6729C38.4725 46.9637 38.0047 46.2545 37.4577 45.5265Z" fill="#B3B8BC"/>
<path d="M40.9388 58.0916C40.886 57.9407 40.8068 57.7974 40.7389 57.6163C40.6408 57.3447 40.4371 56.9864 40.3202 56.6922L39.479 54.9041C38.9509 53.6631 38.3473 52.4371 37.857 51.2037C37.7438 50.9321 37.6193 50.6642 37.4797 50.3964C37.0308 49.3704 36.5631 48.3368 36.1029 47.3032L35.0316 44.7193C34.9184 44.4326 34.9071 44.1874 34.7487 44.0592C34.6695 43.8178 34.6204 43.682 34.3715 43.6329C34.2847 43.8102 34.3073 43.5764 34.3073 43.8329L36.3481 48.6612C36.499 48.9781 36.6348 49.2648 36.7706 49.5892C37.5476 51.4526 38.502 53.4292 39.2602 55.2474L40.5126 58.1067C40.5955 58.3066 40.6521 58.4651 40.7049 58.5858H41.0482L40.969 58.4009C40.976 58.2969 40.9658 58.1924 40.9388 58.0916Z" fill="#B3B8BC"/>
<path d="M41.4941 54.5873L36.9675 46.5262L35.319 43.433C35.229 43.1735 35.1019 42.9283 34.9418 42.705C34.757 42.2297 34.7909 42.2297 34.459 42.2222C34.5461 42.6521 34.7028 43.0649 34.923 43.4444C35.1757 44.0743 36.7902 46.8204 37.2428 47.6541L38.1897 49.3365L38.9177 50.6869C39.6721 52.0336 40.3586 53.3689 41.147 54.6552C41.5242 55.2625 41.8675 56.0585 42.2787 56.6356C42.3315 56.7148 42.4409 56.8959 42.5691 57.1147L43.0972 58.0502C43.1312 58.1181 43.1651 58.1746 43.1953 58.2312C43.2598 58.3457 43.3141 58.4656 43.3575 58.5896H43.7347L42.0976 55.6247C41.8751 55.2738 41.7091 54.9494 41.4941 54.5873Z" fill="#B3B8BC"/>
<path d="M48.7028 54.6741V54.6439V54.6703C48.3935 54.3459 46.9337 52.8446 46.7337 52.6447L41.8714 47.7409L41.7884 47.6428C41.4489 47.2316 40.5021 46.3753 39.8043 45.5832C39.627 45.3795 39.4271 45.206 39.2347 45.0136C37.4354 43.0143 37.209 42.1845 35.4286 39.2422C35.2777 38.997 35.1834 38.7405 35.0514 38.5217L34.9571 38.3218C34.8401 38.0841 34.908 38.1747 34.6855 38.0577L34.6327 38.137H34.6063C34.6047 38.152 34.6047 38.1672 34.6063 38.1822C34.5119 38.3331 34.5836 38.3444 34.8364 38.8537C35.4529 40.1341 36.1483 41.375 36.9186 42.5692C37.2241 43.0257 37.5221 43.4821 37.8692 43.9084C38.545 44.7739 39.2865 45.5861 40.0872 46.3376L46.1227 52.5692C46.6244 53.169 47.7183 54.2667 48.5859 55.1381H48.567C48.5703 55.0797 48.5871 55.0229 48.6161 54.9721L48.6575 54.9193C48.6595 54.9106 48.6595 54.9016 48.6575 54.8929C48.6557 54.864 48.6557 54.835 48.6575 54.8061C48.6668 54.7603 48.682 54.7159 48.7028 54.6741Z" fill="#B3B8BC"/>
<path d="M48.0798 56.828C48.0545 56.808 48.0328 56.7837 48.0157 56.7564L47.0273 55.6549C46.6992 55.24 46.3559 54.8816 46.0466 54.4817L38.0383 44.8401C37.0679 43.5721 36.2085 42.223 35.4695 40.8077C35.345 40.57 35.2393 40.3512 35.1111 40.0872C35.0394 39.9476 34.9942 39.842 34.9376 39.71C34.8169 39.4761 34.9149 39.5138 34.6622 39.4459C34.5717 39.6232 34.5943 39.3893 34.5943 39.6458C34.8043 40.162 35.0436 40.6658 35.311 41.1547C36.2881 43.0479 37.5011 44.8097 38.921 46.398C39.0945 46.5979 39.2228 46.7752 39.3963 46.9978L42.8893 51.1849C43.3872 51.8035 47.182 56.1604 47.182 56.4357C47.3216 56.6092 47.6271 56.9299 47.8685 57.1902C47.9289 57.0732 48.0006 56.9601 48.0798 56.828Z" fill="#B3B8BC"/>
<path d="M35.6097 37.4315C35.7681 37.3825 35.8323 37.0316 35.7229 36.3451C35.489 34.8626 34.6214 20.0003 34.6478 19.5816C34.6463 19.4715 34.6831 19.3643 34.7519 19.2783C34.8207 19.1923 34.9172 19.1328 35.025 19.1101L35.3607 19.1441C35.2325 19.6608 35.3607 21.0829 35.3947 21.479C35.4286 21.8751 35.3947 22.3655 35.3947 22.754L35.8587 31.3093C35.8587 32.0637 36.0397 32.92 36.0624 33.6669C36.085 34.4138 36.1944 35.2663 36.2774 36.0132C36.3189 36.3904 36.3679 36.7676 36.4056 37.1448C36.4358 37.4654 36.4056 38.0162 36.7187 38.0765C36.8243 37.9332 36.6357 35.9905 36.4924 34.6476C36.4283 34.0592 36.3717 33.5877 36.349 33.4255L36.0133 27.5371L35.655 21.2942C35.655 20.8642 35.655 20.4379 35.655 20.0117C35.6931 19.7401 35.6931 19.4646 35.655 19.1931L36.1189 19.2384C36.1189 19.2912 36.1189 19.3553 36.1416 19.4345C36.195 20.1877 36.2102 20.9431 36.1868 21.6978C36.1868 22.2297 36.2547 22.6522 36.2547 23.1803L36.3189 25.4058C36.3189 25.6774 36.383 25.8057 36.3905 26.0735C36.3981 26.3413 36.3905 26.5828 36.3905 26.8279C36.3905 27.0731 36.4584 27.2052 36.4622 27.4956L36.6018 30.3851C36.7715 31.894 37.2883 40.8227 37.6844 41.43C38.0993 41.3809 37.8466 40.7472 37.8051 40.3662C37.7636 39.9852 37.7146 39.5741 37.6693 39.1818C37.5599 38.2614 37.4543 37.3523 37.4015 36.3941C37.3751 35.9754 37.277 35.4586 37.2657 35.0437C37.2355 33.8781 37.0658 32.3542 36.9979 31.0037L36.8658 28.9139C36.8658 28.6348 36.8017 28.5367 36.7942 28.2425C36.7602 27.1109 36.5867 24.9947 36.5905 24.0667V23.482L36.5377 21.2187C36.5377 20.7321 36.4697 20.3625 36.4697 19.8721V19.2723L36.9262 19.3213C36.9262 19.393 36.9262 19.4835 36.9262 19.6005C36.925 19.8529 36.9426 20.1051 36.979 20.3549C37.0094 20.8876 37.0094 21.4216 36.979 21.9543L37.1148 24.972C37.1148 26.9524 37.3524 28.9969 37.4505 30.9698C37.4996 31.9392 37.6278 32.9879 37.6542 33.9309C37.6768 34.7834 37.7749 36.0207 37.8919 36.8581C38.0088 37.6955 38.0956 38.8234 38.1861 39.7325C38.2238 40.1474 38.3483 42.2334 38.7255 42.373C38.9707 42.1467 38.7255 41.4262 38.6689 41.0829L38.601 40.4945L38.4992 39.7023C38.3973 38.9479 37.8617 33.3198 37.8541 32.4673C37.8541 30.9924 37.5825 29.7627 37.5863 28.0162C37.5863 27.6993 37.5335 27.5635 37.5184 27.2617C37.5033 26.96 37.5184 26.7563 37.5184 26.5073C37.5184 26.2583 37.4467 26.0848 37.4467 25.7529C37.4467 25.5228 37.4467 25.2399 37.4467 24.9984L37.3902 23.7008L37.2468 20.4869C37.2468 20.2418 37.277 19.6646 37.2468 19.2949H37.3675C37.5417 19.3115 37.7129 19.3508 37.8768 19.4119C37.707 21.5431 38.3143 31.2414 38.4615 33.0709C38.5859 34.6061 38.6123 35.8887 38.7896 37.5975C38.8424 38.0954 38.8915 38.6499 38.9292 39.144C38.9669 39.6382 39.0424 40.1361 39.0725 40.619C39.0952 41.0226 39.2762 43.2142 39.5478 43.3764C39.6723 43.3425 39.7251 43.2972 39.744 43.2331V43.1124C39.744 43.0256 39.6912 42.9162 39.6685 42.7842L39.2725 38.1256L38.5708 29.8683C38.4464 29.0422 38.5105 28.0652 38.4615 27.4881C38.3634 26.3112 38.337 25.0927 38.2992 23.9422V23.6141C38.3261 23.6455 38.358 23.6722 38.3936 23.6933L38.4615 23.648L39.8911 43.2368C39.9215 43.5493 40.0184 43.8516 40.1752 44.1235C40.332 44.3954 40.5451 44.6307 40.8002 44.8136L47.2129 50.6529V50.7019C47.8747 51.3711 48.5831 51.9926 49.3328 52.5616V52.5842C49.3487 52.4858 49.403 52.3976 49.4837 52.3391C49.5123 52.254 49.5516 52.1729 49.6006 52.0976C49.5521 52.0841 49.5079 52.0581 49.4724 52.0222L49.3554 51.9317C48.5558 51.2036 42.7617 45.9226 41.6565 44.9268C40.4645 43.8517 40.638 43.2632 40.5663 42.803C40.389 41.6714 39.6497 34.2629 39.3404 27.4617C39.1631 23.6292 39.197 20.3247 39.0575 19.6571C39.0199 19.5092 38.9455 19.3732 38.8413 19.2618C38.7371 19.1503 38.6065 19.067 38.4615 19.0196C38.4615 19.0196 36.3905 18.9026 35.2891 18.7291C35.059 18.6952 34.81 18.7668 34.3498 18.0954C33.9474 17.5226 33.5155 16.9712 33.0559 16.4432C32.8847 16.2338 32.638 16.1003 32.369 16.0713C32.1001 16.0424 31.8306 16.1204 31.6188 16.2885C30.6455 17.1109 27.956 17.2995 26.4207 17.3032C24.8115 17.3251 23.2147 17.0183 21.7282 16.4017C21.7282 16.4017 21.0114 15.7981 20.7172 16.1452C20.423 16.4922 19.0009 18.6688 19.0009 18.6688C19.0009 18.6688 15.8738 18.831 14.6025 19.046C14.0367 19.1478 14.0141 19.2497 14.0065 20.0645C13.965 24.1459 12.6599 41.5959 12.426 42.7314C12.3002 43.436 11.992 44.0954 11.532 44.6439C11.532 44.6439 2.53163 52.5993 1.02277 53.8404V54.4439C1.83755 53.6631 11.4603 45.602 12.2563 44.7382C13.0522 43.8743 12.939 43.3198 13.1993 41.7204C13.7953 38.0728 14.5196 23.4217 14.4894 20.1437C14.4894 19.51 14.6818 19.3892 15.0627 19.3666C15.0099 19.7438 15.0627 20.3398 15.0401 20.6265L14.9496 22.9351L14.7308 28.4688C14.7308 29.9777 14.4554 31.7544 14.463 33.1199L13.9877 38.4009L13.667 42.0109C13.6369 42.2523 13.5614 42.5918 13.535 42.886C13.4973 43.2368 13.6821 43.7687 13.8368 43.1878C14.0933 42.2108 14.5912 35.6887 14.6667 34.5118C14.7044 34.0403 14.7874 33.4292 14.8025 32.9615L15.0703 28.3142C15.0703 26.6544 15.3457 23.6367 15.3381 21.9807C15.3381 21.4187 15.3381 20.8491 15.3381 20.2946C15.3381 19.8457 15.4022 19.5401 15.4022 19.3176H15.489L16.1378 19.2572L16.0775 20.7661C16.0775 20.9962 16.0775 21.3357 16.0775 21.7393C16.0435 23.3425 15.9417 25.949 15.8398 26.7148L15.753 28.1746C15.704 30.0267 15.274 35.2814 14.8741 38.9102C14.7497 40.0418 14.6252 41.0339 14.5196 41.694C14.4824 41.8566 14.4824 42.0256 14.5196 42.1882C14.5837 42.3391 14.7421 42.3655 14.761 42.1542L15.6022 34.708C15.6814 33.1576 15.9303 30.9585 16.0096 29.3892C16.0548 28.4915 16.0925 27.5937 16.1416 26.6959C16.1416 26.4319 16.2095 26.3187 16.2133 26.0245C16.217 25.7302 16.1944 25.5303 16.2133 25.27L16.4056 21.2187V19.2082L17.1035 19.1554C17.0356 19.7476 17.013 21.098 17.013 21.6148V21.7582C17.013 22.6974 16.8734 23.7235 16.8809 24.6552L16.4056 31.7921C16.2887 33.267 16.0963 35.436 15.8926 37.3636C15.7832 38.367 15.6738 39.3062 15.572 40.0531C15.5305 40.336 15.3381 41.0754 15.4815 41.2715C15.8587 41.2715 15.7908 40.8943 15.8587 40.1399C16.0133 38.8159 16.2698 37.2693 16.3264 35.9566C16.3679 35.0437 16.5414 34.0516 16.5942 33.1237L17.0016 27.4051C17.0394 26.9336 17.0695 26.447 17.1223 25.9754L17.2695 23.0256C17.2695 22.49 17.3411 22.0373 17.3374 21.5431C17.3336 21.049 17.311 20.4756 17.3374 19.9928C17.3882 19.7039 17.4134 19.411 17.4128 19.1176H17.6052C17.7674 19.1176 17.9183 19.1176 18.0654 19.1176C18.0239 19.5175 17.9824 20.6265 17.9371 21.8638C17.8692 23.7989 17.79 26.1075 17.6919 26.8393L17.5373 29.4496C17.5184 29.8268 17.4392 30.3398 17.409 30.7321C17.3788 31.1244 17.3675 31.5771 17.326 31.9996L17.0582 34.4892L16.6584 38.2614C16.6206 38.5858 16.417 39.1742 16.6584 39.344C16.8696 39.2798 16.7414 39.4534 16.8507 39.1327L17.1374 36.9901C17.3336 35.2889 17.443 33.4933 17.6504 31.9166C17.8881 30.0795 17.9183 26.6657 18.1106 25.3719C18.1785 24.9381 18.1107 24.5156 18.1672 24.0818C18.2238 23.648 18.1672 23.1689 18.2163 22.7163C18.2649 22.2653 18.285 21.8118 18.2766 21.3583C18.2766 20.6944 18.4841 19.525 18.2766 19.095C18.5224 19.0981 18.7681 19.0855 19.0122 19.0573C18.9292 19.6872 18.9066 21.0905 18.8915 22.1769C18.8915 22.7842 18.8915 23.3085 18.8651 23.5009L18.4879 28.4047L18.0126 35.138C17.9749 35.5152 17.6693 37.0505 17.8541 37.2731C18.1861 37.2429 18.1408 36.6884 18.1785 36.3828L18.5558 32.9879C18.6123 32.2334 18.7217 31.3923 18.7595 30.6341L18.9141 28.2953C19.1027 26.9185 19.0876 24.2214 19.1933 23.5235L19.3027 21.0716C19.3027 20.6454 19.3027 20.2153 19.3027 19.7891C19.2783 19.472 19.3395 19.1541 19.4799 18.8687C19.675 18.4457 19.9461 18.0621 20.2796 17.737C20.6003 17.3938 20.5965 17.4428 20.604 17.82C20.6267 18.6235 20.604 20.8378 20.604 22.2825C20.9813 21.8374 20.8945 17.0241 21.0039 16.6582C21.0756 16.4206 21.234 16.5413 21.5282 16.7412L21.4037 19.3251C21.3245 20.7661 21.234 22.2825 21.0492 23.7536C20.9058 24.8853 20.7889 26.0471 20.6493 27.1938C20.1363 31.396 19.4045 35.7038 17.5184 39.4911C17.0948 40.3179 16.5893 41.1001 16.0096 41.8261L15.0929 42.8634C14.7973 43.2174 14.4784 43.5513 14.1386 43.863L8.37848 49.6231C7.71835 50.2832 7.15253 50.917 6.4924 51.5771L1.67535 56.3904C1.52824 56.5412 1.24532 56.7676 1.00391 57.0316V57.5522L12.6976 45.783C12.9315 45.5492 13.0333 45.3757 13.2672 45.1418L14.9948 43.3802C16.399 41.9666 17.5273 40.3036 18.3219 38.4764C18.3973 38.3104 18.4313 38.2123 18.4992 38.0426L18.684 37.688C18.601 38.6461 17.5524 40.9358 16.9865 41.8374C16.571 42.5463 16.0844 43.2111 15.5343 43.8215L10.0495 49.9928C9.85339 50.238 9.67233 50.37 9.51013 50.5963C9.34792 50.8227 9.15177 50.9735 8.97071 51.2036C8.45015 51.8562 7.83906 52.4145 7.32604 53.0595C7.12235 53.3236 6.97901 53.4368 6.78663 53.6669C6.44336 54.112 6.00579 54.4967 5.68138 54.9192C5.00994 55.7981 4.17252 56.496 3.4973 57.3824C3.24834 57.7068 2.65611 58.1369 2.53918 58.5556H2.91639C2.99561 58.4688 3.04841 58.3443 3.18798 58.201C3.29274 58.1045 3.39103 58.0011 3.48222 57.8917C4.11594 57.0995 5.03634 56.2244 5.63989 55.4662C6.30002 54.6401 7.08086 53.897 7.76362 53.0784L13.8368 46.2206C14.0179 45.9943 14.1801 45.8623 14.3762 45.6133C15.0288 44.7985 15.836 44.0478 16.4735 43.1991C17.873 41.3357 18.635 38.9026 18.7632 38.7517C18.6697 39.3039 18.5048 39.8415 18.2729 40.3511L17.6693 41.8298C17.0469 43.2746 16.1604 44.3874 15.2438 45.602L6.46599 57.439C6.30756 57.654 6.17554 57.8162 6.03597 58.0162C5.8964 58.2161 5.74551 58.3104 5.70779 58.5556H6.04351L6.06991 58.5254L16.5339 44.4024C17.688 42.7757 18.5344 40.9513 19.0311 39.0196L19.1706 38.6838C19.1706 38.5858 19.2008 38.2312 19.2234 38.5518C19.2461 38.8725 19.2498 38.5518 19.1706 38.6838C19.1706 39.5514 18.2427 42.1769 17.7787 43.086C17.658 43.3236 17.5712 43.4632 17.4392 43.6895L14.2668 49.0724C13.7764 49.8872 13.3162 50.6755 12.8334 51.479C12.3506 52.2825 11.9017 53.0822 11.4113 53.897L9.28003 57.4918C9.15177 57.7031 9.04238 57.8691 8.92921 58.0841C8.81605 58.2991 8.66516 58.4613 8.66893 58.5556H9.04615C9.125 58.4348 9.19557 58.3087 9.25739 58.1784L17.3902 44.4213C17.8918 43.6073 18.3197 42.7501 18.6689 41.86C19.148 40.6454 19.1819 40.038 19.4686 39.0875C19.4837 39.0558 19.4963 39.023 19.5064 38.9894C19.5064 38.9724 19.5132 38.9561 19.5252 38.9441V38.6046H19.5931C19.5988 38.6699 19.5988 38.7355 19.5931 38.8008C19.5705 38.9403 19.5931 38.8724 19.5328 38.9441C19.5009 39.4529 19.4239 39.9578 19.3027 40.453C19.1296 41.3426 18.8771 42.215 18.5482 43.0595C18.3709 43.5122 18.2125 43.78 18.0277 44.2251L15.3193 50.0682C15.1193 50.4643 14.9798 50.8227 14.7798 51.1999L14.214 52.4334C13.6633 53.7687 12.5958 55.7755 12.0563 57.0807C11.8413 57.6012 11.4 58.3217 11.3962 58.5895H11.7018C11.7766 58.4604 11.8409 58.3254 11.8941 58.1859C12.079 57.8087 12.2487 57.4315 12.4336 57.0543L17.8013 45.4473C18.0616 44.84 18.6576 43.697 18.8764 43.0822C19.0348 42.6295 19.1593 42.2825 19.2951 41.8223L19.6421 40.4832V40.1437C19.744 40.1437 19.7214 40.2342 19.7025 40.3398C19.6836 40.4454 19.7025 40.4077 19.6421 40.4832C19.6421 41.992 18.4577 45.2813 17.9824 46.7035C17.3147 48.7027 16.6923 50.6378 16.0284 52.6333L14.5648 57.0957C14.3578 57.5821 14.1986 58.0874 14.0895 58.6046H14.38C14.5151 58.2964 14.6273 57.9787 14.7157 57.654C14.8817 57.1561 15.059 56.6808 15.1948 56.1791C15.4588 55.2097 15.836 54.2214 16.1642 53.2406C16.8281 51.2451 17.4467 49.3176 18.1182 47.3145C19.1933 44.0893 19.695 43.0067 20.125 39.4873C20.1891 38.9554 20.291 38.3142 20.3136 37.7257L20.4682 35.9226C20.5739 35.1116 20.6455 32.9652 20.7361 32.2863C20.8002 31.8261 21.0492 27.0995 21.1887 26.877L21.2566 26.0697C21.3013 26.3403 21.278 26.6177 21.1887 26.877C21.2126 27.6897 21.1937 28.5031 21.1322 29.3138C21.1113 29.7146 21.1113 30.1163 21.1322 30.5171C21.1322 31.0037 21.0643 31.2489 21.0605 31.6488C21.0605 32.5164 21.0001 33.1576 20.9964 34.0101C20.9964 34.4515 20.9247 34.6589 20.9285 35.1418C20.9282 35.2859 20.9156 35.4298 20.8907 35.5718C20.8342 35.9754 21.1321 36.364 21.2189 35.4964C21.3321 34.3647 21.3962 31.8675 21.3962 31.2338L21.4867 28.7593C21.566 28.1746 21.5622 24.3081 21.6301 23.8555C21.747 23.0822 21.5924 22.207 21.6603 21.3998L21.7583 17.8087C21.7772 17.0128 21.5735 16.8355 22.1355 17.0807C23.5839 17.4601 25.0744 17.6553 26.5716 17.6616C28.161 17.6758 29.7449 17.4727 31.2793 17.058C31.3396 17.0316 31.5395 17.0015 31.5659 17.1637C31.5923 17.3259 31.5659 21.9241 31.6414 22.2749C31.7168 22.6258 31.9733 22.5352 31.9658 22.3806C31.9583 22.2259 31.8866 16.9034 31.8979 16.7223C31.9092 16.5413 32.5165 16.4658 32.4863 16.8845C32.4562 17.3032 32.6448 22.4032 32.8221 23.6254C32.9994 24.8476 34.9081 34.9004 35.1684 36.33C35.3042 37.0995 35.4211 37.4918 35.6097 37.4315ZM38.2502 20.4907L38.2879 20.9849C38.2464 21.0377 38.2276 21.1659 38.2314 21.4715V22.0411C38.1861 21.6035 38.2238 21.0226 38.2389 20.4907H38.2502Z" fill="#B3B8BC"/>
<path d="M22.1628 20.8228C22.1628 20.8228 22.7324 21.3395 22.7249 20.3324C22.7657 19.9197 22.7492 19.5033 22.6759 19.0951C21.9214 18.8386 22.1968 19.2913 22.1591 19.627C22.1364 19.876 22.0308 20.6115 22.1628 20.8228Z" fill="#B3B8BC"/>
<path d="M22.0039 21.9958C22.3245 22.2485 22.5773 22.2146 22.7583 21.86L22.6489 21.4828C21.8492 21.5016 21.9511 21.5469 22.0039 21.9958Z" fill="#B3B8BC"/>
<path d="M34.4899 48.5103L33.8034 45.7642C33.694 45.1342 33.4828 44.5533 33.3545 43.9234C32.9773 42.0712 32.2644 38.5858 31.178 37.0052C30.3104 35.7453 28.4658 34.195 27.2512 33.1274C26.4967 32.4673 26.3081 32.6559 25.7423 33.1878C25.5273 33.4141 24.8408 34.0101 24.6107 34.2214C23.3734 35.4322 23.1622 35.353 21.857 37.1297C21.0799 38.1897 20.7819 39.5476 20.4575 40.7811L19.058 46.7223C18.6808 48.0916 18.3904 49.8004 17.949 51.2715C17.7717 51.86 17.685 52.5013 17.5228 53.0709C17.3606 53.6404 16.2365 58.2538 16.2402 58.5895H18.7676C19.043 57.2844 19.4843 55.5718 19.937 54.112C20.7744 51.4186 21.857 49.2308 24.5805 47.9671C25.2265 47.6946 25.9225 47.5605 26.6236 47.5735C27.3246 47.5865 28.0152 47.7463 28.6506 48.0426C31.4647 49.2572 32.4794 52.1089 33.2904 54.8324L34.2599 58.5782H36.9004C36.9004 58.0614 35.2934 51.7506 35.1652 51.2187C34.9879 50.3511 34.6484 49.393 34.4899 48.5103ZM33.2866 47.6616C32.9094 47.5974 32.9396 47.1825 32.8415 46.9939C32.7434 46.8053 32.7774 46.96 32.6906 46.7449C32.6039 46.5299 32.2455 45.8245 32.3398 45.568C32.8076 45.5152 33.0943 46.5224 33.2376 47.0014C33.3055 47.2089 33.4187 47.4805 33.2866 47.6616ZM26.5646 43.8894C26.0516 43.8291 26.1874 44.0592 25.9573 43.6103C26.1415 43.4501 26.3772 43.3618 26.6212 43.3613C26.8443 43.4382 27.0571 43.542 27.2549 43.6706C27.6322 43.897 28.3036 44.078 28.3074 44.5495C27.8208 44.7495 27.0663 43.9686 26.5646 43.9083V43.8894ZM27.0211 44.8136C26.7457 44.8136 26.8061 44.8136 26.7721 44.5609C26.9305 44.5231 26.9004 44.4967 27.0626 44.5382C27.1342 44.7796 27.1569 44.6438 27.0211 44.8325V44.8136ZM22.0494 42.075L22.8604 40.585C23.1584 40.0833 23.2678 39.8909 23.9505 40.1701C24.0956 40.2225 24.2444 40.2641 24.3957 40.2945V40.7736C24.1014 40.9962 23.9656 41.3055 23.6865 41.1093C23.6865 40.6416 24.0637 40.9735 23.9619 40.5661C23.7921 40.5171 23.5167 40.6604 23.3093 40.7623C23.1018 40.8641 22.8906 41.0301 22.9321 41.215C23.2414 41.3243 23.3093 41.1923 23.6299 41.3885C23.5884 41.728 23.4262 41.6714 23.2791 42.0599C23.132 42.4484 23.0905 42.3919 22.6906 42.4145C22.6906 42.6861 22.7661 42.8483 22.5247 42.9275C22.3512 42.9247 22.1783 42.907 22.0079 42.8747C21.9173 42.8483 21.8985 42.9615 21.8193 42.72C21.6948 42.3164 22.2682 42.4032 22.4002 42.3956C22.2908 42.1467 22.3134 42.4334 22.0494 42.0939V42.075ZM24.9652 35.7491C25.1557 35.7487 25.3403 35.8155 25.4865 35.9375C25.6327 36.0596 25.7313 36.2293 25.7649 36.4168C25.5952 36.711 25.5311 36.6884 25.3877 36.8996C25.2444 37.1108 25.3311 37.1599 25.086 37.4013C24.6021 37.1895 24.1876 36.8457 23.8902 36.4092C23.9484 36.2942 24.0352 36.196 24.1421 36.124C24.2491 36.052 24.3728 36.0087 24.5013 35.998C24.788 36.2168 24.7163 36.3526 25.0897 36.33C25.0973 35.9716 24.969 36.1074 24.9652 35.768V35.7491ZM25.8706 37.5786C26.1308 37.6616 26.0931 37.5597 26.3798 37.4767L26.6816 37.7446C27.0098 37.5484 26.9305 37.4088 27.2964 37.4315C27.2236 37.8763 26.9901 38.279 26.6401 38.5631C26.2402 38.5443 26.1987 38.367 25.9724 38.0727C25.7461 37.7785 25.6329 37.8011 25.3726 37.5975C25.3161 37.0203 26.1799 36.4432 26.5684 36.1904C26.79 36.3531 26.997 36.5349 27.1871 36.7336L27.1305 37.0316C26.6854 37.1712 26.8928 36.6016 26.3534 36.9939C26.0931 37.2089 25.7914 37.2844 25.8706 37.5975V37.5786ZM29.8804 41.5507L30.201 41.1735C30.4151 41.2362 30.6083 41.3555 30.7603 41.5188C30.9124 41.6821 31.0176 41.8834 31.0648 42.1014C30.9404 42.2208 30.7839 42.3014 30.6145 42.3336C30.4451 42.3657 30.27 42.348 30.1105 42.2825C29.7333 42.1504 29.7672 41.8789 29.6125 41.6374C29.341 41.2187 28.6167 40.883 28.6733 40.3172C29.0278 40.1004 29.4347 39.9843 29.8502 39.9814C30.0762 40.2119 30.2206 40.51 30.2614 40.8302C29.771 40.8679 29.7295 40.5888 29.2731 40.5812C29.3913 40.9555 29.5999 41.2949 29.8804 41.5695V41.5507ZM26.1082 41.0565L26.0064 41.3847C25.7649 41.4715 25.8555 41.5054 25.5914 41.4186C25.4141 40.8679 25.697 40.536 26.1195 41.0754L26.1082 41.0565ZM25.4934 40.3624L25.267 40.3059C25.1765 39.9513 25.5122 39.8683 25.7649 39.8306L25.4934 40.3624ZM25.6442 40.3624C25.9837 40.0946 26.8853 39.7627 27.387 40.4153C26.5835 41.7242 25.6556 40.4379 25.6442 40.3624ZM26.1799 39.2308C26.2392 39.1537 26.318 39.0939 26.4082 39.0574C26.4984 39.0209 26.5967 39.0092 26.6929 39.0233C26.7155 39.344 26.5458 39.6797 26.1837 39.5741L26.1799 39.2308ZM27.9113 40.4869C28.4356 40.5058 28.2885 40.5284 28.4356 40.9132C28.8808 41.1621 28.76 41.1093 29.0769 41.4865C29.2995 41.7544 29.522 41.9166 29.5371 42.241C29.3259 42.407 29.3372 42.2825 29.2731 42.5013C29.5748 42.5013 29.522 42.3391 29.7861 42.5201C29.7861 42.8106 29.7521 42.622 29.5145 42.8973C29.6918 43.1123 30.0992 43.5914 30.3443 43.6216C30.291 43.542 30.2431 43.4588 30.201 43.3726C30.1218 43.1652 30.1293 43.3311 30.201 43.1501C30.5556 43.018 30.7781 43.6442 30.9554 43.9234C31.1847 44.2213 31.3655 44.5536 31.4911 44.9079C31.4289 44.9864 31.3478 45.0479 31.2555 45.0868C31.1632 45.1257 31.0626 45.1407 30.963 45.1305C30.7857 45.0739 29.6729 43.4103 29.4353 43.2217C28.9713 42.8445 29.1863 43.052 28.9675 42.5427C28.6997 42.4409 28.5903 42.5201 28.33 42.3051C28.1603 42.1768 28.0622 42.0297 27.8736 41.8864C27.685 41.7431 27.5454 41.6525 27.3568 41.528C27.1682 41.4036 27.0248 41.3017 26.9796 41.0075C27.2927 40.7397 27.6133 40.7057 27.9113 40.4643V40.4869ZM28.3149 40.2983C27.7642 39.9739 28.0169 40.1286 27.6586 39.6721C27.0852 38.9366 25.9649 39.1742 27.9339 37.8049C28.5375 38.0954 29.4428 39.3704 29.5371 39.691C29.1699 39.9607 28.7553 40.159 28.3149 40.2757V40.2983ZM25.5801 38.0991C25.8178 38.2387 26.161 38.4764 26.2327 38.7253C26.112 39.1591 25.3576 39.823 25.003 40.1248C24.6484 40.4266 24.3806 40.2342 24.0637 40.0116C23.6865 39.7438 23.9694 40.0833 23.6563 39.8909C23.4903 39.7891 23.5205 39.6156 23.5997 39.4684C23.811 39.0648 24.5013 38.4122 24.788 38.0237C25.1463 37.5295 25.1803 37.8464 25.5801 38.0991ZM25.003 41.0113H24.6899L24.5579 40.7962C24.7163 40.5661 24.8219 40.4982 25.1086 40.5925C25.1803 40.7962 25.1501 40.8038 25.003 41.0037V41.0113ZM23.5658 42.6031C23.7846 42.6597 23.8562 42.6257 24.0599 42.7842C24.0625 42.9537 24.0139 43.12 23.9203 43.2613C23.8267 43.4027 23.6926 43.5125 23.5356 43.5763C23.2829 43.5763 23.1282 43.5499 23.1584 43.2557C23.2036 42.4371 22.9622 42.4371 23.5658 42.5956V42.6031ZM22.4341 43.565C22.619 43.267 22.536 43.1689 22.8755 43.2821C23.015 43.7008 22.8755 43.7612 22.6378 44.0365L22.8151 44.2968C22.4832 44.8211 22.7548 44.9758 22.0607 45.0135C21.8494 45.0135 21.906 45.0927 21.6307 45.0135C21.5175 44.6552 22.1625 44.0139 22.4454 43.5575L22.4341 43.565ZM23.645 44.2364C24.1391 44.1572 24.241 43.8177 24.6107 43.7046L24.7993 43.8517C24.6371 44.4628 23.2904 45.5152 22.7849 44.7872C22.9396 44.2591 23.4941 44.2515 23.6714 44.2289L23.645 44.2364ZM24.3089 43.1048L24.4824 42.7842C24.9641 42.8381 25.4327 42.9759 25.8668 43.1916C25.9121 43.6442 25.4896 43.731 25.1501 43.5688C24.6672 43.3349 24.5239 43.35 24.3202 43.0935L24.3089 43.1048ZM25.7951 42.9275C25.301 42.6748 25.1199 42.8634 24.8747 42.3692C24.6333 42.4899 24.4183 42.6635 24.1731 42.6031C23.9432 42.541 23.7287 42.4318 23.5431 42.2825C23.4111 42.0109 24.1656 41.1508 24.2033 41.132L24.4824 41.2904C24.324 41.4903 24.1844 41.528 24.1505 41.7431C24.5918 42.0675 24.7427 41.3998 25.399 41.4375C25.4368 42.0599 24.9954 41.9203 24.8747 42.3692C25.3764 42.1127 26.0705 41.3922 26.4892 41.2904C26.8114 41.4158 27.109 41.5971 27.3681 41.826C27.6887 42.0297 28.0509 42.1354 28.0282 42.5578C27.6705 42.5893 27.3383 42.7567 27.1003 43.0256C27.5303 43.0709 28.1603 42.6484 28.4922 42.6484C28.8442 42.971 29.172 43.3189 29.473 43.6895C29.654 43.8706 29.7408 44.0365 29.9407 44.2289C30.1407 44.4213 30.4236 44.5759 30.1444 44.8702C29.8879 44.9532 30.0086 44.8023 29.737 44.806C29.3598 44.806 29.2542 45.1116 28.4243 44.2629C27.6699 43.4782 27.3832 43.7951 26.9683 43.0935C26.3836 43.2519 26.3119 43.1802 25.8064 42.9162L25.7951 42.9275ZM28.6092 44.8928C28.877 44.9833 28.8694 45.3379 29.2504 45.602C29.7785 45.9792 30.4915 46.2432 30.88 46.7336C30.5858 47.2165 30.4387 46.9713 30.0388 46.7563C28.7751 46.081 29.1259 45.9716 28.3564 45.6246C27.9792 45.4435 27.6887 45.5152 27.5115 45.0588C27.6732 44.9524 27.8561 44.8822 28.0474 44.8529C28.2388 44.8236 28.4343 44.8359 28.6205 44.889L28.6092 44.8928ZM30.3972 45.1984C31.0082 45.2512 31.7853 46.9109 31.8117 47.2165C31.2534 47.2165 31.1591 46.8392 30.9366 46.4092C30.6949 46.0334 30.5165 45.6206 30.4085 45.187L30.3972 45.1984ZM31.5703 46.1112C31.4609 45.8509 31.1931 45.5831 31.2157 45.2776C31.9701 45.2172 31.8758 45.7717 32.0607 46.1603C32.1814 46.4168 32.1588 46.3715 32.1361 46.6657C31.7929 46.677 31.7212 46.4243 31.5929 46.0999L31.5703 46.1112ZM31.6193 44.6476C31.427 44.161 31.1893 43.8932 30.9969 43.4443C31.2685 43.218 31.2044 43.2255 31.2044 42.8408C31.7212 42.886 32.0305 44.0742 32.1927 44.5458C32.2531 44.708 32.4794 45.0475 32.4643 45.2021C32.4492 45.436 32.0116 45.6133 31.6307 44.6363L31.6193 44.6476ZM32.8189 44.1912C32.9207 44.6552 33.1735 44.9456 33.0113 45.387C32.5284 45.4171 32.7321 45.2964 32.4756 44.5344C32.3185 44.1736 32.2119 43.7928 32.1588 43.4028C32.5473 43.3575 32.6982 43.5876 32.8302 44.1799L32.8189 44.1912ZM32.5058 42.9313L32.0795 43.2557C31.9672 43.1961 31.8689 43.1131 31.7914 43.0122C31.714 42.9113 31.6592 42.795 31.6307 42.671C31.5929 42.3466 32.3889 42.1429 32.5171 42.92L32.5058 42.9313ZM30.4952 36.9675C30.7927 37.3055 31.0152 37.7028 31.1478 38.1331C31.4949 38.9592 31.6005 38.9177 31.525 39.5326C31.0724 39.8494 30.7706 39.5099 30.3934 39.8155C30.6688 39.9739 30.7178 39.8419 31.012 39.8155C31.2304 39.7965 31.45 39.7965 31.6684 39.8155C31.9928 40.2455 31.8909 40.4681 32.0456 40.9471C32.1647 41.3293 32.2369 41.7245 32.2606 42.124C32.0151 42.2686 31.7283 42.327 31.4458 42.29L30.3142 40.3851C30.2463 40.2191 30.3142 40.1512 30.1897 39.9701C30.1067 39.8607 30.0049 39.857 29.903 39.7853C29.6276 39.6042 29.7521 39.4458 29.5258 39.1478C28.9637 38.3934 28.2885 37.8954 28.3338 37.4013C28.4884 37.2919 28.711 37.2089 28.9411 37.0618C30.1142 36.2583 29.8276 36.2847 30.4952 36.9675ZM29.6503 36.2131C29.3787 36.4092 29.5371 36.1753 29.2995 36.4017C29.0618 36.628 28.9751 37.0052 28.3979 36.96C28.3979 36.6997 28.5262 36.6582 28.6544 36.4318C28.9675 35.8849 28.7827 36.2357 28.9864 35.9792C28.6393 35.8434 28.6092 35.6661 28.2131 35.783C27.9772 35.8567 27.7466 35.9462 27.5228 36.0509C27.7227 36.3074 27.9 36.0999 28.3074 36.2432C28.33 36.5375 28.2659 36.5148 28.2659 36.7034C28.2659 36.892 28.3602 36.8392 28.3149 37.0807C28.3052 37.1436 28.2766 37.202 28.2328 37.2482C28.1891 37.2944 28.1323 37.3262 28.07 37.3393C28.0077 37.3524 27.9429 37.3463 27.8842 37.3216C27.8256 37.297 27.7758 37.255 27.7416 37.2014C27.4398 36.8619 27.3342 36.4696 27.138 36.2546C27.0513 36.1565 27.0098 36.164 26.9004 36.0207C27.0098 35.6435 28.0094 34.9871 28.3866 34.9984C28.6921 35.0173 29.7069 35.7793 29.6503 36.2131ZM25.2482 34.2251C25.6564 33.8397 26.1011 33.4948 26.576 33.1953C26.9532 33.4745 28.0471 34.2176 28.032 34.6665C27.8396 34.806 27.8472 34.7457 27.5907 34.7646C27.5652 34.8952 27.514 35.0194 27.4402 35.1301C27.3664 35.2408 27.2714 35.3358 27.1606 35.4096L26.6401 35.9037C26.4364 35.9566 25.7235 35.1946 25.5084 35.0022C25.2934 34.8098 24.803 34.6401 25.2482 34.2214V34.2251ZM24.6823 34.7381C25.1124 34.9984 26.4553 35.7717 26.1459 36.2131C25.8668 36.2131 25.6669 35.9 25.4745 35.7076C25.2104 35.4398 25.0596 35.4473 24.7502 35.2097C24.5729 35.3568 24.6522 35.3568 24.4937 35.5001C24.3353 35.6435 24.3164 35.6208 24.192 35.7415C24.0675 35.8623 23.8147 36.2017 23.6676 36.33L23.3847 36.1791C23.3394 35.9037 24.4937 34.8928 24.6823 34.7344V34.7381ZM21.6646 38.8008C21.9533 37.952 22.4129 37.1715 23.015 36.5073H23.2715C23.313 36.5073 24.6522 37.3183 24.7578 37.6578C24.3353 38.2161 24.3315 37.8162 23.9807 37.6163C23.6663 37.4572 23.3364 37.3308 22.9962 37.2391C22.7085 37.493 22.5024 37.8264 22.404 38.1972C22.1135 39.0233 21.8457 38.8687 22.0833 39.1855C23.1584 38.4311 22.9094 38.8574 23.694 37.869C23.9317 37.869 23.9619 37.903 24.1391 38.069C24.1391 38.582 24.0222 38.5141 23.5809 39.1704C22.7812 40.3662 23.3432 39.8834 22.321 39.7438C22.0566 39.6995 21.7893 39.6743 21.5213 39.6684C21.3477 39.3289 21.3666 39.608 21.6608 38.797L21.6646 38.8008ZM20.1331 44.8136C20.1972 44.5495 20.2651 44.4364 20.3255 44.1271C20.3858 43.8177 20.45 43.6782 20.5103 43.4405C20.6122 43.0633 20.5103 42.7464 20.7593 42.6106C21.0083 42.4748 21.0724 42.5767 21.31 42.407L20.7857 42.241C20.8223 41.8128 20.8967 41.3886 21.0083 40.9735C21.0623 40.5758 21.2211 40.1995 21.4685 39.8834C21.9149 39.8495 22.3639 39.8916 22.7963 40.0079C22.8163 40.134 22.8039 40.2632 22.7604 40.3833C22.7168 40.5033 22.6435 40.6104 22.5473 40.6944C22.4202 40.8856 22.3031 41.0833 22.1965 41.2866C21.6344 42.2259 21.9249 42.3428 21.3855 42.4447C21.5439 42.7351 20.846 43.8856 20.7178 44.4552C20.6461 44.7646 20.6273 44.6702 20.5443 44.8853C20.5443 44.9268 20.5179 45.4964 19.9785 45.519C20.0033 45.2779 20.0539 45.0401 20.1293 44.8098L20.1331 44.8136ZM20.6499 47.6427C20.6499 47.8351 20.2727 49.3289 20.118 48.5971C20.0803 48.4085 20.4047 47.5522 20.6009 47.5522C20.6537 47.5484 20.6537 47.5861 20.6537 47.6389L20.6499 47.6427ZM20.1407 47.2089C20.1671 47.0807 20.367 47.092 20.3745 47.2089C20.3896 47.4164 20.0388 47.6842 20.1369 47.2051L20.1407 47.2089ZM20.4915 46.6544H20.1482C20.0313 46.2772 20.1482 46.4281 20.2765 46.1074C20.4047 45.7868 20.2765 45.7302 20.6989 45.7302C20.7321 45.8898 20.7304 46.0547 20.6939 46.2135C20.6575 46.3724 20.5871 46.5215 20.4877 46.6506L20.4915 46.6544ZM20.6537 45.2663C20.7329 44.9984 20.8725 44.9796 21.0309 44.7608C21.1893 44.542 21.2384 44.3836 21.5213 44.3836C21.5364 44.7947 21.1063 45.8849 20.6537 45.2663ZM20.88 47.1976C20.6499 46.8807 20.8423 47.058 21.0384 46.3149C21.0988 46.0999 21.0988 46.0245 21.1441 45.8132C21.2044 45.519 21.2685 45.5228 21.5213 45.5454C21.857 46.0056 21.4685 46.3338 21.227 46.9034C21.0573 47.2391 21.1855 47.2202 20.8611 47.1901L20.88 47.1976ZM21.6344 47.9935C21.4232 48.167 21.2044 48.6801 21.1893 48.1935C21.1893 48.1595 21.3855 47.7936 21.4232 47.6767C21.4798 47.4881 21.9362 46.9901 22.0645 47.1108C22.2267 47.2806 21.8494 47.7898 21.6043 47.986L21.6344 47.9935ZM21.725 46.7638C21.6193 46.4432 21.9815 46.0094 22.1663 45.7453C22.453 45.3153 22.5435 45.089 23.1508 45.138C23.1886 45.6284 22.9585 45.8396 22.6416 46.1527C22.3247 46.4658 22.1022 46.8921 21.6948 46.7751L21.725 46.7638ZM23.2565 47.7106C22.9094 47.869 22.7585 48.3142 22.3323 48.1784C22.1097 47.5182 23.347 46.8581 23.894 46.8883C23.9053 47.4239 23.6714 47.5295 23.2263 47.7031L23.2565 47.7106ZM23.8977 45.8585C23.6789 46.0094 23.0829 46.6129 22.8755 46.6129C22.668 46.6129 22.6831 46.6657 22.6831 46.5714C22.9216 46.2346 23.1961 45.9247 23.5017 45.6472C23.7959 45.5152 24.0448 45.0852 24.3127 45.27C24.4975 45.3945 24.158 45.6095 24.1203 45.6812C24.0471 45.7527 23.9615 45.8103 23.8676 45.8509L23.8977 45.8585ZM25.6065 46.2357C25.2384 46.5696 24.7567 46.7504 24.2599 46.7412C24.0524 46.4771 24.0939 46.3941 24.324 46.0999L24.8257 46.1565C25.0822 45.8811 25.086 45.6171 25.4594 45.485C25.7831 45.3576 26.1194 45.2653 26.4628 45.2097C26.4326 45.8924 26.029 45.8245 25.5763 46.2131L25.6065 46.2357ZM25.3085 45.0852C25.3085 45.4209 25.1878 45.485 24.8596 45.4624C24.803 45.0625 24.9238 44.9343 25.2783 45.0626L25.3085 45.0852ZM26.3874 44.9984C26.058 44.9922 25.7293 44.967 25.4028 44.923C24.9917 44.8626 24.6786 44.9796 24.5767 44.6023C24.6484 44.4137 25.0067 44.2251 25.3311 43.9913L25.7084 44.2214C25.9611 44.1987 26.591 44.0969 26.6929 44.2968C26.7155 44.3836 26.5835 44.9117 26.3572 44.9758L26.3874 44.9984ZM27.6661 46.1603C27.3794 46.0471 26.493 45.783 26.7118 45.3191C27.138 45.1757 28.2847 45.8019 28.7148 46.0546C29.0128 46.2319 29.1561 46.2244 28.9788 46.579C28.4583 46.7185 28.0735 46.3074 27.6359 46.1376L27.6661 46.1603ZM29.9294 47.7521C29.688 47.605 28.8506 47.2429 29.0844 46.8732C29.3183 46.5035 31.0912 47.5861 31.0497 48.2953C30.6235 48.4047 30.2161 47.9407 29.8841 47.7295L29.9294 47.7521ZM32.4077 49.261C31.7551 49.261 32.2304 49.2195 31.4647 48.3179C31.3063 48.1369 31.2308 47.9407 31.0875 47.7634C30.9441 47.5861 30.7367 47.4277 30.8498 47.1561C31.3364 46.9977 31.9551 48.2878 32.1889 48.6159C32.4039 48.9781 32.4756 48.7555 32.3474 49.227L32.4077 49.261ZM33.2376 50.6303C32.7963 50.7811 32.6529 50.5133 32.7887 50.1135C33.0603 49.9777 33.2678 50.3624 33.1923 50.5963L33.2376 50.6303ZM33.6865 49.9362C33.4375 49.8683 33.3093 49.4684 33.0792 48.9931C32.8502 48.6566 32.7113 48.267 32.6755 47.8615C33.1735 47.8615 32.917 47.952 33.3545 48.8008C33.479 49.0384 33.7846 49.5967 33.6412 49.9022L33.6865 49.9362Z" fill="#B3B8BC"/>
<path d="M26.5751 34.2667L26.7864 34.5345C27.2692 34.3195 26.9712 34.6967 27.4993 34.6666C27.4993 34.3572 26.858 33.8518 26.5751 33.8706C26.3601 33.9271 26.157 34.0216 25.9754 34.1498C25.7189 34.3082 25.5001 34.312 25.5981 34.6326C26.0961 34.7986 26.0169 34.3271 26.5751 34.2667Z" fill="#B3B8BC"/>
<path d="M30.2611 39.1101C30.2487 38.8433 30.1696 38.5839 30.031 38.3557C29.9039 38.0853 29.8631 37.7824 29.914 37.4881C30.3516 37.3485 30.3591 37.9634 30.7326 38.0388C30.7209 37.8522 30.6498 37.6743 30.5296 37.5311C30.4095 37.3878 30.2466 37.2868 30.0649 37.2429C29.8629 37.2322 29.6637 37.2937 29.5029 37.4164C29.1521 37.6503 29.3105 37.556 28.8691 37.5899C28.9257 37.9219 29.8461 39.1365 30.2611 39.1101Z" fill="#B3B8BC"/>
<path d="M26.2852 34.9984C26.3606 35.2625 26.3116 35.2134 26.5002 35.2851C26.7755 35.1795 26.7869 34.9079 26.7529 34.6174L26.2852 34.9984Z" fill="#B3B8BC"/>
<path d="M23.2192 19.2007C23.1766 19.7629 23.1627 20.3269 23.1777 20.8906C23.9322 21.1358 23.8077 20.8378 23.8077 20.0607C23.8077 19.6382 23.9095 18.699 23.2192 19.2007Z" fill="#B3B8BC"/>
<path d="M23.1765 22.1732C23.3655 22.2412 23.5722 22.2412 23.7612 22.1732C23.9271 21.6753 23.6027 21.3697 23.2632 21.6074C23.1937 21.6821 23.1483 21.776 23.1328 21.8769C23.1174 21.9778 23.1326 22.0811 23.1765 22.1732Z" fill="#B3B8BC"/>
<path d="M25.1465 22.0864C25.3313 22.3278 25.965 22.7352 25.9009 21.6865H25.4181C25.1804 21.7205 25.1804 21.8374 25.1465 22.0864Z" fill="#B3B8BC"/>
<path d="M25.267 19.295C25.2443 19.3591 25.2443 20.966 25.267 21.0264C26.0516 21.2904 25.8969 20.6492 25.8932 20.1286C25.8932 19.4308 26.0855 19.0234 25.267 19.295Z" fill="#B3B8BC"/>
<path d="M26.3406 21.0265L26.8876 21.0717C27.0762 20.819 27.095 19.8835 27.0385 19.5214C26.997 19.2535 26.914 19.2837 26.7405 19.2875C26.2161 19.2875 26.2878 19.163 26.2953 19.8571C26.2551 20.247 26.2704 20.6408 26.3406 21.0265Z" fill="#B3B8BC"/>
<path d="M24.1543 21.6225V22.2034C24.4146 22.2939 24.3203 22.3014 24.6107 22.2675C25.12 21.7432 24.7314 21.5772 24.1543 21.6225Z" fill="#B3B8BC"/>
<path d="M24.6624 21.0528C25.0094 20.7095 24.9189 19.5779 24.8736 19.393C24.8095 19.1441 24.6737 19.2384 24.4361 19.2157C24.0362 19.1818 24.1456 19.2459 24.1418 20.1965C24.1418 20.7472 23.9796 21.1244 24.6624 21.0528Z" fill="#B3B8BC"/>
<path d="M26.6887 21.7054H26.3114C26.285 22.0411 26.2096 22.358 26.6358 22.3768C27.0621 22.3957 27.1111 22.0901 26.9942 21.7393C26.749 21.6375 26.8622 21.7016 26.6887 21.7054Z" fill="#B3B8BC"/>
</g>
<path d="M6.37779 76.7922C5.42809 77.4787 4.66148 77.8219 4.08937 77.8219C2.0298 77.8219 1 76.9257 1 75.1331C1.02572 74.2517 1.25481 73.3883 1.66937 72.6101C1.92491 72.0805 2.24797 71.5863 2.6305 71.1398C2.337 71.0419 2.0302 70.9898 1.72086 70.9853L2.37877 69.5837L2.72204 69.3891C2.94906 69.2725 3.19923 69.2081 3.45433 69.2004C3.75695 69.1947 4.05483 69.2761 4.31248 69.4349C4.46256 69.5261 4.58532 69.6561 4.66787 69.8111C4.75041 69.9661 4.7897 70.1405 4.78161 70.3159C4.79959 70.4903 4.76302 70.6659 4.67694 70.8186C4.59087 70.9713 4.45953 71.0935 4.30105 71.1684C4.47549 71.4022 4.70869 71.5857 4.97696 71.7002C5.24524 71.8148 5.53904 71.8563 5.82855 71.8206H6.34346V72.9133H5.89722C5.35767 72.94 4.82225 72.8066 4.35826 72.53C4.00987 72.2591 3.69661 71.9459 3.42573 71.5975C2.90401 71.9648 2.47504 72.4486 2.17282 73.0106C1.85628 73.5043 1.67478 74.0724 1.64648 74.6582C1.64648 76.058 2.59999 76.7597 4.507 76.7636C5.08933 76.7516 5.67029 76.7019 6.2462 76.6148C6.45215 76.5805 6.56085 76.6148 6.56085 76.6148C6.56085 76.6148 6.49793 76.7121 6.37779 76.7979" fill="#939699"/>
<path d="M9.86249 71.9407C9.88465 72.1062 9.85866 72.2747 9.78765 72.4258C9.71663 72.577 9.60358 72.7045 9.46201 72.7932C8.87932 72.963 8.27089 73.0269 7.66562 72.9819H7.09351C6.76742 72.9819 6.5214 72.9533 6.40698 72.9533H5.87493C5.65753 72.9533 5.54883 72.8504 5.54883 72.6444V71.8606H6.37266L6.88755 71.8892C7.12783 71.8892 7.34523 71.8892 7.5283 71.8892C7.97188 71.9053 8.41603 71.8823 8.85559 71.8206C8.90459 71.8135 8.94926 71.7886 8.98096 71.7506C9.01266 71.7125 9.02913 71.6641 9.02721 71.6146C8.85757 71.1793 8.61368 70.7766 8.30637 70.4246L8.87847 69.2518C9.17379 69.6051 9.40778 70.0054 9.57071 70.4361C9.77964 70.911 9.89427 71.422 9.90825 71.9407M9.77668 75.4649L9.27894 76.3287L8.05464 75.6537L7.68278 76.3059L6.34977 75.5736L6.85895 74.6811L8.07181 75.3733L8.45511 74.7097L9.77668 75.4649Z" fill="#939699"/>
<path d="M13.6822 72.9305H12.9384C12.7138 72.9554 12.4871 72.9078 12.2915 72.7945C12.0959 72.6813 11.9417 72.5084 11.8514 72.3012C11.6668 71.6189 11.5555 70.9189 11.5196 70.213L11.1191 65.8479L12.0116 64.7494C12.0688 64.6808 12.0974 64.6865 12.1032 64.7494L12.3549 70.2817C12.346 70.7031 12.4 71.1234 12.5151 71.5289C12.6123 71.7176 12.8355 71.8149 13.1959 71.8149H13.6822V72.9305Z" fill="#939699"/>
<path d="M17.2023 71.9408C17.226 72.1065 17.2006 72.2755 17.1295 72.4269C17.0583 72.5784 16.9445 72.7057 16.8019 72.7933C16.2192 72.9631 15.6107 73.0271 15.0055 72.9821H14.4334L13.7468 72.9535H13.2205C13.0031 72.9535 12.8887 72.8505 12.8887 72.6445V71.8608H13.6839L14.1988 71.8894C14.4391 71.8894 14.6565 71.8894 14.8453 71.8894C15.2889 71.9052 15.733 71.8822 16.1726 71.8207C16.2205 71.8124 16.2638 71.7869 16.2944 71.749C16.3249 71.7111 16.3406 71.6634 16.3385 71.6148C16.1695 71.1803 15.9277 70.7779 15.6233 70.4248L16.1954 69.252C16.4887 69.6067 16.7225 70.0066 16.8877 70.4362C17.0946 70.9116 17.2073 71.4226 17.2195 71.9408M16.1096 66.9693L15.6119 67.8331L14.256 67.1009L14.7652 66.2084L16.1096 66.9693Z" fill="#939699"/>
<path d="M28.9201 71.0196C29.0001 71.4373 29.0001 71.8663 28.9201 72.284C28.9046 72.431 28.8328 72.5663 28.7198 72.6616C28.3996 72.8304 28.0403 72.9113 27.6786 72.8961C26.9654 72.9304 25.6705 72.9476 23.794 72.9476C22.3123 72.9476 21.1967 72.9133 20.43 72.8332C20.166 72.8078 19.9134 72.7131 19.6978 72.5586C19.2197 72.8252 18.677 72.9539 18.1302 72.9304H16.7571C16.7128 72.9372 16.6674 72.9335 16.6247 72.9195C16.5821 72.9055 16.5433 72.8817 16.5115 72.85C16.4798 72.8182 16.4559 72.7794 16.442 72.7368C16.428 72.6941 16.4242 72.6487 16.431 72.6043V71.8263H18.2274C18.6507 71.8427 19.0724 71.7665 19.4632 71.6032C19.4932 71.3469 19.4777 71.0874 19.4174 70.8365L20.144 70.0757C20.2527 69.9612 20.3156 69.9784 20.3328 70.1329C20.3431 70.3234 20.3431 70.5144 20.3328 70.705C20.3119 71.0314 20.2445 71.3531 20.1325 71.6604C20.6667 71.7855 21.2147 71.8413 21.763 71.8263C22.112 71.8263 22.8443 71.4144 23.9542 70.5963C25.0641 69.7782 25.7907 69.3777 26.1282 69.3777C26.6873 69.4472 27.2233 69.6428 27.6958 69.9498C28.4395 70.356 28.84 70.7164 28.9086 71.0311M28.2221 71.5517C28.2221 71.4601 27.8846 71.2599 27.2038 70.9395C26.7866 70.7088 26.3343 70.5484 25.865 70.4647C25.4933 70.5307 25.1424 70.6836 24.841 70.9109L23.3649 71.832C24.2975 71.8721 25.0526 71.8892 25.6534 71.8892C26.2133 71.8917 26.7729 71.8631 27.3296 71.8034C27.936 71.7405 28.245 71.6604 28.245 71.5517" fill="#939699"/>
<path d="M38.5588 72.101C38.5569 73.085 38.2085 74.037 37.5748 74.7899C37.3249 75.1475 36.9965 75.4432 36.6147 75.6545C36.2329 75.8657 35.8079 75.9867 35.3722 76.0084C34.8895 75.9844 34.4269 75.8081 34.0506 75.505C33.5554 75.1579 33.1607 74.6863 32.9064 74.1377C32.866 74.0653 32.8407 73.9855 32.832 73.9031C32.832 73.8745 32.832 73.8573 32.8606 73.8573C32.8892 73.8573 32.9751 73.9088 33.078 74.0118C33.5782 74.5814 34.284 74.9291 35.0403 74.9787C35.7388 74.9686 36.4106 74.7088 36.934 74.2464C37.345 73.9367 37.6586 73.5158 37.8379 73.0335C37.3456 73.0365 36.8609 72.9123 36.4306 72.6731C36.2808 72.5386 36.1653 72.3704 36.0937 72.1823C36.022 71.9943 35.9963 71.7918 36.0187 71.5918C36.0372 71.1398 36.1627 70.6987 36.3848 70.3046C36.6594 69.7897 36.9569 69.5322 37.2429 69.5322C37.529 69.5322 37.8437 69.8011 38.124 70.3446C38.4034 70.8876 38.5467 71.4903 38.5416 72.101M37.9695 71.998C37.9207 71.7471 37.8318 71.5056 37.7063 71.2829C37.5385 71.0083 37.3612 70.8709 37.1743 70.8709C37.1019 70.8734 37.031 70.8927 36.9674 70.9275C36.9038 70.9623 36.8493 71.0115 36.8082 71.0712C36.72 71.171 36.6694 71.2985 36.6651 71.4316C36.6651 71.7558 37.0999 71.9465 37.9695 72.0037" fill="#939699"/>
<path d="M50.0756 72.9306H49.7266C49.2982 72.924 48.8709 72.976 48.4565 73.085C48.2221 73.1231 48.0068 73.2378 47.8444 73.4111C48.2165 73.5993 48.6132 73.7341 49.0229 73.8116C49.5378 73.9375 49.7895 74.0462 49.7895 74.1377C49.7855 74.3893 49.749 74.6393 49.6808 74.8814C49.6412 75.0848 49.5636 75.2789 49.452 75.4535C48.9898 75.957 48.3949 76.3199 47.7357 76.5005C47.0428 76.7457 46.3138 76.8734 45.5789 76.8781C45.2195 76.9046 44.8586 76.8574 44.5182 76.7393C44.1778 76.6213 43.8651 76.4349 43.5994 76.1916C43.4066 75.9894 43.2565 75.7505 43.1582 75.489C43.0599 75.2275 43.0154 74.9489 43.0273 74.6698C43.0358 74.2237 43.1209 73.7825 43.279 73.3654C43.4544 72.8694 43.7223 72.4113 44.0685 72.0152C44.2058 71.8607 44.2745 71.8379 44.2745 71.9523C44.2685 72.0024 44.253 72.051 44.2287 72.0953C43.8619 72.7265 43.6428 73.4326 43.5879 74.1606C43.578 74.4152 43.6426 74.6671 43.7736 74.8856C43.9047 75.104 44.0967 75.2795 44.3259 75.3906C44.7793 75.6129 45.2801 75.721 45.7848 75.7053C46.2761 75.6947 46.765 75.6333 47.2437 75.5222C47.745 75.4424 48.2243 75.2593 48.651 74.9844L47.6327 74.6469C47.2036 74.481 46.9862 74.2807 46.9862 74.0404C46.9694 73.6791 47.0543 73.3202 47.2313 73.0047C47.4083 72.6891 47.6703 72.4296 47.9874 72.2555C48.5127 71.9669 49.1045 71.821 49.7037 71.8321H50.0584L50.0756 72.9306Z" fill="#939699"/>
<path d="M53.6224 71.9408C53.646 72.1065 53.6207 72.2755 53.5496 72.4269C53.4784 72.5784 53.3645 72.7057 53.2219 72.7933C52.6392 72.9631 52.0308 73.0271 51.4255 72.9821H50.8534L50.1669 72.9535H49.6406C49.4232 72.9535 49.3145 72.8505 49.3145 72.6445V71.8608H50.1383L50.6474 71.8894C50.8935 71.8894 51.1051 71.8894 51.2939 71.8894C51.7375 71.9052 52.1816 71.8822 52.6212 71.8207C52.6702 71.8137 52.7149 71.7887 52.7466 71.7507C52.7783 71.7127 52.7948 71.6642 52.7928 71.6148C52.6232 71.1794 52.3793 70.7768 52.072 70.4248L52.6441 69.252C52.9394 69.6053 53.1734 70.0056 53.3363 70.4362C53.5433 70.9116 53.656 71.4226 53.6682 71.9408M52.5583 66.9693L52.0605 67.8331L50.7275 67.1009L51.2367 66.2084L52.5583 66.9693Z" fill="#939699"/>
<path d="M57.1626 72.9305H56.4246C56.1993 72.9549 55.9721 72.9071 55.7757 72.794C55.5793 72.6809 55.4239 72.5083 55.3319 72.3012C55.1473 71.6191 55.0379 70.9189 55.0058 70.213L54.5996 65.8479L55.4921 64.7494C55.5493 64.6808 55.5836 64.6865 55.5894 64.7494L55.8354 70.2817C55.8295 70.7029 55.8835 71.1228 55.9955 71.5289C56.0928 71.7176 56.3216 71.8149 56.6763 71.8149H57.1626V72.9305Z" fill="#939699"/>
<path d="M62.5013 71.7749C62.4957 71.968 62.4689 72.1598 62.4212 72.347C62.404 72.471 62.3653 72.591 62.3068 72.7017C62.1008 72.8962 61.1626 72.9877 59.5492 72.9877C59.143 72.9877 58.714 72.9877 58.2563 72.9591C57.7986 72.9305 57.4611 72.9305 57.2437 72.9305H56.7288C56.6842 72.9371 56.6387 72.9332 56.5958 72.9192C56.553 72.9053 56.5139 72.8816 56.4818 72.85C56.4496 72.8184 56.4252 72.7798 56.4105 72.7372C56.3958 72.6946 56.3912 72.6491 56.3969 72.6044V71.8378H57.5869C58.8861 71.9223 60.1895 71.9223 61.4887 71.8378C61.2026 71.5518 60.6648 71.0426 59.8868 70.3046C59.555 69.9956 59.0801 69.5952 58.4622 69.1032L58.1876 69.4293C57.4439 68.7656 57.0777 68.3594 57.0777 68.2164C57.0822 67.9364 57.1486 67.6609 57.2723 67.4097C57.3963 67.1009 57.6338 66.8512 57.9359 66.7118L62.4384 64.841L62.0722 66.1511C61.2999 66.3971 59.9497 66.9063 58.0046 67.6672C58.508 68.0676 59.3147 68.7389 60.4246 69.681C61.809 70.9282 62.5013 71.6261 62.5013 71.7863M61.9635 64L61.8434 64.6007L58.0789 66.1053L58.1933 65.5332L61.9635 64Z" fill="#939699"/>
<path d="M68.5664 72.1982C68.5629 73.0496 68.2356 73.8677 67.651 74.4866C67.3714 74.8505 67.0155 75.1487 66.6083 75.3602C66.2011 75.5717 65.7524 75.6914 65.294 75.7109C64.9054 75.6817 64.5288 75.5633 64.1934 75.3648C63.858 75.1664 63.5729 74.8933 63.3602 74.5667C63.2602 74.4698 63.1889 74.347 63.1543 74.212C63.1543 74.1777 63.1543 74.1605 63.2115 74.1605L63.8523 74.4065C64.2323 74.5614 64.6377 74.6448 65.048 74.6525C65.8171 74.6185 66.544 74.2909 67.0789 73.7372C67.651 73.207 67.9371 72.7722 67.9371 72.4328C67.9371 72.1353 67.548 71.6204 66.7929 70.8767L67.2048 69.9785C67.2563 69.8698 67.3249 69.8526 67.4165 69.9384C67.6975 70.1919 67.9403 70.4849 68.1373 70.808C68.4112 71.219 68.5638 71.6988 68.5778 72.1925" fill="#939699"/>
<path d="M74.6347 72.1983C74.6312 73.0496 74.304 73.8678 73.7194 74.4867C73.4384 74.8504 73.0813 75.1484 72.6732 75.3599C72.2651 75.5713 71.8158 75.6912 71.3566 75.711C70.9681 75.6813 70.5917 75.5627 70.2563 75.3643C69.921 75.1659 69.6359 74.893 69.4229 74.5668C69.3237 74.4701 69.2542 74.347 69.2227 74.2121C69.2227 74.1777 69.2226 74.1606 69.2799 74.1606C69.3371 74.1606 69.503 74.2407 69.9149 74.4066C70.2951 74.561 70.7003 74.6443 71.1106 74.6526C71.88 74.6197 72.6073 74.2919 73.1416 73.7372C73.7137 73.2071 73.9997 72.7723 73.9997 72.4328C73.9997 72.1411 73.6164 71.6204 72.8555 70.8767L73.2674 69.9785C73.3132 69.8698 73.3876 69.8526 73.4734 69.9385C73.756 70.1905 73.999 70.4836 74.1942 70.8081C74.4695 71.2187 74.6241 71.6984 74.6405 72.1925M72.9241 67.1237L72.4264 67.9876L71.0934 67.2553L71.6026 66.3685L72.9241 67.1237Z" fill="#939699"/>
<path d="M78.3892 72.9305H77.6512C77.4259 72.9549 77.1986 72.9071 77.0023 72.794C76.8059 72.6809 76.6505 72.5083 76.5585 72.3012C76.3738 71.6191 76.2645 70.9189 76.2324 70.213L75.8262 65.8479L76.7244 64.7494C76.7759 64.6808 76.8102 64.6865 76.8102 64.7494L77.0619 70.2817C77.0561 70.7029 77.11 71.1228 77.2221 71.5289C77.3194 71.7176 77.5482 71.8149 77.9029 71.8149H78.3892V72.9305Z" fill="#939699"/>
<path d="M81.9349 71.9407C81.9583 72.1057 81.9335 72.274 81.8635 72.4253C81.7935 72.5765 81.6811 72.7043 81.5401 72.7932C80.9554 72.9628 80.3452 73.0268 79.738 72.9819H79.1659L78.4794 72.9533H77.9531C77.7357 72.9533 77.627 72.8504 77.627 72.6444V71.8606H78.4508L78.9599 71.8892C79.2059 71.8892 79.4176 71.8892 79.6064 71.8892C80.05 71.9051 80.4941 71.8821 80.9337 71.8206C80.9827 71.8135 81.0274 71.7886 81.0591 71.7506C81.0908 71.7125 81.1072 71.6641 81.1053 71.6146C80.9357 71.1793 80.6918 70.7766 80.3845 70.4246L80.9566 69.2518C81.2519 69.6051 81.4859 70.0054 81.6488 70.4361C81.8558 70.9114 81.9685 71.4224 81.9807 71.9407M80.968 75.4363L80.4703 76.3001L79.1373 75.5679L79.6465 74.6754L80.968 75.4363Z" fill="#939699"/>
<path d="M93.0865 73.7544C92.8345 74.5137 92.2998 75.1467 91.5934 75.5222C90.7868 76.0544 89.8421 76.3388 88.8759 76.3403C88.5266 76.3604 88.1775 76.3003 87.8552 76.1644C87.5328 76.0285 87.2459 75.8206 87.0165 75.5565C86.617 75.0499 86.4138 74.416 86.4444 73.7716C86.4397 73.1397 86.5807 72.5152 86.8564 71.9465C86.8953 71.8313 86.9644 71.7285 87.0566 71.6491C87.1138 71.6109 87.1424 71.6395 87.1424 71.7349C87.1367 71.8301 87.1194 71.9242 87.0909 72.0152C86.9599 72.4458 86.8887 72.8924 86.8792 73.3425C86.8792 74.5935 87.5543 75.2209 88.9045 75.2247C89.5736 75.2355 90.2376 75.1068 90.8542 74.8468C91.4709 74.5867 92.0265 74.2011 92.4858 73.7143C92.4895 73.6725 92.4895 73.6304 92.4858 73.5885C92.4762 73.3739 92.4436 73.1611 92.3886 72.9535C92.0911 72.9821 91.8622 72.9992 91.7078 72.9992C91.2993 73.0117 90.8978 72.8912 90.5636 72.656C90.4146 72.5472 90.2942 72.404 90.2125 72.2387C90.1308 72.0733 90.0903 71.8907 90.0944 71.7063C90.1308 71.2412 90.2695 70.7899 90.5006 70.3847C90.8096 69.7783 91.1185 69.4751 91.4332 69.4751C91.8623 69.4751 92.2456 69.7897 92.5774 70.4248C92.8288 70.8689 92.9956 71.3558 93.0694 71.8607C93.1889 72.4854 93.2005 73.1258 93.1037 73.7544M92.6117 67.4613L92.114 68.3194L90.8897 67.65L90.5178 68.2965L89.1848 67.5642L89.694 66.6718L90.9068 67.3697L91.2902 66.7004L92.6117 67.4613ZM92.2627 71.8493C91.9767 71.0655 91.6048 70.6765 91.1185 70.6765C91.0606 70.6806 91.0043 70.6976 90.9538 70.7264C90.9033 70.7551 90.8599 70.7947 90.8268 70.8424C90.7398 70.9407 90.6893 71.066 90.6837 71.1971C90.6837 71.6491 91.0842 71.8722 91.8909 71.8722C92.007 71.8805 92.1237 71.8805 92.2398 71.8722" fill="#939699"/>
<path d="M96.8853 72.9305H96.1473C95.9218 72.9558 95.6942 72.9084 95.4977 72.7952C95.3011 72.6819 95.1458 72.5089 95.0545 72.3012C94.8699 71.6191 94.7605 70.9189 94.7284 70.213L94.3223 65.8479L95.2147 64.7494C95.272 64.6808 95.3005 64.6865 95.3063 64.7494L95.558 70.2817C95.5522 70.7029 95.6061 71.1228 95.7182 71.5289C95.8155 71.7176 96.0443 71.8149 96.399 71.8149H96.8853V72.9305Z" fill="#939699"/>
<path d="M100.431 71.9407C100.454 72.1064 100.429 72.2753 100.358 72.4268C100.287 72.5783 100.173 72.7056 100.03 72.7932C99.4477 72.963 98.8392 73.027 98.2339 72.982H97.6618C97.3415 72.982 97.0898 72.9534 96.9753 72.9534H96.449C96.2316 72.9534 96.1172 72.8504 96.1172 72.6444V71.8606H96.9467L97.4559 71.8892C97.6962 71.8892 97.9136 71.8892 98.1024 71.8892C98.546 71.9051 98.9901 71.8821 99.4297 71.8206C99.4776 71.8123 99.5209 71.7868 99.5514 71.7489C99.582 71.711 99.5977 71.6633 99.5956 71.6146C99.4266 71.1802 99.1848 70.7777 98.8804 70.4247L99.4525 69.2519C99.7446 69.6053 99.9783 70.0032 100.145 70.4304C100.352 70.9078 100.464 71.4206 100.477 71.9407M100.345 66.9978L99.8473 67.8616L98.6287 67.1923L98.2568 67.8388L96.9181 67.1065L97.433 66.214L98.6401 66.912L99.0234 66.2426L100.345 66.9978Z" fill="#939699"/>
<path d="M103.001 71.895C102.809 72.3523 102.536 72.771 102.194 73.1307C102.194 71.9293 102.165 70.9968 102.114 70.3331C102.034 69.2862 101.885 67.8102 101.656 65.9108C101.945 65.4957 102.257 65.0966 102.589 64.7151C102.827 66.5174 102.959 68.3322 102.984 70.1501C102.984 70.9911 103.018 71.5746 102.984 71.895" fill="#939699"/>
<path d="M29.3961 89.4358C29.4308 90.0784 29.2925 90.7184 28.9957 91.2894C28.7059 91.6887 28.3093 91.998 27.8514 92.1819C27.1143 92.5352 26.3061 92.7152 25.4887 92.7082C23.8296 92.7082 23 92.0217 23 90.6486C23.0168 89.8052 23.3309 88.9948 23.8868 88.3602C24.0527 88.1543 24.1671 88.057 24.2357 88.057C24.3044 88.057 24.2643 88.057 24.2643 88.1085C24.2401 88.2528 24.1876 88.3908 24.1099 88.5147C23.8058 89.0252 23.6328 89.6031 23.6064 90.1967C23.6064 91.1349 24.2644 91.6098 25.5859 91.6098C26.3746 91.6184 27.1557 91.4544 27.8743 91.1292C28.4464 90.866 28.7497 90.6486 28.7497 90.4827C28.7031 89.6501 28.4236 88.8472 27.943 88.1657L28.5151 87.319C28.5609 87.2446 28.5952 87.2046 28.6181 87.2046C28.6409 87.2046 28.6753 87.2332 28.721 87.2961C29.1941 87.9122 29.4442 88.6706 29.4305 89.4472M26.9532 84.8303L26.4555 85.6885L25.1225 84.9562L25.6317 84.0695L26.9532 84.8303Z" fill="#939699"/>
<path d="M33.149 89.6647H32.4109C32.1862 89.6904 31.959 89.6438 31.7625 89.5317C31.5661 89.4195 31.4104 89.2477 31.3182 89.0411C31.1332 88.3572 31.0239 87.655 30.9921 86.9472L30.5859 82.5878L31.4784 81.4893C31.5356 81.4207 31.57 81.4264 31.57 81.4893L31.8217 87.0216C31.8153 87.4428 31.8693 87.8628 31.9819 88.2687C32.0791 88.4633 32.308 88.5548 32.6627 88.5548H33.149V89.6647Z" fill="#939699"/>
<path d="M38.5054 88.5661C38.5267 88.7121 38.5136 88.861 38.467 89.0009C38.4204 89.1408 38.3416 89.2679 38.237 89.3719C38.1325 89.4759 38.005 89.554 37.8648 89.5998C37.7246 89.6457 37.5757 89.6581 37.4298 89.636C36.6858 89.6566 35.9577 89.4179 35.3703 88.9609C35.2538 89.1771 35.0801 89.3571 34.8682 89.4812C34.6563 89.6053 34.4144 89.6687 34.1689 89.6646H32.6985C32.6542 89.6714 32.6088 89.6676 32.5661 89.6536C32.5234 89.6397 32.4847 89.6158 32.4529 89.5841C32.4212 89.5523 32.3973 89.5135 32.3834 89.4709C32.3694 89.4282 32.3656 89.3828 32.3724 89.3384V88.5776H34.3576C34.8954 88.5776 35.2101 88.4517 35.3131 88.1942C35.8203 86.9165 36.3295 86.2777 36.8406 86.2777C37.1667 86.2777 37.5157 86.518 37.899 86.9928C38.2772 87.4312 38.4915 87.9873 38.5054 88.5661ZM37.7445 88.3544C37.6922 88.0473 37.5532 87.7615 37.344 87.5306C37.1571 87.3132 36.997 87.2045 36.8635 87.2045C36.5831 87.2045 36.2456 87.4791 35.8508 88.0398C36.2994 88.388 36.8453 88.588 37.4127 88.6119C37.5614 88.6119 37.6587 88.6119 37.7045 88.5661C37.7304 88.5325 37.7477 88.4929 37.7547 88.451C37.7617 88.4091 37.7582 88.3661 37.7445 88.3258" fill="#939699"/>
<path d="M41.4444 89.4072C41.4444 89.5216 41.33 89.6017 41.084 89.636C40.7158 89.6806 40.3449 89.6997 39.9741 89.6932H38.7097H38.2463C38.2017 89.6998 38.1562 89.6959 38.1134 89.6819C38.0706 89.668 38.0315 89.6442 37.9994 89.6127C37.9672 89.5811 37.9428 89.5425 37.9281 89.4999C37.9134 89.4573 37.9087 89.4118 37.9145 89.3671V88.6062H38.6525C39.0759 88.6329 39.4192 88.6444 39.6823 88.6405C39.9283 88.6405 40.2544 88.6406 40.6835 88.5776V87.7881C40.6835 87.3362 40.4661 85.5912 40.0313 82.5648L40.8265 81.6323C40.9352 81.5121 41.0096 81.4492 41.0497 81.4492C41.0897 81.4492 41.124 81.5293 41.1297 81.6895L41.4444 89.4072Z" fill="#939699"/>
<path d="M46.0499 79.8473C45.8554 80.4194 45.5693 80.7455 45.1975 80.7455C44.8125 80.7287 44.4297 80.6789 44.0533 80.5968C43.5498 80.4995 43.2581 80.448 43.178 80.448C42.9406 80.4773 42.7225 80.5934 42.5658 80.7741C42.5143 80.8199 42.48 80.8313 42.4457 80.8142C42.4113 80.797 42.4113 80.7455 42.4457 80.6711C42.4869 80.4778 42.5776 80.2984 42.7088 80.1505C42.7967 80.034 42.911 79.9401 43.0423 79.8765C43.1736 79.8128 43.3181 79.7812 43.464 79.7844C43.7069 79.806 43.9467 79.854 44.1791 79.9274C44.484 80.0179 44.7995 80.0678 45.1174 80.0761C45.2757 80.0878 45.4347 80.0635 45.5823 80.0051C45.7299 79.9466 45.8624 79.8555 45.9698 79.7386C45.9802 79.7231 45.9937 79.7101 46.0094 79.7002C46.0252 79.6903 46.0429 79.6839 46.0613 79.6814C46.0957 79.6814 46.1128 79.71 46.1128 79.7558C46.1188 79.786 46.1188 79.8171 46.1128 79.8473M45.0831 88.6291C44.8912 89.0865 44.6179 89.5052 44.2764 89.8648C44.2764 88.6634 44.2764 87.7309 44.1963 87.0673C44.1162 86.0146 43.9674 84.5386 43.7386 82.6392C43.956 82.3245 44.2649 81.9241 44.6711 81.4435C44.9096 83.2477 45.0414 85.0644 45.0659 86.8842C45.0659 87.7252 45.1002 88.303 45.0659 88.6291" fill="#939699"/>
<path d="M55.4392 88.8351C55.4373 89.8192 55.089 90.7711 54.4552 91.524C54.2042 91.8849 53.8733 92.1831 53.4884 92.3955C53.1034 92.6078 52.6747 92.7285 52.2355 92.7483C51.7533 92.7219 51.2914 92.5459 50.9139 92.2448C50.4216 91.8947 50.0276 91.4238 49.7697 90.8775C49.73 90.8049 49.7047 90.7252 49.6953 90.6429C49.6953 90.6086 49.6953 90.5972 49.7239 90.5972C49.7525 90.5972 49.8383 90.643 49.9413 90.7459C50.4415 91.3155 51.1473 91.6632 51.9036 91.7128C52.6021 91.7028 53.2738 91.443 53.7973 90.9805C54.2078 90.6728 54.5215 90.2539 54.7012 89.7734C54.2089 89.7763 53.7241 89.6522 53.2938 89.4129C53.144 89.2773 53.0285 89.1081 52.9569 88.9191C52.8853 88.7301 52.8596 88.5268 52.8819 88.3259C52.9005 87.8739 53.026 87.4328 53.2481 87.0387C53.5227 86.5238 53.8202 86.2664 54.1062 86.2664C54.3923 86.2664 54.7069 86.541 54.9873 87.0788C55.266 87.622 55.4093 88.2245 55.4049 88.8351M54.8328 88.7321C54.7784 88.4819 54.6879 88.241 54.5639 88.017C54.3961 87.7424 54.2188 87.6051 54.0319 87.6051C53.9588 87.6077 53.8875 87.6277 53.8238 87.6636C53.7601 87.6994 53.7059 87.75 53.6657 87.811C53.5775 87.9109 53.527 88.0383 53.5227 88.1715C53.5227 88.4976 53.9575 88.6864 54.8328 88.7436" fill="#939699"/>
<path d="M66.3141 89.4357C66.3516 90.0785 66.2131 90.7194 65.9136 91.2894C65.6238 91.6886 65.2272 91.998 64.7694 92.1818C64.0325 92.5359 63.2241 92.716 62.4066 92.7082C60.7475 92.7082 59.918 92.0216 59.918 90.6486C59.9348 89.8052 60.2489 88.9947 60.8047 88.3602C60.9706 88.1542 61.0851 88.057 61.1537 88.057C61.2224 88.057 61.188 88.057 61.188 88.1085C61.1612 88.2529 61.1068 88.3908 61.0279 88.5146C60.7237 89.0251 60.5508 89.603 60.5244 90.1966C60.5244 91.1349 61.188 91.6097 62.5039 91.6097C63.2926 91.6184 64.0737 91.4544 64.7923 91.1292C65.3644 90.866 65.6676 90.6486 65.6676 90.4827C65.6211 89.65 65.3416 88.8472 64.861 88.1657L65.4331 87.319C65.4788 87.2446 65.5131 87.2045 65.536 87.2045C65.5589 87.2045 65.5932 87.2331 65.639 87.2961C66.112 87.9122 66.3622 88.6705 66.3484 89.4472M63.8712 84.8303L63.3735 85.6885L62.0405 84.9562L62.5325 84.0522L63.8712 84.8303Z" fill="#939699"/>
<path d="M68.8249 88.6291C68.6332 89.0879 68.3577 89.5069 68.0125 89.8648C68.0125 88.6634 68.0125 87.7309 67.9382 87.0673C67.8581 86.0146 67.7055 84.5386 67.4805 82.6392C67.6979 82.3245 68.0068 81.924 68.413 81.4435C68.6583 83.2568 68.7959 85.0831 68.8249 86.9128C68.8535 87.7538 68.8592 88.3316 68.8249 88.6577" fill="#939699"/>
<path d="M74.9062 88.9323C74.9032 89.7826 74.5781 90.6003 73.9966 91.2207C73.7164 91.5853 73.3595 91.8839 72.9513 92.0954C72.543 92.307 72.0932 92.4263 71.6338 92.445C71.2449 92.4171 70.8678 92.2992 70.5322 92.1006C70.1966 91.902 69.9118 91.6282 69.7001 91.3008C69.6005 91.2058 69.5292 91.0849 69.4941 90.9518C69.4941 90.9117 69.4941 90.8946 69.5571 90.8946L70.1921 91.1406C70.5713 91.2982 70.9772 91.3817 71.3878 91.3866C72.1575 91.3548 72.8852 91.0269 73.4188 90.4712C73.9909 89.9392 74.2769 89.5044 74.2769 89.1726C74.2769 88.8407 73.8936 88.3545 73.1327 87.6164L73.5446 86.7125C73.5904 86.6038 73.659 86.5924 73.7506 86.6725C74.0332 86.9245 74.2762 87.2176 74.4714 87.5421C74.7444 87.9535 74.897 88.433 74.912 88.9265" fill="#939699"/>
<path d="M78.6595 88.6805C78.6825 88.8447 78.6575 89.012 78.5874 89.1623C78.5174 89.3126 78.4053 89.4393 78.2647 89.5272C77.6811 89.7025 77.0702 89.7684 76.4626 89.7217L75.8905 89.6931L75.204 89.6645H74.6777C74.4603 89.6645 74.3516 89.5615 74.3516 89.3613V88.5775H75.1754C75.2727 88.5775 75.4443 88.5775 75.6846 88.5775C75.9248 88.5775 76.1422 88.6061 76.331 88.6061C76.7748 88.6243 77.2193 88.5994 77.6583 88.5318C77.7068 88.526 77.7515 88.5023 77.7833 88.4652C77.8151 88.4281 77.8317 88.3804 77.8299 88.3315C77.6617 87.8955 77.4177 87.4926 77.1091 87.1415L77.6812 85.963C77.9741 86.318 78.2078 86.7179 78.3734 87.1473C78.5811 87.6244 78.6938 88.1374 78.7053 88.6576M78.5794 92.1818L78.0817 93.0457L76.8345 92.3934L76.4626 93.0399L75.1182 92.3076L75.6274 91.4209L76.8345 92.1131L77.2235 91.4438L78.5794 92.1818Z" fill="#939699"/>
<path d="M81.233 88.6291C81.0385 89.0864 80.7633 89.505 80.4206 89.8648C80.4206 88.6634 80.4206 87.7309 80.3405 87.0673C80.2604 86.0146 80.1117 84.5386 79.8828 82.6392C80.1002 82.3245 80.4149 81.924 80.8211 81.4435C81.0596 83.2476 81.1895 85.0645 81.2101 86.8842C81.2444 87.7252 81.2501 88.303 81.2101 88.6291" fill="#939699"/>
<defs>
<clipPath id="clip0_3522_195372">
<rect width="101.848" height="47.5292" fill="white" transform="translate(1 11)"/>
</clipPath>
</defs>
</svg>
