<svg width="104" height="104" viewBox="0 0 104 104" fill="none" xmlns="http://www.w3.org/2000/svg">
<path fill-rule="evenodd" clip-rule="evenodd" d="M35.1933 31.6349C35.9566 30.5673 39.9928 26.1353 44.1627 21.7864C48.3326 17.4376 51.902 13.9339 52.0953 14.0009C52.2882 14.0676 55.8986 17.7184 60.1177 22.1139C66.8748 29.1522 70.3254 33.3238 70.3254 34.4542C70.3254 34.6466 69.4929 34.7959 68.4749 34.7859C66.6466 34.7681 66.5386 34.6762 59.5108 27.1663C55.5986 22.9856 52.2386 19.565 52.0448 19.565C51.8507 19.565 48.7035 22.6507 45.0509 26.4227C39.4268 32.2301 38.1698 33.7806 36.8426 36.5458C35.3805 39.5919 35.2756 40.0892 35.2795 43.9478C35.2834 47.5534 35.4398 48.4194 36.4982 50.6965C37.1657 52.1334 38.3082 54.0544 39.0371 54.9657L40.362 56.6224L39.1246 57.6866C38.4445 58.2717 37.7896 58.7433 37.6699 58.7341C37.1775 58.6967 34.4753 54.6095 33.5301 52.4726C30.5589 45.7534 31.2451 37.1554 35.1933 31.6349ZM18.7781 56.086C18.6518 55.277 18.425 50.6317 18.2743 45.763L18 36.9107L23.6633 37.0548C26.7787 37.1341 29.4346 37.3074 29.5666 37.4397C29.6981 37.5717 29.688 38.4046 29.5444 39.2902L29.2831 40.8999H25.5761H21.869L22.1747 48.3079C22.3427 52.382 22.6976 56.3499 22.9636 57.1249C24.6317 61.9858 28.9496 65.3967 34.2263 66.0215L36.4421 66.2841L44.3534 58.3815L52.2647 50.4784L60.0977 58.3506L67.9306 66.2227L70.1569 66.008C73.0245 65.7316 76.2121 64.1014 78.5054 61.7389C81.3015 58.8582 81.753 57.1175 81.9764 48.3536L82.1697 40.7863L74.8323 41.0118C66.7115 41.2613 64.6525 41.7389 61.8929 44.0135C60.9937 44.7546 59.654 46.4317 58.9156 47.7397L57.5728 50.1188L56.2718 48.8173C54.639 47.185 54.8323 46.1596 57.3002 43.3556C61.6878 38.3715 64.1909 37.5751 76.7476 37.1693L86 36.8702L85.9843 43.1305C85.9517 56.2859 85.087 60.1897 81.2484 64.5046C78.4692 67.6291 74.5723 69.3781 69.9522 69.5749L66.2926 69.7308L59.1907 62.6384L52.0888 55.5461L45.0035 62.6315L37.9185 69.7164L34.2019 69.5544C31.1793 69.4225 30.0172 69.1578 27.9752 68.1346C23.5427 65.9131 19.4821 60.5933 18.7781 56.086ZM37.9124 40.9691C37.9895 40.572 38.1658 39.7099 38.3039 39.0538L38.5551 37.8612L40.7491 38.6946C43.5235 39.7491 46.3323 42.0389 48.0722 44.6657C48.8167 45.79 49.4259 46.8332 49.4259 46.9847C49.4259 47.1362 48.7645 47.9012 47.9559 48.685L46.486 50.1096L46.0223 48.779C45.3196 46.7631 41.7706 43.2184 39.6401 42.4047C38.333 41.9057 37.8145 41.4746 37.9124 40.9691ZM68.5837 45.5553C68.5837 44.5116 68.7144 43.5267 68.8742 43.3674C69.4062 42.8349 72.0896 43.0643 72.3187 43.6621C73.1277 45.7699 70.4037 53.6129 67.6585 57.0787L66.2918 58.8042L65.0565 57.6208L63.8208 56.4374L65.3609 54.3396C67.2344 51.7868 68.5837 48.1098 68.5837 45.5553ZM18.0766 88.876V82.5221V76.1678H22.2348C26.9184 76.1678 28.3222 76.6589 29.8766 78.8421C31.1985 80.6982 31.2681 83.9098 30.0233 85.5783C28.1215 88.1276 27.0617 88.5651 22.4002 88.7267L18.0766 88.876ZM30.824 87.7932C31.185 87.2424 32.6889 84.3809 34.1658 81.4341L36.8513 76.0768L38.4854 79.2788C39.3841 81.04 40.8418 83.9015 41.7244 85.6379L43.3298 88.7946H42.1132C41.0134 88.7946 40.7117 88.4167 38.9661 84.8555C37.9031 82.6867 37.3849 81.5516 36.8524 81.5448C36.2741 81.5375 35.679 82.8614 34.3508 85.6379C32.961 88.5429 32.7341 88.7946 31.5041 88.7946C30.2097 88.7946 30.1883 88.7632 30.824 87.7932ZM44.201 88.7946V82.4281C44.201 77.4031 44.3155 76.1487 44.7453 76.477C47.5928 78.6522 49.5687 80.1857 51.7788 81.9369C53.2148 83.0747 54.5463 84.0051 54.7378 84.0051C54.9294 84.0051 55.0862 82.2417 55.0862 80.0865C55.0862 76.3128 55.1223 76.1678 56.0658 76.1678C57.0342 76.1678 57.0455 76.237 57.0616 82.2635C57.0703 85.6161 57.0054 88.3592 56.9175 88.3592C56.8295 88.3592 54.6838 86.773 52.1493 84.8346C49.6144 82.8961 47.2789 81.2098 46.9593 81.087C46.5008 80.9111 46.378 81.7014 46.378 84.8294C46.378 88.7685 46.3711 88.7946 45.2895 88.7946H44.201ZM73.1555 88.7946H72.067V82.4812V76.1678H73.1555C74.2131 76.1678 74.244 76.2549 74.244 79.2157C74.244 80.892 74.3594 82.2635 74.5005 82.2635C74.6411 82.2635 76.2578 80.8928 78.0926 79.217C80.8975 76.6555 81.6708 76.1717 82.9522 76.1757L84.4761 76.18L81.9725 78.3871C80.5957 79.601 79.4689 80.787 79.4689 81.0235C79.4689 81.2595 80.6428 83.1047 82.0779 85.1237L84.6868 88.7946H83.4224C82.3644 88.7946 81.8305 88.3357 80.1538 85.9862C79.0513 84.4414 77.9685 83.0655 77.7469 82.9288C77.5252 82.7916 76.6466 83.2919 75.7941 84.0408C74.5157 85.1629 74.244 85.6989 74.244 87.0983C74.244 88.6174 74.1304 88.7946 73.1555 88.7946ZM58.1262 88.7946L61.2585 82.6989C62.9814 79.3463 64.5014 76.6041 64.6368 76.6054C64.7722 76.6067 66.2661 79.3498 67.9568 82.7011C70.9942 88.7232 71.0172 88.7946 69.9161 88.7868C68.9582 88.7798 68.5019 88.2159 66.6693 84.7723L64.5371 80.7661L62.5438 84.7802C60.7447 88.4036 60.4325 88.7946 59.3383 88.7946H58.1262ZM26.7451 85.9849C29.2039 84.7135 29.5396 81.1902 27.3939 79.1747C26.5209 78.3544 25.711 78.1197 23.2802 77.9822L20.2537 77.811V82.2143V86.6176H22.8879C24.3395 86.6176 26.0707 86.3337 26.7451 85.9849ZM62.5186 70.0585L51.9605 59.2822L41.4025 70.0585H62.5186Z" fill="#B3B8BC"/>
</svg>
