<svg width="176" height="176" viewBox="0 0 176 176" fill="none" xmlns="http://www.w3.org/2000/svg">
<path opacity="0.1" d="M138.88 132.557V119.563H142.044V116.816H67.4589C64.8917 116.816 62.8198 118.899 62.8198 121.489V130.654C62.8198 133.233 64.8917 135.327 67.4589 135.327H142.033V132.58H138.88V132.557Z" fill="#2341DF"/>
<path d="M65.1621 130.665V121.5C65.1621 118.921 67.234 116.827 69.8012 116.827H67.7407C65.1734 116.827 63.1016 118.91 63.1016 121.5V130.665C63.1016 133.244 65.1734 135.338 67.7407 135.338H69.8012C67.234 135.338 65.1621 133.255 65.1621 130.665Z" fill="white"/>
<path opacity="0.1" d="M105.044 116.804C102.477 116.804 100.405 118.888 100.405 121.477V130.654C100.405 131.499 99.7972 132.208 98.9639 132.208H63.1016C63.7434 134.01 65.4324 135.305 67.4479 135.305H142.033V132.557H138.869V119.563H142.033V116.816H105.044V116.804Z" fill="#2341DF"/>
<path d="M69.801 135.316H142.033V132.568H138.88V119.563H142.044V116.816H67.4589C64.8917 116.816 62.8198 118.899 62.8198 121.489V129.754" stroke="url(#paint0_linear_253_8791)" stroke-width="0.7" stroke-linecap="round" stroke-linejoin="round"/>
<path d="M107.836 119.563H138.869V132.557H107.836C105.979 132.557 104.458 131.048 104.458 129.179V122.941C104.458 121.083 105.967 119.563 107.836 119.563Z" fill="white"/>
<path d="M118.117 121.995H112.87C114.187 121.995 115.257 123.065 115.257 124.394V129.979C115.257 130.069 115.347 130.114 115.426 130.08L117.959 128.695C117.959 128.695 118.038 128.672 118.072 128.695L120.346 130.069C120.425 130.114 120.515 130.069 120.515 129.967V124.394C120.515 123.065 119.445 121.995 118.117 121.995Z" fill="#4C5098"/>
<path d="M107.836 119.563H138.869V132.557H107.836C105.979 132.557 104.458 131.048 104.458 129.179V122.941C104.458 121.083 105.967 119.563 107.836 119.563Z" stroke="url(#paint1_linear_253_8791)" stroke-width="0.7" stroke-linecap="round" stroke-linejoin="round"/>
<path d="M106.79 121.995H138.88" stroke="url(#paint2_linear_253_8791)" stroke-width="0.7" stroke-linecap="round" stroke-linejoin="round"/>
<path d="M123.038 125.79H136.977" stroke="url(#paint3_linear_253_8791)" stroke-width="0.7" stroke-linecap="round" stroke-linejoin="round"/>
<path d="M106.361 125.79H113.297" stroke="url(#paint4_linear_253_8791)" stroke-width="0.7" stroke-linecap="round" stroke-linejoin="round"/>
<path d="M44.6908 67.0579H108.771C109.086 67.0579 109.357 67.2606 109.447 67.5646L121.112 107.391H93.7617V109.542H56.2097L44.0264 67.9475C43.9026 67.4971 44.2291 67.0579 44.6908 67.0579Z" fill="url(#paint5_linear_253_8791)"/>
<path d="M109.687 67.4944L109.686 67.4936C109.565 67.0843 109.198 66.8079 108.771 66.8079H44.6908C44.0583 66.8079 43.6193 67.4098 43.7854 68.0138L43.7853 68.0138L43.7865 68.0177L55.9698 109.612L56.0224 109.792H56.2097H93.7617H94.0117V109.542V107.641H121.112H121.446L121.352 107.321L109.687 67.4944Z" stroke="url(#paint6_linear_253_8791)" stroke-opacity="0.1" stroke-width="0.5"/>
<path d="M61.288 109.553H118.68L107.724 72.17C107.645 71.8885 107.375 71.697 107.093 71.697H51.0752C50.6361 71.697 50.3208 72.1249 50.4446 72.5415L61.288 109.553Z" fill="white"/>
<path opacity="0.3" d="M64.5668 71.7175L58.208 66.9484H77.2004L72.1366 71.4166C70.0036 73.2985 66.8424 73.4242 64.5668 71.7175Z" fill="#2341DF"/>
<path opacity="0.1" d="M95.8107 92.1113H105.551L103.693 85.772C103.693 85.772 103.636 85.6932 103.58 85.6932H94.0767C93.9979 85.6932 93.9529 85.7607 93.9641 85.8395L95.7995 92.1226L95.8107 92.1113Z" fill="#27BEA3"/>
<path opacity="0.1" d="M81.5783 92.1113H91.3182L89.4603 85.772C89.4603 85.772 89.404 85.6932 89.3477 85.6932H79.8443C79.7655 85.6932 79.7204 85.7607 79.7317 85.8395L81.5671 92.1226L81.5783 92.1113Z" fill="#27BEA3"/>
<path opacity="0.1" d="M67.3571 92.1113H77.097L75.2391 85.772C75.2391 85.772 75.1828 85.6932 75.1265 85.6932H65.6231C65.5443 85.6932 65.4992 85.7607 65.5105 85.8395L67.3459 92.1226L67.3571 92.1113Z" fill="#27BEA3"/>
<path opacity="0.1" d="M98.153 102.718H107.893L106.035 96.3789C106.035 96.3789 105.979 96.3 105.922 96.3H96.419C96.3402 96.3 96.2951 96.3676 96.3064 96.4464L98.1418 102.729L98.153 102.718Z" fill="#27BEA3"/>
<path d="M83.9318 102.718H93.6717L91.8138 96.3789C91.8138 96.3789 91.7575 96.3 91.7012 96.3H82.1978C82.119 96.3 82.0739 96.3676 82.0852 96.4464L83.9206 102.729L83.9318 102.718Z" fill="#27BEA3"/>
<path opacity="0.1" d="M69.7102 102.718H79.45L77.5921 96.3789C77.5921 96.3789 77.5358 96.3 77.4795 96.3H67.9761C67.8973 96.3 67.8523 96.3676 67.8635 96.4464L69.6989 102.729L69.7102 102.718Z" fill="#27BEA3"/>
<path d="M120.943 106.817L109.447 67.5534C109.356 67.2606 109.086 67.0467 108.782 67.0467H76.9053" stroke="url(#paint7_linear_253_8791)" stroke-width="0.7" stroke-linecap="round" stroke-linejoin="round"/>
<path d="M44.7808 70.5485L56.1871 109.553" stroke="url(#paint8_linear_253_8791)" stroke-width="0.7" stroke-linecap="round" stroke-linejoin="round"/>
<path d="M51.064 74.6472L60.4885 106.806" stroke="url(#paint9_linear_253_8791)" stroke-width="0.7" stroke-linecap="round" stroke-linejoin="round"/>
<path opacity="0.3" d="M60.781 116.804H148.53C150.027 116.804 151.03 115.273 150.422 113.899L149.048 110.78C148.71 110.037 147.978 109.542 147.156 109.542H56.1982L57.6283 114.44C58.0449 115.836 59.3173 116.804 60.781 116.804Z" fill="#2341DF"/>
<g opacity="0.3">
<path d="M87.4525 109.485C88.2745 109.485 89.0176 109.969 89.3442 110.723L90.7179 113.842C91.3147 115.205 90.3125 116.748 88.8262 116.748H61.3294C59.8769 116.748 58.582 115.779 58.1766 114.383L56.7466 109.485H87.4525Z" fill="url(#paint10_linear_253_8791)"/>
<path d="M90.9469 113.742L90.9467 113.742L89.5736 110.624C89.5735 110.624 89.5735 110.624 89.5734 110.624C89.2069 109.777 88.3732 109.235 87.4525 109.235H56.7466H56.4132L56.5066 109.555L57.9365 114.453C57.9365 114.453 57.9365 114.453 57.9366 114.453C58.3731 115.956 59.7661 116.998 61.3294 116.998H88.8262C90.4942 116.998 91.6155 115.269 90.9469 113.742Z" stroke="url(#paint11_linear_253_8791)" stroke-opacity="0.1" stroke-width="0.5"/>
<path opacity="0.8" d="M151.15 114.856C151.105 115.34 150.88 115.768 150.553 116.117C150.891 115.779 151.105 115.34 151.15 114.856Z" fill="#2341DF"/>
</g>
<path d="M91.4309 76.8091H74.5747" stroke="url(#paint12_linear_253_8791)" stroke-width="0.7" stroke-linecap="round" stroke-linejoin="round"/>
<path opacity="0.3" d="M86.634 80.0181H82.0962" stroke="url(#paint13_linear_253_8791)" stroke-width="0.7" stroke-linecap="round" stroke-linejoin="round"/>
<path d="M148.53 116.816H88.2779C89.7754 116.816 90.7776 115.273 90.1695 113.911L88.7958 110.792C88.458 110.037 87.7261 109.553 86.9041 109.553H56.1982L57.6283 114.462C58.0449 115.859 59.3285 116.827 60.781 116.827H148.53V116.816ZM148.53 116.816C149.093 116.816 149.577 116.602 149.949 116.253" stroke="url(#paint14_linear_253_8791)" stroke-width="0.7" stroke-linecap="round" stroke-linejoin="round"/>
<path opacity="0.1" d="M67.7739 109.553H142.506L139.556 107.391H70.724L67.7739 109.553Z" fill="#2341DF"/>
<path opacity="0.3" d="M30.3491 135H149.651C150.398 135 151 135.67 151 136.501V143.499C151 144.33 150.398 145 149.651 145H30.3491C29.6019 145 29 144.33 29 143.499V136.501C29 135.67 29.6019 135 30.3491 135Z" fill="#2341DF"/>
<path d="M143 135.012H149.953C150.533 135.012 151 135.681 151 136.511V143.501C151 144.331 150.533 145 149.953 145H143V135V135.012Z" fill="url(#paint15_linear_253_8791)"/>
<path d="M142.75 135.012V135.262V145V145.25H143H149.953C150.346 145.25 150.677 145.022 150.899 144.705C151.121 144.387 151.25 143.96 151.25 143.501V136.511C151.25 136.051 151.121 135.625 150.899 135.307C150.677 134.989 150.346 134.762 149.953 134.762H143V135H142.75V135.012Z" stroke="url(#paint16_linear_253_8791)" stroke-opacity="0.1" stroke-width="0.5"/>
<path opacity="0.09" d="M122.617 52.2207C119.857 52.2207 117.617 49.9814 117.617 47.2207C117.617 44.46 119.857 42.2207 122.617 42.2207C125.378 42.2207 127.617 44.46 127.617 47.2207C127.617 49.9814 125.378 52.2207 122.617 52.2207Z" fill="#4C64E5"/>
<path opacity="0.09" d="M35.0305 79.061C31.1478 79.061 28 75.9132 28 72.0305C28 68.1478 31.1478 65 35.0305 65C38.9132 65 42.061 68.1478 42.061 72.0305C42.061 75.9132 38.9132 79.061 35.0305 79.061Z" fill="#4C64E5"/>
<path opacity="0.09" d="M34.4459 120.892C33.0968 120.892 32 119.795 32 118.446C32 117.097 33.0968 116 34.4459 116C35.7949 116 36.8917 117.097 36.8917 118.446C36.8917 119.795 35.7949 120.892 34.4459 120.892Z" fill="#4C64E5"/>
<path opacity="0.15" d="M32.5308 84.4107H36.3725L52.7139 44.806L49.9138 42.5547L32.5308 84.4107Z" fill="#2341DF"/>
<path d="M27.9831 86.1915C27.9831 85.2059 27.3671 84.4106 26.6055 84.4106H44.5262C45.2878 84.4106 45.9038 85.2171 45.9038 86.1915C45.9038 87.1659 45.2878 87.9724 44.5262 87.9724H26.6055C27.3671 87.9724 27.9831 87.1659 27.9831 86.1915Z" stroke="url(#paint17_linear_253_8791)" stroke-width="0.7" stroke-linecap="round" stroke-linejoin="round"/>
<path opacity="0.15" d="M62.9849 129.828H67.0283L43.3618 87.9836H40.4272L62.9849 129.84V129.828Z" fill="#2341DF"/>
<path opacity="0.15" d="M50.0818 129.828H53.8563L32.3291 87.9836H29.417L50.0818 129.84V129.828Z" fill="#2341DF"/>
<path d="M44.4367 132.561C44.4367 131.049 43.4959 129.828 42.3198 129.828H69.8281C71.0041 129.828 71.945 131.049 71.945 132.561C71.945 134.073 71.0041 135.294 69.8281 135.294H42.3198C43.4959 135.294 44.4367 134.073 44.4367 132.561Z" fill="#BDC6F6"/>
<path d="M44.4367 132.561C44.4367 131.049 43.4959 129.828 42.3198 129.828H69.8281C71.0041 129.828 71.945 131.049 71.945 132.561C71.945 134.073 71.0041 135.294 69.8281 135.294H42.3198C43.4959 135.294 44.4367 134.073 44.4367 132.561Z" stroke="url(#paint18_linear_253_8791)" stroke-width="0.7" stroke-linecap="round" stroke-linejoin="round"/>
<path d="M42.32 135.305C41.1552 135.305 40.2031 134.085 40.2031 132.572C40.2031 131.06 41.1552 129.84 42.32 129.84C43.4848 129.84 44.4369 131.06 44.4369 132.572C44.4369 134.085 43.4848 135.305 42.32 135.305Z" stroke="url(#paint19_linear_253_8791)" stroke-width="0.7" stroke-linecap="round" stroke-linejoin="round"/>
<path d="M26.6057 87.9724C25.8441 87.9724 25.228 87.1771 25.228 86.1915C25.228 85.2059 25.8441 84.4106 26.6057 84.4106C27.3673 84.4106 27.9833 85.2059 27.9833 86.1915C27.9833 87.1771 27.3673 87.9724 26.6057 87.9724Z" stroke="url(#paint20_linear_253_8791)" stroke-width="0.7" stroke-linecap="round" stroke-linejoin="round"/>
<path d="M47.3264 38.3881L50.4513 32.7319C50.8769 31.9591 51.7617 31.567 52.6242 31.7799L60.7781 33.7175C59.6692 34.8152 58.7284 36.1032 58.034 37.5817L55.5923 42.7563C55.0547 43.8763 54.6963 45.0524 54.4946 46.2284L47.8304 40.8746C47.0912 40.281 46.8896 39.2281 47.3488 38.3993L47.3264 38.3881Z" fill="url(#paint21_linear_253_8791)"/>
<path d="M47.1076 38.2672L46.9816 38.4952L47.0175 38.5132C46.6538 39.4039 46.9074 40.454 47.6738 41.0695C47.6738 41.0695 47.6739 41.0695 47.6739 41.0695L54.3381 46.4233L54.6693 46.6894L54.7411 46.2706C54.939 45.1157 55.2908 43.9621 55.8177 42.8645L55.8184 42.863L58.2601 37.6884L58.2603 37.688C58.9414 36.2379 59.8645 34.9737 60.954 33.8952L61.274 33.5784L60.8359 33.4743L52.6841 31.5371C52.6837 31.537 52.6833 31.537 52.683 31.5369C51.7105 31.2974 50.7121 31.7401 50.2324 32.6112C50.2324 32.6112 50.2323 32.6113 50.2323 32.6113L47.1076 38.2672Z" stroke="url(#paint22_linear_253_8791)" stroke-opacity="0.1" stroke-width="0.5"/>
<path opacity="0.2" d="M47.3263 38.3881L50.4513 32.7319C50.7537 32.1831 51.2913 31.8359 51.8849 31.7575L49.8464 37.6713C49.5328 38.6121 49.9136 39.6314 50.7873 40.113L55.5699 42.7451C55.0322 43.8763 54.6738 45.0412 54.4834 46.2172L47.8192 40.8634C47.0799 40.2698 46.8783 39.217 47.3375 38.3881H47.3263Z" fill="#2341DF"/>
<g opacity="0.3">
<g filter="url(#filter0_d_253_8791)">
<path d="M55.5811 42.7339L58.0228 37.5593C60.9685 31.3318 68.1143 28.3189 74.6442 30.5366L86.5726 34.6024C82.5629 33.7735 76.2347 39.2393 71.8105 47.6173C67.4647 55.8608 66.4791 64.0371 69.2456 67.0052L59.3668 59.1089C54.461 55.1887 52.9042 48.4125 55.5811 42.7339Z" fill="url(#paint23_linear_253_8791)" shape-rendering="crispEdges"/>
<path d="M55.355 42.6272L55.3549 42.6273C52.6289 48.4101 54.2141 55.3114 59.2108 59.3042L69.0895 67.2005L69.4285 66.8347C68.1255 65.4368 67.6671 62.7511 68.1089 59.3214C68.5482 55.9108 69.8699 51.8345 72.0316 47.734C74.2323 43.5665 76.9027 40.1315 79.5117 37.8453C80.8163 36.7021 82.0996 35.8515 83.2953 35.3378C84.4921 34.8237 85.5857 34.6537 86.522 34.8472L86.6533 34.3657L74.7249 30.3L74.7246 30.2999C68.075 28.0415 60.797 31.1096 57.7968 37.4524L57.7967 37.4526L55.355 42.6272Z" stroke="url(#paint24_linear_253_8791)" stroke-opacity="0.1" stroke-width="0.5" shape-rendering="crispEdges"/>
</g>
</g>
<g opacity="0.5">
<path opacity="0.3" d="M67.7001 62.189L61.3607 57.1264C57.2725 53.8559 55.5141 48.5917 56.6005 43.6411C57.5525 46.5644 59.4566 49.1629 62.1559 50.9438L68.7082 55.256C67.9801 57.8209 67.6441 60.1841 67.7001 62.189Z" fill="#2341DF"/>
</g>
<path opacity="0.8" d="M71.5418 65.1683C74.6555 66.8148 80.4462 61.9538 84.4671 54.3263C88.4993 46.6988 89.2497 39.1721 86.136 37.5257C83.0223 35.8792 77.2316 40.7402 73.2107 48.3677C69.1785 55.9952 68.4281 63.5219 71.5418 65.1683Z" fill="#2341DF"/>
<path opacity="0.6" d="M69.8504 57.8096L77.041 63.6899L77.0074 63.7123C75.7978 64.4067 74.8906 64.9779 74.0729 65.2803C73.1209 65.5491 72.2585 65.5379 71.5304 65.1571C69.7832 64.2275 69.2455 61.4386 69.8392 57.8208L69.8504 57.8096Z" fill="#2341DF"/>
<path d="M72.5271 54.8975L70.8135 53.9903C71.3959 52.1758 72.2023 50.283 73.2216 48.3677C74.2296 46.4524 75.3496 44.7163 76.5145 43.2155L78.2282 44.1227C81.2075 45.6908 82.3387 49.3869 80.7707 52.355C79.2026 55.3343 75.5065 56.4656 72.5383 54.8975H72.5271Z" fill="#F19E39"/>
<path opacity="0.4" d="M71.6087 52.7583C75.1256 54.6175 79.4602 53.3407 81.4427 49.9357C81.3755 50.7534 81.1627 51.5822 80.7595 52.3662C79.1914 55.3456 75.4953 56.4768 72.5271 54.9087L70.8135 54.0015C70.9703 53.5423 71.1271 53.0719 71.3063 52.6014L71.6199 52.7695L71.6087 52.7583Z" fill="white"/>
<g opacity="0.7">
<path opacity="0.6" d="M55.5811 42.7339L58.0228 37.5593C58.93 35.6552 60.2068 34.0647 61.7637 32.8103C61.0805 33.6391 60.4869 34.5576 60.0164 35.5656L57.5747 40.7402C54.8866 46.4188 56.4547 53.1839 61.3605 57.1152L67.6999 62.1778C67.7671 64.2835 68.2712 65.9635 69.2456 66.994L59.3668 59.0977C54.461 55.1775 52.9042 48.4013 55.5811 42.7227V42.7339Z" fill="#2341DF"/>
</g>
<path d="M73.6364 33.5271C67.1177 31.3095 59.9606 34.3336 57.0149 40.561L54.5732 45.7356V45.7692C54.7748 44.7388 55.1109 43.7307 55.5701 42.7563L58.0118 37.5817C60.9575 31.3431 68.1034 28.3301 74.6332 30.5478L87.5025 34.9384L86.0128 37.7497L73.6364 33.5271Z" fill="white"/>
<path opacity="0.3" d="M71.7994 47.6284C76.5932 38.5673 83.6159 32.8887 87.5024 34.9384C91.389 36.988 90.6609 45.9932 85.8671 55.0655C81.0734 64.1267 74.0507 69.8053 70.1641 67.7556C66.2776 65.6947 67.0056 56.7008 71.7994 47.6284ZM71.5306 65.1683C74.6443 66.8148 80.4349 61.9538 84.4559 54.3263C88.488 46.6988 89.2385 39.1721 86.1248 37.5257C83.011 35.8792 77.2204 40.7402 73.1995 48.3677C69.1673 55.9952 68.4169 63.5219 71.5306 65.1683Z" fill="#2341DF"/>
<path d="M74.6331 30.5478C68.1144 28.3301 60.9573 31.3542 58.0116 37.5817L55.5699 42.7563C52.8818 48.4349 54.4499 55.1999 59.3557 59.1313L70.1641 67.778" stroke="url(#paint25_linear_253_8791)" stroke-width="0.7" stroke-linecap="round" stroke-linejoin="round"/>
<path d="M82.1933 33.1239L76.6938 31.2534" stroke="url(#paint26_linear_253_8791)" stroke-width="0.7" stroke-linecap="round" stroke-linejoin="round"/>
<path d="M63.724 36.7305L62.4136 37.3577" stroke="white" stroke-width="0.7" stroke-linecap="round" stroke-linejoin="round"/>
<path d="M75.2044 36.1256L73.0203 35.476C70.7915 34.804 68.4058 34.8712 66.2217 35.6328" stroke="white" stroke-width="0.7" stroke-linecap="round" stroke-linejoin="round"/>
<path opacity="0.6" d="M86.4944 39.1945C83.3807 37.5481 77.5901 42.4091 73.5691 50.0365C70.9258 55.0319 69.705 59.9713 70.041 63.253C68.9321 60.1729 70.0746 54.3151 73.2107 48.3677C77.2429 40.7402 83.0223 35.8792 86.136 37.5257C87.2 38.0857 87.8161 39.3625 87.9841 41.0874C87.6705 40.2026 87.1776 39.5417 86.4944 39.1721V39.1945Z" fill="#2341DF"/>
<path d="M88.0512 42.1626C88.0512 39.889 87.4128 38.2089 86.1248 37.5257C83.011 35.8792 77.2204 40.7402 73.1995 48.3677C69.1673 55.9952 68.4169 63.5219 71.5306 65.1683C74.6443 66.8148 80.4349 61.9538 84.4559 54.3263C86.2928 50.8318 87.4576 47.3708 87.872 44.4811" stroke="url(#paint27_linear_253_8791)" stroke-width="0.7" stroke-linecap="round" stroke-linejoin="round"/>
<path d="M87.5024 34.9384C91.389 36.9993 90.6609 45.9932 85.8671 55.0655C81.0734 64.1267 74.0507 69.8053 70.1641 67.7556C66.2776 65.6948 67.0056 56.7008 71.7994 47.6285C75.2827 41.0426 79.9533 36.2376 83.7279 34.8936" stroke="url(#paint28_linear_253_8791)" stroke-width="0.7" stroke-linecap="round" stroke-linejoin="round"/>
<path d="M79.0236 44.6267C81.3869 46.3964 82.1821 49.6669 80.7597 52.355C79.1916 55.3343 75.4955 56.4656 72.5273 54.8975" stroke="url(#paint29_linear_253_8791)" stroke-width="0.7" stroke-linecap="round" stroke-linejoin="round"/>
<path d="M77.8812 48.1437C77.6012 47.4493 77.7916 46.6988 78.3181 46.486C78.8445 46.2732 79.5053 46.6652 79.7853 47.3597C80.0653 48.0541 79.8749 48.8045 79.3485 49.0173C78.8221 49.2301 78.1612 48.8381 77.8812 48.1437Z" fill="white"/>
<path d="M77.041 46.038C76.7386 46.038 76.481 45.7916 76.481 45.478C76.481 45.1644 76.7274 44.918 77.041 44.918C77.3546 44.918 77.601 45.1644 77.601 45.478C77.601 45.7916 77.3546 46.038 77.041 46.038Z" fill="white"/>
<path opacity="0.09" d="M130.308 87.4456L132.116 93.2205L133.925 87.4456L138.616 84.7161L133.925 81.9954L132.116 76.2205L130.308 81.9954L125.616 84.7161L130.308 87.4456Z" fill="#4C64E5"/>
<defs>
<filter id="filter0_d_253_8791" x="51.7822" y="28.3109" width="36.9517" height="42.0849" filterUnits="userSpaceOnUse" color-interpolation-filters="sRGB">
<feFlood flood-opacity="0" result="BackgroundImageFix"/>
<feColorMatrix in="SourceAlpha" type="matrix" values="0 0 0 0 0 0 0 0 0 0 0 0 0 0 0 0 0 0 127 0" result="hardAlpha"/>
<feOffset dy="1"/>
<feGaussianBlur stdDeviation="1"/>
<feComposite in2="hardAlpha" operator="out"/>
<feColorMatrix type="matrix" values="0 0 0 0 0 0 0 0 0 0.4 0 0 0 0 1 0 0 0 0.2 0"/>
<feBlend mode="normal" in2="BackgroundImageFix" result="effect1_dropShadow_253_8791"/>
<feBlend mode="normal" in="SourceGraphic" in2="effect1_dropShadow_253_8791" result="shape"/>
</filter>
<linearGradient id="paint0_linear_253_8791" x1="36.4787" y1="95.4108" x2="149.917" y2="126.236" gradientUnits="userSpaceOnUse">
<stop stop-color="#1B217C"/>
<stop offset="1" stop-color="#1B217C" stop-opacity="0"/>
</linearGradient>
<linearGradient id="paint1_linear_253_8791" x1="107.188" y1="126.18" x2="142.085" y2="126.18" gradientUnits="userSpaceOnUse">
<stop stop-color="#1B217C"/>
<stop offset="1" stop-color="#1B217C" stop-opacity="0"/>
</linearGradient>
<linearGradient id="paint2_linear_253_8791" x1="109.335" y1="122.504" x2="141.88" y2="122.504" gradientUnits="userSpaceOnUse">
<stop stop-color="#1B217C"/>
<stop offset="1" stop-color="#1B217C" stop-opacity="0"/>
</linearGradient>
<linearGradient id="paint3_linear_253_8791" x1="124.144" y1="126.299" x2="138.28" y2="126.299" gradientUnits="userSpaceOnUse">
<stop stop-color="#1B217C"/>
<stop offset="1" stop-color="#1B217C" stop-opacity="0"/>
</linearGradient>
<linearGradient id="paint4_linear_253_8791" x1="106.912" y1="126.299" x2="113.946" y2="126.299" gradientUnits="userSpaceOnUse">
<stop stop-color="#1B217C"/>
<stop offset="1" stop-color="#1B217C" stop-opacity="0"/>
</linearGradient>
<linearGradient id="paint5_linear_253_8791" x1="139.869" y1="112.472" x2="52.0807" y2="88.7581" gradientUnits="userSpaceOnUse">
<stop stop-color="#4979E6"/>
<stop offset="1" stop-color="#4979E6" stop-opacity="0.43"/>
</linearGradient>
<linearGradient id="paint6_linear_253_8791" x1="132.128" y1="89.0893" x2="12.0947" y2="82.6095" gradientUnits="userSpaceOnUse">
<stop stop-color="white"/>
<stop offset="1" stop-color="white" stop-opacity="0"/>
</linearGradient>
<linearGradient id="paint7_linear_253_8791" x1="80.399" y1="87.2983" x2="125.059" y2="87.2983" gradientUnits="userSpaceOnUse">
<stop stop-color="#1B217C"/>
<stop offset="1" stop-color="#1B217C" stop-opacity="0"/>
</linearGradient>
<linearGradient id="paint8_linear_253_8791" x1="45.6857" y1="90.4103" x2="57.2533" y2="90.4103" gradientUnits="userSpaceOnUse">
<stop stop-color="#1B217C"/>
<stop offset="1" stop-color="#1B217C" stop-opacity="0"/>
</linearGradient>
<linearGradient id="paint9_linear_253_8791" x1="51.8117" y1="91.0228" x2="61.3695" y2="91.0228" gradientUnits="userSpaceOnUse">
<stop stop-color="#1B217C"/>
<stop offset="1" stop-color="#1B217C" stop-opacity="0"/>
</linearGradient>
<linearGradient id="paint10_linear_253_8791" x1="99.1989" y1="117.248" x2="71.1973" y2="97.6558" gradientUnits="userSpaceOnUse">
<stop stop-color="#4979E6"/>
<stop offset="1" stop-color="#4979E6" stop-opacity="0.43"/>
</linearGradient>
<linearGradient id="paint11_linear_253_8791" x1="95.771" y1="113.251" x2="43.4859" y2="105.94" gradientUnits="userSpaceOnUse">
<stop stop-color="white"/>
<stop offset="1" stop-color="white" stop-opacity="0"/>
</linearGradient>
<linearGradient id="paint12_linear_253_8791" x1="75.912" y1="77.3183" x2="93.0064" y2="77.3183" gradientUnits="userSpaceOnUse">
<stop stop-color="#1B217C"/>
<stop offset="1" stop-color="#1B217C" stop-opacity="0"/>
</linearGradient>
<linearGradient id="paint13_linear_253_8791" x1="82.4562" y1="80.5274" x2="87.0581" y2="80.5274" gradientUnits="userSpaceOnUse">
<stop stop-color="#1B217C"/>
<stop offset="1" stop-color="#1B217C" stop-opacity="0"/>
</linearGradient>
<linearGradient id="paint14_linear_253_8791" x1="93.9059" y1="112.863" x2="51.6811" y2="109.485" gradientUnits="userSpaceOnUse">
<stop stop-color="#1B217C"/>
<stop offset="1" stop-color="#1B217C" stop-opacity="0"/>
</linearGradient>
<linearGradient id="paint15_linear_253_8791" x1="152.946" y1="145.69" x2="143.31" y2="144.542" gradientUnits="userSpaceOnUse">
<stop stop-color="#4979E6"/>
<stop offset="1" stop-color="#4979E6" stop-opacity="0.43"/>
</linearGradient>
<linearGradient id="paint16_linear_253_8791" x1="152.143" y1="140.186" x2="139.661" y2="139.889" gradientUnits="userSpaceOnUse">
<stop stop-color="white"/>
<stop offset="1" stop-color="white" stop-opacity="0"/>
</linearGradient>
<linearGradient id="paint17_linear_253_8791" x1="28.1365" y1="86.2243" x2="47.7076" y2="86.2243" gradientUnits="userSpaceOnUse">
<stop stop-color="#1B217C"/>
<stop offset="1" stop-color="#1B217C" stop-opacity="0"/>
</linearGradient>
<linearGradient id="paint18_linear_253_8791" x1="44.6701" y1="132.612" x2="74.714" y2="132.612" gradientUnits="userSpaceOnUse">
<stop stop-color="#1B217C"/>
<stop offset="1" stop-color="#1B217C" stop-opacity="0"/>
</linearGradient>
<linearGradient id="paint19_linear_253_8791" x1="40.539" y1="132.623" x2="44.8326" y2="132.623" gradientUnits="userSpaceOnUse">
<stop stop-color="#1B217C"/>
<stop offset="1" stop-color="#1B217C" stop-opacity="0"/>
</linearGradient>
<linearGradient id="paint20_linear_253_8791" x1="25.4466" y1="86.2243" x2="28.2409" y2="86.2243" gradientUnits="userSpaceOnUse">
<stop stop-color="#1B217C"/>
<stop offset="1" stop-color="#1B217C" stop-opacity="0"/>
</linearGradient>
<linearGradient id="paint21_linear_253_8791" x1="64.1042" y1="47.2288" x2="47.7234" y2="44.9308" gradientUnits="userSpaceOnUse">
<stop stop-color="#4979E6"/>
<stop offset="1" stop-color="#4979E6" stop-opacity="0.43"/>
</linearGradient>
<linearGradient id="paint22_linear_253_8791" x1="62.7315" y1="39.245" x2="41.4011" y2="38.647" gradientUnits="userSpaceOnUse">
<stop stop-color="white"/>
<stop offset="1" stop-color="white" stop-opacity="0"/>
</linearGradient>
<linearGradient id="paint23_linear_253_8791" x1="64.0388" y1="53.6206" x2="78.0394" y2="32.3398" gradientUnits="userSpaceOnUse">
<stop stop-color="#4979E6"/>
<stop offset="1" stop-color="#4979E6" stop-opacity="0.43"/>
</linearGradient>
<linearGradient id="paint24_linear_253_8791" x1="91.1856" y1="49.0993" x2="40.8091" y2="47.7985" gradientUnits="userSpaceOnUse">
<stop stop-color="white"/>
<stop offset="1" stop-color="white" stop-opacity="0"/>
</linearGradient>
<linearGradient id="paint25_linear_253_8791" x1="55.8819" y1="49.1506" x2="76.5368" y2="49.1506" gradientUnits="userSpaceOnUse">
<stop stop-color="#1B217C"/>
<stop offset="1" stop-color="#1B217C" stop-opacity="0"/>
</linearGradient>
<linearGradient id="paint26_linear_253_8791" x1="77.1301" y1="32.2059" x2="82.7073" y2="32.2059" gradientUnits="userSpaceOnUse">
<stop stop-color="#1B217C"/>
<stop offset="1" stop-color="#1B217C" stop-opacity="0"/>
</linearGradient>
<linearGradient id="paint27_linear_253_8791" x1="71.072" y1="51.6077" x2="89.775" y2="51.6077" gradientUnits="userSpaceOnUse">
<stop stop-color="#1B217C"/>
<stop offset="1" stop-color="#1B217C" stop-opacity="0"/>
</linearGradient>
<linearGradient id="paint28_linear_253_8791" x1="69.4383" y1="51.8406" x2="92.0876" y2="51.8406" gradientUnits="userSpaceOnUse">
<stop stop-color="#1B217C"/>
<stop offset="1" stop-color="#1B217C" stop-opacity="0"/>
</linearGradient>
<linearGradient id="paint29_linear_253_8791" x1="73.2366" y1="50.2161" x2="82.3026" y2="50.2161" gradientUnits="userSpaceOnUse">
<stop stop-color="#1B217C"/>
<stop offset="1" stop-color="#1B217C" stop-opacity="0"/>
</linearGradient>
</defs>
</svg>
