<svg width="104" height="104" viewBox="0 0 104 104" fill="none" xmlns="http://www.w3.org/2000/svg">
<path fill-rule="evenodd" clip-rule="evenodd" d="M51.1131 16.762C49.0988 18.3868 48.1069 21.4956 48.1217 26.1372C48.1374 31.1434 49.929 33.7158 52.7717 32.8135C54.275 32.3367 56.0514 28.3363 56.3521 24.7512C56.6427 21.2826 56.0144 18.6367 54.5065 16.9828C53.3764 15.7437 52.4506 15.6832 51.1131 16.762ZM33.1609 23.314C31.5467 23.9816 30.0896 25.9575 29.8567 27.7944C29.6863 29.142 29.9468 30.1861 30.9341 32.1104C32.5968 35.3499 35.2015 37.238 38.436 37.549C42.5588 37.9453 44.9556 36.0757 44.9316 32.4827C44.8951 27.0201 37.7176 21.429 33.1609 23.314ZM65.9542 25.4757C61.9663 28.1118 56.9536 33.6761 56.9536 35.4663C56.9536 37.481 61.3971 34.9914 65.549 30.6514C68.3723 27.7002 69.4275 26.1844 69.4275 25.0802C69.4275 23.9053 68.1006 24.0564 65.9542 25.4757ZM31.0824 40.4859C28.2961 41.597 26 45.1502 26 48.3495C26 56.0791 35.421 59.9081 40.5288 54.2547C45.5803 48.6632 41.9166 39.9347 34.5469 40.004C33.2764 40.016 31.7172 40.2327 31.0824 40.4859ZM57.046 48.3753C54.944 50.4774 58.4385 56.8414 63.24 59.6554C65.9736 61.2571 68.9835 61.0853 69.6109 59.2914C70.5728 56.5402 66.8306 50.9556 62.5683 48.781C60.4787 47.7147 57.8961 47.5253 57.046 48.3753ZM46.4179 51.9891C45.45 52.5795 44.4798 53.8042 43.766 55.3367C41.025 61.2239 43.7346 68.1487 48.7791 68.1487C50.3808 68.1487 50.92 67.8609 52.597 66.1109C56.2241 62.3248 56.3105 56.3129 52.7878 52.7874C50.7564 50.7546 48.8373 50.5139 46.4179 51.9891ZM40.7838 80.3916C40.7838 84.8064 40.9012 85.7045 41.4768 85.7045C42.0525 85.7045 42.1698 84.8064 42.1698 80.3916C42.1698 75.9767 42.0525 75.0786 41.4768 75.0786C40.9012 75.0786 40.7838 75.9767 40.7838 80.3916ZM65.2695 80.7612C65.2695 84.5648 65.0861 86.6271 64.7152 86.9981C63.9963 87.717 60.0749 87.717 59.356 86.9981C59.0261 86.6682 58.8016 85.078 58.8016 83.0711C58.8016 80.3814 58.6612 79.6986 58.1086 79.6986C57.5561 79.6986 57.4156 80.3814 57.4156 83.0711C57.4156 85.078 57.1911 86.6682 56.8612 86.9981C56.5314 87.328 54.9412 87.5525 52.9343 87.5525C50.2446 87.5525 49.5617 87.6929 49.5617 88.2455C49.5617 88.7952 50.2265 88.9385 52.774 88.9385C54.5406 88.9385 56.5212 88.6945 57.1754 88.3965C58.0851 87.9821 58.4921 87.9821 58.9065 88.3965C59.7113 89.2013 64.3442 89.0831 65.2825 88.2339C65.9801 87.6024 66.1219 87.6024 66.6458 88.2339C67.5416 89.3131 74.9714 89.2295 76.3352 88.1254C77.6071 87.0956 78.0848 83.9485 77.2689 81.9785C76.5524 80.2493 75.2653 79.6986 71.9384 79.6986C70.0147 79.6986 69.4275 79.8607 69.4275 80.3916C69.4275 80.9298 70.0396 81.0846 72.1667 81.0846C75.3997 81.0846 76.3574 81.7854 76.3574 84.1508C76.3574 87.2023 75.8658 87.5525 71.5827 87.5525C69.2288 87.5525 67.5518 87.34 67.2099 86.9981C66.8389 86.6271 66.6555 84.5648 66.6555 80.7612C66.6555 76.0179 66.541 75.0786 65.9625 75.0786C65.3841 75.0786 65.2695 76.0179 65.2695 80.7612ZM69.4275 75.7716C69.4275 76.3297 70.1464 76.4646 73.1235 76.4646C76.1005 76.4646 76.8194 76.3297 76.8194 75.7716C76.8194 75.2135 76.1005 75.0786 73.1235 75.0786C70.1464 75.0786 69.4275 75.2135 69.4275 75.7716ZM69.4275 78.0816C69.4275 78.6397 70.1464 78.7746 73.1235 78.7746C76.1005 78.7746 76.8194 78.6397 76.8194 78.0816C76.8194 77.5235 76.1005 77.3886 73.1235 77.3886C70.1464 77.3886 69.4275 77.5235 69.4275 78.0816ZM27.2174 80.6563C26.1543 81.4925 26 81.9503 26 84.2714C26 86.4525 26.1917 87.1099 27.0691 87.9341C28.0124 88.8197 28.6569 88.9385 32.5326 88.9385C36.5284 88.9385 37.0176 88.8414 37.9315 87.8694C38.7829 86.963 38.9358 86.2589 38.9358 83.2495C38.9358 80.4013 38.7986 79.6986 38.2429 79.6986C37.6852 79.6986 37.5499 80.4119 37.5499 83.3451C37.5499 87.656 37.6806 87.5525 32.2254 87.5525C27.7463 87.5525 26.9134 86.956 27.2409 83.9836C27.5112 81.5313 28.0762 81.0846 30.9073 81.0846C32.808 81.0846 33.3919 80.9215 33.3919 80.3916C33.3919 79.2537 28.747 79.4528 27.2174 80.6563ZM47.4315 80.1412C46.2201 80.6429 45.8177 81.6085 45.6103 84.5089C45.4223 87.1298 44.9778 87.5358 42.2853 87.5456C40.8513 87.5506 40.3218 87.7391 40.3218 88.2455C40.3218 88.7657 40.8776 88.9385 42.5514 88.9385C45.5147 88.9385 46.7898 87.6708 46.7898 84.7237C46.7898 81.693 47.4037 81.1409 50.9477 80.9852C52.5993 80.9127 53.9507 80.6457 53.9507 80.3916C53.9507 79.8044 48.7283 79.6034 47.4315 80.1412ZM32.2369 83.8565C32.0526 84.155 32.1094 84.6068 32.3635 84.8609C32.6717 85.169 32.9373 85.1423 33.1609 84.7805C33.3453 84.4821 33.2884 84.0302 33.0343 83.7761C32.7262 83.468 32.4605 83.4948 32.2369 83.8565ZM49.7927 83.8565C49.6084 84.155 49.6652 84.6068 49.9193 84.8609C50.2275 85.169 50.4931 85.1423 50.7167 84.7805C50.901 84.4821 50.8442 84.0302 50.5901 83.7761C50.282 83.468 50.0163 83.4948 49.7927 83.8565ZM52.4395 84.4054C52.725 85.2619 53.7197 85.4037 53.7197 84.5879C53.7197 84.1859 53.3903 83.8565 52.9883 83.8565C52.5859 83.8565 52.3388 84.1032 52.4395 84.4054Z" fill="#B3B8BC"/>
<path d="M51.1653 42.2539C50.8169 41.6903 52.5674 40.8601 55.0474 40.4124C56.2232 40.2004 60.9277 40.0849 65.5014 40.1556C76.3759 40.3233 80.3375 41.5318 75.353 43.1608C70.9585 44.5972 52.1784 43.8931 51.1653 42.2539Z" fill="#939699"/>
</svg>
