<svg width="176" height="176" viewBox="0 0 176 176" fill="none" xmlns="http://www.w3.org/2000/svg">
<path d="M71.6923 33.9279C71.6923 32.546 70.5736 31.4163 69.1916 31.4163C67.8097 31.4163 66.6909 32.535 66.6909 33.9279C66.6909 35.3209 67.8097 36.4396 69.1916 36.4396C70.5736 36.4396 71.6923 35.3209 71.6923 33.9279Z" fill="#2341DF" fill-opacity="0.08"/>
<path d="M147.86 78.9408C147.86 74.5536 144.306 71 139.93 71C135.554 71 132 74.5536 132 78.9408C132 83.328 135.554 86.8817 139.93 86.8817C144.306 86.8817 147.86 83.328 147.86 78.9408Z" fill="#2341DF" fill-opacity="0.08"/>
<path d="M77.0117 151.143H100.374" stroke="url(#paint0_linear_253_8786)" stroke-width="0.7" stroke-linecap="round" stroke-linejoin="round"/>
<path d="M71.111 151.143H68.7529" stroke="url(#paint1_linear_253_8786)" stroke-width="0.7" stroke-linecap="round" stroke-linejoin="round"/>
<path d="M62.8522 151.143H31.0449" stroke="url(#paint2_linear_253_8786)" stroke-width="0.7" stroke-linecap="round" stroke-linejoin="round"/>
<path d="M29.4763 112.024C30.5621 103.901 34.8438 96.9767 40.8771 92.357C39.7196 92.019 38.4904 91.8243 37.21 91.8243C30.4699 91.8243 25 96.9767 25 103.338C25 106.913 26.7311 110.119 29.4456 112.229C29.4456 112.157 29.4558 112.086 29.4661 112.014L29.4763 112.024Z" fill="url(#paint3_linear_253_8786)"/>
<path d="M29.6956 112.74V112.271L29.7241 112.057C30.8007 104.003 35.0461 97.1367 41.0291 92.5555L41.421 92.2554L40.9471 92.117C39.7687 91.7729 38.5159 91.5743 37.21 91.5743C30.346 91.5743 24.75 96.8249 24.75 103.338C24.75 106.996 26.5218 110.273 29.2921 112.426L29.6956 112.74Z" stroke="url(#paint4_linear_253_8786)" stroke-opacity="0.1" stroke-width="0.5"/>
<path d="M86.8692 105.663C88.4774 103.717 89.4505 101.269 89.4505 98.6054C89.4505 92.2443 83.9806 87.092 77.2405 87.092C74.9358 87.092 72.7847 87.7066 70.9409 88.7616C78.3775 92.0292 84.1035 98.1957 86.8794 105.673L86.8692 105.663Z" fill="url(#paint5_linear_253_8786)"/>
<path d="M86.9238 105.708L87.0619 105.822C88.7043 103.835 89.7005 101.331 89.7005 98.6054C89.7005 92.0926 84.1046 86.842 77.2405 86.842C74.8908 86.842 72.6971 87.4687 70.8168 88.5446L70.3863 88.791L70.8403 88.9905C78.1643 92.2086 83.8155 98.2627 86.5888 105.61L86.5317 105.679L86.6924 105.84L86.7026 105.85L86.9238 105.708Z" stroke="url(#paint6_linear_253_8786)" stroke-opacity="0.1" stroke-width="0.5"/>
<path d="M95.6683 151.143C95.6683 149.586 95.361 148.039 94.7668 146.605C94.1625 145.171 93.3021 143.86 92.1958 142.754C91.0998 141.658 89.7886 140.777 88.3546 140.183C86.9205 139.578 85.3738 139.281 83.8168 139.281C82.2598 139.281 80.7233 139.589 79.279 140.183C77.845 140.777 76.5338 141.658 75.4378 142.754C74.3418 143.85 73.4609 145.161 72.8667 146.605C72.2624 148.039 71.9653 149.586 71.9653 151.143H95.658H95.6683Z" fill="#2341DF" fill-opacity="0.08"/>
<path d="M46.3059 139.404C46.3059 136.608 44.0421 134.344 41.2457 134.344C38.4493 134.344 36.1855 136.608 36.1855 139.404C36.1855 142.201 38.4493 144.475 41.2457 144.475C44.0421 144.475 46.3059 142.211 46.3059 139.404Z" fill="#2341DF" fill-opacity="0.08"/>
<path opacity="0.8" d="M49.5018 144.198L49.6042 144.219L44.8718 150.201C44.5133 150.662 43.9806 150.959 43.407 151.03L42.649 151.123C42.3212 151.164 41.9832 151.143 41.6657 151.041C41.3481 150.938 41.0613 150.774 40.8155 150.539C40.5696 150.313 40.3853 150.037 40.2623 149.73C40.1394 149.422 40.0882 149.084 40.0984 148.756L40.6516 139.404C43.3148 141.494 46.3161 143.112 49.512 144.188L49.5018 144.198Z" fill="#2341DF"/>
<path opacity="0.8" d="M82.5876 133.986L85.4864 142.887C85.5889 143.205 85.6196 143.543 85.5786 143.87C85.5376 144.198 85.4147 144.526 85.2406 144.803C85.0664 145.079 84.8309 145.315 84.544 145.509C84.2675 145.683 83.9397 145.806 83.6119 145.847L82.8539 145.94C82.2905 146.001 81.7169 145.847 81.2559 145.509L75.2329 140.961L75.2534 140.859C78.0703 139.005 80.5594 136.68 82.5876 133.996V133.986Z" fill="#2341DF"/>
<path opacity="0.3" d="M53.2816 86.7744L52.708 81.9908L56.8156 81.4479L57.3892 86.2315C56.6926 86.2315 56.0063 86.2828 55.3098 86.3647C54.6133 86.4569 53.9372 86.5901 53.2714 86.7744H53.2816Z" fill="#2341DF"/>
<path opacity="0.3" d="M59.6017 77.0945L60.0114 80.2699C60.0626 80.6899 59.7656 81.0792 59.3456 81.1304L49.8091 82.3698C49.3891 82.421 48.9999 82.124 48.9487 81.704L48.5389 78.5286C48.4877 78.1086 48.7848 77.7194 49.2048 77.6682L58.7412 76.4287C59.1612 76.3775 59.5505 76.6746 59.6017 77.0945Z" fill="#2341DF"/>
<path opacity="0.3" d="M29.4763 112.024C31.6581 95.7373 46.644 84.3058 62.9308 86.4876C79.2176 88.6797 90.6491 103.655 88.4571 119.942C86.2752 136.229 71.2893 147.66 55.0025 145.479C38.7157 143.287 27.2843 128.311 29.4763 112.024Z" fill="#2341DF"/>
<path d="M62.9308 86.4978C53.0153 85.1662 43.571 88.8948 37.2202 95.6861C43.5096 89.8679 52.2471 86.7949 61.3943 88.0343C77.6811 90.2264 89.1126 105.202 86.9205 121.489C86.0704 127.85 83.2432 133.473 79.1766 137.827C84.0832 133.299 87.4942 127.082 88.457 119.952C90.6389 103.666 79.2176 88.6899 62.9308 86.4978Z" fill="white"/>
<path d="M50.0141 87.6041C54.0602 86.3237 58.4443 85.8935 62.9308 86.4978C79.2176 88.6899 90.6491 103.666 88.4571 119.952C86.2752 136.239 71.2893 147.671 55.0025 145.479C38.7157 143.287 27.2843 128.311 29.4763 112.024C30.347 105.591 33.2049 99.9063 37.3636 95.5222" stroke="url(#paint7_linear_253_8786)" stroke-width="0.7" stroke-linecap="round" stroke-linejoin="round"/>
<path d="M41.5942 91.8346C43.2229 90.6566 44.9745 89.6528 46.8081 88.8333" stroke="url(#paint8_linear_253_8786)" stroke-width="0.7" stroke-linecap="round" stroke-linejoin="round"/>
<path d="M39.8423 93.197C39.9959 93.0741 40.1496 92.9307 40.3135 92.8077" stroke="url(#paint9_linear_253_8786)" stroke-width="0.7" stroke-linecap="round" stroke-linejoin="round"/>
<path opacity="0.9" d="M78.9819 131.394C74.8846 136.69 68.8513 140.152 62.2136 141.002C57.2457 141.648 52.206 140.797 47.7297 138.575C43.2431 136.352 39.5248 132.849 37.0357 128.516C34.5466 124.173 33.3993 119.194 33.7476 114.206C34.0959 109.217 35.9089 104.434 38.9614 100.48C42.0139 96.526 46.1829 93.5657 50.9358 91.9678C55.6784 90.3801 60.7898 90.2367 65.6144 91.5478C70.439 92.8589 74.7719 95.5837 78.06 99.3532C81.3481 103.123 83.4274 107.794 84.0625 112.751C84.9025 119.389 83.0792 126.098 78.9921 131.394H78.9819Z" fill="white"/>
<path d="M51.8068 115.64C52.319 111.809 55.8426 109.125 59.6736 109.648C63.5046 110.16 66.1883 113.683 65.6762 117.514C65.164 121.345 61.6403 124.029 57.8093 123.507C53.9784 122.995 51.2946 119.471 51.8068 115.64Z" fill="#2341DF" fill-opacity="0.08"/>
<path opacity="0.3" d="M54.9412 116.06C55.2178 113.96 57.1538 112.495 59.2434 112.782C61.333 113.059 62.8183 114.984 62.5315 117.084C62.2549 119.184 60.3189 120.649 58.2293 120.362C56.1397 120.086 54.6544 118.16 54.9412 116.06Z" fill="#2341DF"/>
<path opacity="0.8" d="M56.8464 116.316C56.9899 115.271 57.9527 114.544 58.9975 114.677C60.0423 114.821 60.7799 115.773 60.6365 116.828C60.493 117.873 59.5302 118.6 58.4854 118.467C57.4406 118.324 56.703 117.371 56.8464 116.316Z" fill="#2341DF"/>
<path d="M78.9819 131.394C74.8846 136.69 68.8513 140.152 62.2136 141.002C57.2457 141.648 52.206 140.797 47.7297 138.575C43.2431 136.352 39.5248 132.849 37.0357 128.516C34.5466 124.173 33.3993 119.194 33.7476 114.206C34.0959 109.217 35.9089 104.434 38.9614 100.48C42.0139 96.526 46.1829 93.5657 50.9358 91.9678C55.6784 90.3801 60.7898 90.2367 65.6144 91.5478C70.439 92.8589 74.7719 95.5837 78.06 99.3532C81.3481 103.123 83.4274 107.794 84.0625 112.751C84.9025 119.389 83.0792 126.098 78.9921 131.394H78.9819ZM70.3058 135.737C72.8974 134.252 75.1816 132.265 77.0049 129.899C78.8282 127.532 80.1701 124.828 80.9588 121.929C81.7373 119.041 81.9422 116.029 81.5632 113.069C80.9896 108.603 79.0945 104.403 76.124 101.013C73.1637 97.6221 69.2508 95.1739 64.9076 94.0062C60.5542 92.8282 55.955 92.9716 51.6836 94.4159C47.4121 95.85 43.6631 98.5235 40.9076 102.098C38.1522 105.663 36.5235 109.975 36.2265 114.472C35.9192 118.969 36.964 123.456 39.2073 127.358C41.4505 131.261 44.8103 134.416 48.8462 136.413C52.8923 138.421 57.43 139.169 61.8961 138.585C64.8666 138.206 67.7245 137.243 70.3161 135.748L70.3058 135.737Z" fill="#2341DF" fill-opacity="0.08"/>
<path d="M35.7657 126.139C37.6607 130.38 40.6927 134.016 44.5237 136.659C40.3342 133.146 37.4046 128.372 36.1652 123.056C34.9257 117.74 35.4379 112.157 37.6299 107.159C39.822 102.15 43.5915 98.001 48.3444 95.3071C53.1075 92.6131 58.5979 91.5478 64.0268 92.2443C68.0115 92.7565 71.822 94.211 75.1203 96.4953C71.6478 93.5657 67.4583 91.6195 62.9615 90.8717C58.475 90.124 53.8758 90.6054 49.6351 92.2546C45.3943 93.9037 41.6863 96.6592 38.8899 100.244C36.0935 103.819 34.3111 108.091 33.7478 112.598C33.1536 117.207 33.8502 121.888 35.7452 126.139H35.7657Z" fill="#4C5098"/>
<path d="M74.3929 102.498C71.7297 99.4454 68.206 97.2431 64.2931 96.188C63.0127 95.8397 61.7015 95.6349 60.3801 95.5324C59.489 95.471 58.7412 96.188 58.7412 97.0689C58.7412 97.8781 59.3661 98.5439 60.165 98.5952C61.2815 98.6669 62.3981 98.8615 63.4838 99.1483C66.8129 100.05 69.7937 101.914 72.0677 104.506C74.3417 107.097 75.786 110.313 76.2162 113.735C76.2777 114.185 76.3084 114.636 76.3289 115.077C76.3596 115.906 77.0357 116.562 77.8654 116.562C78.7463 116.562 79.4531 115.824 79.4121 114.933C79.3916 114.401 79.3404 113.868 79.2687 113.335C78.7463 109.31 77.0459 105.54 74.3827 102.477L74.3929 102.498Z" fill="#2341DF" fill-opacity="0.08"/>
<path d="M69.4252 106.324C69.4252 106.326 69.4276 106.327 69.4292 106.325C69.5923 106.184 69.7854 106.093 69.9886 106.063L72.5634 105.771C73.3578 105.681 73.9313 106.514 73.5642 107.224L72.3855 109.504C72.3036 109.678 72.1499 109.832 71.9758 109.914L59.7965 116.777C59.2946 117.054 58.6698 116.9 58.3522 116.429C58.0347 115.958 58.1371 115.333 58.5776 114.974L69.4213 106.322C69.4229 106.32 69.4252 106.322 69.4252 106.324Z" fill="url(#paint10_linear_253_8786)"/>
<path d="M69.9515 105.815C69.7201 105.85 69.5023 105.947 69.3162 106.094C69.2987 106.103 69.2817 106.113 69.2654 106.126L69.2654 106.126L58.4217 114.779L58.4217 114.779L58.4198 114.78C57.8822 115.218 57.7528 115.987 58.1449 116.568C58.5346 117.147 59.3016 117.335 59.9172 116.996L59.9172 116.996L59.9193 116.995L72.0911 110.136C72.3126 110.029 72.5038 109.837 72.6096 109.615L73.7862 107.339C74.2451 106.451 73.5283 105.41 72.5352 105.523L69.9605 105.814L69.9605 105.814L69.9515 105.815Z" stroke="url(#paint11_linear_253_8786)" stroke-opacity="0.1" stroke-width="0.5"/>
<path d="M76.2268 113.745C76.2883 114.196 76.319 114.646 76.3395 115.087C76.3702 115.917 77.0463 116.572 77.876 116.572C78.7569 116.572 79.4637 115.835 79.4227 114.943C79.4022 114.411 79.351 113.878 79.2793 113.345C79.0437 111.512 78.5418 109.73 77.8452 108.05L75.0488 109.34C75.6225 110.744 76.0322 112.219 76.2268 113.735V113.745Z" fill="#F19E39"/>
<path opacity="0.3" d="M144.147 31.9976L143.708 31.5589C142.765 30.6156 141.493 30.0892 140.176 30.0892H138.729C140.747 30.0892 142.381 31.7234 142.381 33.7525V70.1443C142.381 70.9889 142.019 71.7347 141.46 72.2721L141.504 72.305C141.383 72.3818 140.955 73.018 139.464 73.0618H119.787C119.447 73.0618 119.129 72.9851 118.822 72.8863L121.322 75.4858C122.013 76.1987 122.957 76.6045 123.955 76.6045H142.381C143.39 76.6045 144.289 76.1987 144.948 75.5406C145.617 74.8825 146.033 73.9612 146.033 72.9412V36.1435C146.033 34.5641 145.353 33.0505 144.158 32.0086H144.136L144.147 31.9976Z" fill="#2341DF"/>
<path opacity="0.1" d="M139.453 30.1001H120.237C118.362 30.1001 116.859 31.6247 116.859 33.4892V70.1443C116.859 71.7566 118.164 73.0728 119.776 73.0728H139.453C141.065 73.0728 142.37 71.7566 142.37 70.1443V33.0286C142.37 31.4163 141.065 30.1001 139.453 30.1001Z" fill="#2341DF"/>
<g opacity="0.5">
<path d="M116.848 54.8988L124.427 67.2488C124.569 67.4791 124.833 67.6327 125.118 67.6327H146.012V65.0991L116.837 52.9246V54.8878L116.848 54.8988Z" fill="#2341DF"/>
<path d="M116.848 54.8988L124.427 67.2488C124.569 67.4791 124.833 67.6327 125.118 67.6327H146.012V65.0991L116.837 52.9246V54.8878L116.848 54.8988Z" fill="#4C5098"/>
</g>
<path opacity="0.7" d="M142.37 52.3433H116.848V33.7525C116.848 31.7344 118.482 30.0892 121.849 30.0892H140.067C140.736 30.0892 142.359 31.7234 142.359 33.7525V52.3433H142.37Z" fill="white"/>
<path d="M116.76 31.9976L119.184 30.1001H139.683C141.12 30.1001 142.272 31.2737 142.272 32.6995V52.3432H141.032L140.396 34.9589C140.341 33.5111 139.168 32.3595 137.731 32.3376L116.749 31.9976H116.76Z" fill="white"/>
<path d="M144.147 31.9976C145.343 33.0505 146.023 34.5532 146.023 36.1326V72.9522C146.023 74.9703 144.389 76.6155 142.37 76.6155H124.438C123.122 76.6155 121.86 76.111 120.917 75.1896" stroke="url(#paint12_linear_253_8786)" stroke-width="0.7" stroke-linecap="round" stroke-linejoin="round"/>
<path d="M116.848 35.7267V33.4892C116.848 31.6137 118.361 30.1001 120.226 30.1001H127.377" stroke="url(#paint13_linear_253_8786)" stroke-width="0.7" stroke-linecap="round" stroke-linejoin="round"/>
<g opacity="0.2">
<path d="M127.651 39.8507H131.732C132.137 39.8507 132.466 40.1797 132.466 40.5856V52.3433H126.938V40.5856C126.938 40.1797 127.268 39.8507 127.673 39.8507H127.651Z" fill="#27BEA3"/>
</g>
<path d="M144.191 74.8387L143.281 73.9503" stroke="url(#paint14_linear_253_8786)" stroke-width="0.7" stroke-linecap="round" stroke-linejoin="round"/>
<path d="M142.37 70.1443C142.37 71.7566 141.065 73.0728 139.453 73.0728H119.776C118.164 73.0728 116.859 71.7566 116.859 70.1443V38.688" stroke="url(#paint15_linear_253_8786)" stroke-width="0.7" stroke-linecap="round" stroke-linejoin="round"/>
<path d="M116.848 52.069L126.094 63.728C126.785 64.5945 127.838 65.11 128.945 65.11H150.881C151.496 65.11 151.836 64.408 151.452 63.9254L142.052 52.069H123.056" fill="white"/>
<path d="M139.694 52.069H120.906" stroke="url(#paint16_linear_253_8786)" stroke-width="0.7" stroke-linecap="round" stroke-linejoin="round"/>
<path d="M116.848 52.0691L126.313 64.0023C126.861 64.7042 127.706 65.11 128.594 65.11H150.881C151.496 65.11 151.836 64.4081 151.452 63.9255L143.281 53.5168C142.688 52.76 142.359 51.8168 142.359 50.8406V48.1425" stroke="url(#paint17_linear_253_8786)" stroke-width="0.7" stroke-linecap="round" stroke-linejoin="round"/>
<path d="M132.137 52.069H126.609L132.444 58.7595H137.983L132.137 52.069Z" fill="#27BEA3"/>
<path d="M131.336 30.1001H139.453C141.065 30.1001 142.37 31.4163 142.37 33.0286V43.7991" stroke="url(#paint18_linear_253_8786)" stroke-width="0.7" stroke-linecap="round" stroke-linejoin="round"/>
<path opacity="0.15" d="M129.516 35.9899C130.569 35.9899 131.413 35.1344 131.413 34.0925C131.413 33.0505 130.569 32.195 129.516 32.195C128.463 32.195 127.618 33.0505 127.618 34.0925C127.618 35.1344 128.474 35.9899 129.516 35.9899Z" fill="#2341DF"/>
<path d="M129.516 34.268V28.5865C129.516 26.6013 131.117 25 133.091 25C135.065 25 136.667 26.6013 136.667 28.5865V30.1001" stroke="url(#paint19_linear_253_8786)" stroke-width="0.7" stroke-linecap="round" stroke-linejoin="round"/>
<path opacity="0.3" d="M109.236 31.9976L108.797 31.5589C107.854 30.6156 106.582 30.0892 105.265 30.0892H103.818C105.836 30.0892 107.47 31.7234 107.47 33.7525V70.1443C107.47 70.9889 107.108 71.7347 106.549 72.2721L106.592 72.305C106.472 72.3818 106.044 73.018 104.552 73.0618H84.8758C84.5358 73.0618 84.2177 72.9851 83.9106 72.8863L86.4113 75.4858C87.1023 76.1987 88.0456 76.6045 89.0437 76.6045H107.47C108.468 76.6045 109.378 76.1987 110.036 75.5406C110.705 74.8825 111.122 73.9612 111.122 72.9412V36.1435C111.122 34.5641 110.442 33.0505 109.247 32.0086H109.225L109.236 31.9976Z" fill="#2341DF"/>
<path opacity="0.1" d="M104.541 30.1001H85.3254C83.4499 30.1001 81.9473 31.6247 81.9473 33.4892V70.1443C81.9473 71.7566 83.2634 73.0728 84.8648 73.0728H104.541C106.154 73.0728 107.459 71.7566 107.459 70.1443V33.0286C107.459 31.4163 106.143 30.1001 104.541 30.1001Z" fill="#2341DF"/>
<path opacity="0.7" d="M107.459 52.3433H81.9365V33.7525C81.9365 31.7344 83.5708 30.0892 86.9379 30.0892H105.156C105.825 30.0892 107.448 31.7234 107.448 33.7525V52.3433H107.459Z" fill="white"/>
<path d="M81.9473 31.9976L84.3712 30.1001H104.87C106.307 30.1001 107.47 31.2737 107.47 32.6995V52.3432H106.23L105.594 34.9589C105.539 33.5111 104.366 32.3595 102.929 32.3376L81.9473 31.9976Z" fill="white"/>
<path d="M109.236 31.9976C110.432 33.0505 111.112 34.5532 111.112 36.1326V72.9522C111.112 74.9703 109.477 76.6155 107.459 76.6155H89.5266C88.2214 76.6155 86.9491 76.111 86.0059 75.1896" stroke="url(#paint20_linear_253_8786)" stroke-width="0.7" stroke-linecap="round" stroke-linejoin="round"/>
<path d="M91.9834 52.3213H97.5112V64.079C97.5112 64.4848 97.1822 64.8139 96.7764 64.8139H92.6963C92.2905 64.8139 91.9614 64.4848 91.9614 64.079V52.3213H91.9834Z" fill="#27BEA3"/>
<g opacity="0.2">
<path d="M92.7178 39.8397H96.7979C97.2037 39.8397 97.5328 40.1688 97.5328 40.5746V52.3323H92.0049V40.5746C92.0049 40.1688 92.3339 39.8397 92.7397 39.8397H92.7178Z" fill="#27BEA3"/>
</g>
<path d="M109.291 74.8386L107.47 73.0618" stroke="url(#paint21_linear_253_8786)" stroke-width="0.7" stroke-linecap="round" stroke-linejoin="round"/>
<path d="M96.4363 30.1001H104.553C106.165 30.1001 107.47 31.4163 107.47 33.0286V70.1443C107.47 71.7566 106.165 73.0728 104.553 73.0728H84.876C83.2637 73.0728 81.9585 71.7566 81.9585 70.1443V38.688" stroke="url(#paint22_linear_253_8786)" stroke-width="0.7" stroke-linecap="round" stroke-linejoin="round"/>
<path d="M105.222 52.3433H85.7095" stroke="url(#paint23_linear_253_8786)" stroke-width="0.7" stroke-linecap="round" stroke-linejoin="round"/>
<path d="M96.436 30.1001H104.552C106.165 30.1001 107.47 31.4163 107.47 33.0286V52.3432" stroke="url(#paint24_linear_253_8786)" stroke-width="0.7" stroke-linecap="round" stroke-linejoin="round"/>
<path d="M81.9146 35.7048V33.4673C81.9146 31.5918 83.4281 30.0782 85.2927 30.0782H92.4438" stroke="url(#paint25_linear_253_8786)" stroke-width="0.7" stroke-linecap="round" stroke-linejoin="round"/>
<path d="M94.6045 34.268V28.5865C94.6045 26.6013 96.2058 25 98.1801 25C100.154 25 101.756 26.6013 101.756 28.5865V30.1001" stroke="url(#paint26_linear_253_8786)" stroke-width="0.7" stroke-linecap="round" stroke-linejoin="round"/>
<path opacity="0.15" d="M94.5825 36.1545C95.6355 36.1545 96.48 35.299 96.48 34.257C96.48 33.2151 95.6355 32.3596 94.5825 32.3596C93.5296 32.3596 92.6851 33.2151 92.6851 34.257C92.6851 35.299 93.5296 36.1545 94.5825 36.1545Z" fill="#2341DF"/>
<path opacity="0.05" d="M115.93 127.877L108 115.944L115.93 104L123.871 115.944L115.93 127.877Z" fill="#2341DF"/>
<defs>
<linearGradient id="paint0_linear_253_8786" x1="78.8651" y1="151.652" x2="102.557" y2="151.652" gradientUnits="userSpaceOnUse">
<stop stop-color="#1B217C"/>
<stop offset="1" stop-color="#1B217C" stop-opacity="0"/>
</linearGradient>
<linearGradient id="paint1_linear_253_8786" x1="68.94" y1="151.652" x2="71.3315" y2="151.652" gradientUnits="userSpaceOnUse">
<stop stop-color="#1B217C"/>
<stop offset="1" stop-color="#1B217C" stop-opacity="0"/>
</linearGradient>
<linearGradient id="paint2_linear_253_8786" x1="33.5683" y1="151.652" x2="65.8252" y2="151.652" gradientUnits="userSpaceOnUse">
<stop stop-color="#1B217C"/>
<stop offset="1" stop-color="#1B217C" stop-opacity="0"/>
</linearGradient>
<linearGradient id="paint3_linear_253_8786" x1="44.7391" y1="113.636" x2="25.6015" y2="111.42" gradientUnits="userSpaceOnUse">
<stop stop-color="#4979E6"/>
<stop offset="1" stop-color="#4979E6" stop-opacity="0.43"/>
</linearGradient>
<linearGradient id="paint4_linear_253_8786" x1="43.1452" y1="102.406" x2="18.3721" y2="101.833" gradientUnits="userSpaceOnUse">
<stop stop-color="white"/>
<stop offset="1" stop-color="white" stop-opacity="0"/>
</linearGradient>
<linearGradient id="paint5_linear_253_8786" x1="93.9528" y1="106.955" x2="71.8292" y2="103.675" gradientUnits="userSpaceOnUse">
<stop stop-color="#4979E6"/>
<stop offset="1" stop-color="#4979E6" stop-opacity="0.43"/>
</linearGradient>
<linearGradient id="paint6_linear_253_8786" x1="92.0947" y1="96.7279" x2="63.2239" y2="95.8726" gradientUnits="userSpaceOnUse">
<stop stop-color="white"/>
<stop offset="1" stop-color="white" stop-opacity="0"/>
</linearGradient>
<linearGradient id="paint7_linear_253_8786" x1="33.9289" y1="116.537" x2="94.2896" y2="116.537" gradientUnits="userSpaceOnUse">
<stop stop-color="#1B217C"/>
<stop offset="1" stop-color="#1B217C" stop-opacity="0"/>
</linearGradient>
<linearGradient id="paint8_linear_253_8786" x1="42.0079" y1="90.3616" x2="47.2954" y2="90.3616" gradientUnits="userSpaceOnUse">
<stop stop-color="#1B217C"/>
<stop offset="1" stop-color="#1B217C" stop-opacity="0"/>
</linearGradient>
<linearGradient id="paint9_linear_253_8786" x1="39.8797" y1="93.0059" x2="40.3575" y2="93.0059" gradientUnits="userSpaceOnUse">
<stop stop-color="#1B217C"/>
<stop offset="1" stop-color="#1B217C" stop-opacity="0"/>
</linearGradient>
<linearGradient id="paint10_linear_253_8786" x1="70.9706" y1="115.988" x2="70.9706" y2="104.494" gradientUnits="userSpaceOnUse">
<stop stop-color="#3A6EE3"/>
<stop offset="1" stop-color="#4979E6" stop-opacity="0.7"/>
</linearGradient>
<linearGradient id="paint11_linear_253_8786" x1="76.7463" y1="111.448" x2="51.4135" y2="110.37" gradientUnits="userSpaceOnUse">
<stop stop-color="white"/>
<stop offset="1" stop-color="white" stop-opacity="0"/>
</linearGradient>
<linearGradient id="paint12_linear_253_8786" x1="105.214" y1="45.4649" x2="148.544" y2="53.8108" gradientUnits="userSpaceOnUse">
<stop stop-color="#1B217C"/>
<stop offset="1" stop-color="#1B217C" stop-opacity="0"/>
</linearGradient>
<linearGradient id="paint13_linear_253_8786" x1="110.262" y1="31.7984" x2="123.625" y2="40.3586" gradientUnits="userSpaceOnUse">
<stop stop-color="#1B217C"/>
<stop offset="1" stop-color="#1B217C" stop-opacity="0"/>
</linearGradient>
<linearGradient id="paint14_linear_253_8786" x1="142.711" y1="74.2184" x2="144.162" y2="74.7273" gradientUnits="userSpaceOnUse">
<stop stop-color="#1B217C"/>
<stop offset="1" stop-color="#1B217C" stop-opacity="0"/>
</linearGradient>
<linearGradient id="paint15_linear_253_8786" x1="100.902" y1="49.0666" x2="143.799" y2="59.9613" gradientUnits="userSpaceOnUse">
<stop stop-color="#1B217C"/>
<stop offset="1" stop-color="#1B217C" stop-opacity="0"/>
</linearGradient>
<linearGradient id="paint16_linear_253_8786" x1="109.154" y1="52.3709" x2="109.948" y2="57.4765" gradientUnits="userSpaceOnUse">
<stop stop-color="#1B217C"/>
<stop offset="1" stop-color="#1B217C" stop-opacity="0"/>
</linearGradient>
<linearGradient id="paint17_linear_253_8786" x1="95.1019" y1="53.2639" x2="136.812" y2="82.5191" gradientUnits="userSpaceOnUse">
<stop stop-color="#1B217C"/>
<stop offset="1" stop-color="#1B217C" stop-opacity="0"/>
</linearGradient>
<linearGradient id="paint18_linear_253_8786" x1="124.435" y1="34.235" x2="142.79" y2="39.2955" gradientUnits="userSpaceOnUse">
<stop stop-color="#1B217C"/>
<stop offset="1" stop-color="#1B217C" stop-opacity="0"/>
</linearGradient>
<linearGradient id="paint19_linear_253_8786" x1="125.043" y1="27.7974" x2="137.008" y2="30.9577" gradientUnits="userSpaceOnUse">
<stop stop-color="#1B217C"/>
<stop offset="1" stop-color="#1B217C" stop-opacity="0"/>
</linearGradient>
<linearGradient id="paint20_linear_253_8786" x1="70.3027" y1="45.4649" x2="113.633" y2="53.8108" gradientUnits="userSpaceOnUse">
<stop stop-color="#1B217C"/>
<stop offset="1" stop-color="#1B217C" stop-opacity="0"/>
</linearGradient>
<linearGradient id="paint21_linear_253_8786" x1="106.331" y1="73.5981" x2="109.233" y2="74.616" gradientUnits="userSpaceOnUse">
<stop stop-color="#1B217C"/>
<stop offset="1" stop-color="#1B217C" stop-opacity="0"/>
</linearGradient>
<linearGradient id="paint22_linear_253_8786" x1="66.0015" y1="43.0708" x2="109.855" y2="51.9825" gradientUnits="userSpaceOnUse">
<stop stop-color="#1B217C"/>
<stop offset="1" stop-color="#1B217C" stop-opacity="0"/>
</linearGradient>
<linearGradient id="paint23_linear_253_8786" x1="73.505" y1="52.6451" x2="74.2708" y2="57.7595" gradientUnits="userSpaceOnUse">
<stop stop-color="#1B217C"/>
<stop offset="1" stop-color="#1B217C" stop-opacity="0"/>
</linearGradient>
<linearGradient id="paint24_linear_253_8786" x1="97.3114" y1="41.4267" x2="108.501" y2="41.4267" gradientUnits="userSpaceOnUse">
<stop stop-color="#1B217C"/>
<stop offset="1" stop-color="#1B217C" stop-opacity="0"/>
</linearGradient>
<linearGradient id="paint25_linear_253_8786" x1="75.3287" y1="31.7765" x2="88.692" y2="40.3367" gradientUnits="userSpaceOnUse">
<stop stop-color="#1B217C"/>
<stop offset="1" stop-color="#1B217C" stop-opacity="0"/>
</linearGradient>
<linearGradient id="paint26_linear_253_8786" x1="90.1316" y1="27.7974" x2="102.097" y2="30.9577" gradientUnits="userSpaceOnUse">
<stop stop-color="#1B217C"/>
<stop offset="1" stop-color="#1B217C" stop-opacity="0"/>
</linearGradient>
</defs>
</svg>
