<svg width="104" height="104" viewBox="0 0 104 104" fill="none" xmlns="http://www.w3.org/2000/svg">
<path d="M88.9258 89.0752C86.5974 88.5027 86.2539 87.6629 86.2539 82.739C86.2539 80.3344 86.4066 78.3877 86.5593 78.3877C86.7501 78.3877 87.2082 78.6167 87.628 78.9221C88.2387 79.3801 88.3914 80.0672 88.5441 83.0444L88.7349 86.5942L92.9718 86.7087C96.6361 86.785 97.2468 86.7087 97.4758 86.1743C97.972 84.9147 97.0178 84.4948 93.468 84.4948C91.6358 84.4948 89.9945 84.304 89.88 84.1132C89.4602 83.4643 90.109 80.2962 90.8343 79.4183C91.445 78.6549 91.9412 78.5785 95.7582 78.464C98.3537 78.3877 99.995 78.464 99.995 78.6931C99.995 78.8839 99.6896 79.4183 99.3461 79.8763C98.7736 80.5252 98.1629 80.6779 95.6055 80.7542C93.0481 80.8687 92.5519 80.9832 92.4374 81.5558C92.3229 82.1283 92.6282 82.2047 94.8039 82.2047C96.178 82.2047 97.7048 82.3955 98.201 82.6245C99.1934 83.0826 99.995 84.4185 99.995 85.6781C99.995 86.785 99.0026 88.5408 98.201 88.8844C97.1323 89.3042 90.4144 89.4569 88.9258 89.0752Z" fill="#B3B8BC"/>
<path d="M6.55604 87.7774L5.14376 86.4797L5.02925 82.4337C4.95291 80.2198 5.02925 78.3877 5.2201 78.3877C5.41095 78.3877 5.94533 78.6549 6.40336 78.9984C7.12859 79.4946 7.2431 79.9145 7.2431 82.4337C7.2431 85.6018 7.93015 86.785 9.72413 86.785C11.6326 86.785 12.2052 85.6399 12.2052 81.823C12.2052 79.9527 12.3197 78.3877 12.5105 78.3877C13.3884 78.3877 14.4953 79.6855 14.4953 80.6779C14.4953 82.7772 14.7244 82.9681 17.5871 82.9681C19.0375 82.9681 20.2208 83.0826 20.2208 83.2734C20.2208 83.4261 19.9536 83.9605 19.6101 84.4185C19.1139 85.1056 18.6558 85.2582 16.8619 85.2582C14.7625 85.2582 14.648 85.3346 13.9991 86.5178C13.1212 88.1591 11.5181 89.0752 9.57145 89.0752C8.31185 89.0752 7.70113 88.808 6.55604 87.7774Z" fill="#B3B8BC"/>
<path d="M14.8777 88.3499C14.6105 87.7774 14.6487 87.472 15.1067 87.014C15.7938 86.2888 16.0991 86.2506 16.6717 86.8231C16.977 87.1285 17.3206 87.1285 17.7786 86.8613C18.6947 86.3269 19.8398 86.9376 19.8398 87.9682C19.8398 88.9225 18.8092 89.3423 17.8931 88.7698C17.4732 88.5026 17.1297 88.4644 16.977 88.6935C16.5953 89.3423 15.2976 89.1133 14.8777 88.3499Z" fill="#B3B8BC"/>
<path d="M25.5656 87.1667V85.2582H24.2678C23.5426 85.2582 22.5501 84.9147 21.9776 84.4566C20.6035 83.3497 20.5653 80.6778 21.9394 79.3419C23.9624 77.3189 27.8557 78.922 27.8557 81.7848C27.8557 82.8917 27.9321 82.968 29.3825 82.968C30.4131 82.968 31.1765 83.2352 31.6727 83.7314C32.8941 84.9528 32.5888 85.2582 30.1459 85.2582H27.8557V86.7087C27.8557 88.2736 27.3214 89.0752 26.2526 89.0752C25.6801 89.0752 25.5656 88.7316 25.5656 87.1667ZM25.4892 81.9374C25.3747 80.716 23.8097 80.1816 23.428 81.2122C23.0464 82.2046 23.5807 82.968 24.6113 82.968C25.4892 82.968 25.6037 82.8153 25.4892 81.9374Z" fill="#B3B8BC"/>
<path d="M36.1759 88.1973C34.6109 86.8995 34.3438 85.9835 34.3438 82.052C34.3438 78.235 34.5346 77.8151 35.8705 79.1511C36.4813 79.7618 36.6339 80.4107 36.6339 82.7009C36.6339 85.9071 37.2065 86.785 39.2295 86.785C41.0616 86.785 41.596 85.6781 41.596 81.7466C41.596 79.8763 41.7105 78.3877 41.9014 78.3877C42.054 78.3877 42.5884 78.6549 43.0846 78.9984C43.9243 79.6091 43.9625 79.8381 43.8098 83.0444C43.6953 86.4415 43.6953 86.4797 42.283 87.7774C41.0616 88.8844 40.5654 89.0752 39.0386 89.0752C37.7027 89.0752 36.9393 88.8462 36.1759 88.1973Z" fill="#B3B8BC"/>
<path d="M45.4121 83.7315C45.4121 80.4107 45.5648 78.3877 45.7938 78.3877C46.0228 78.3877 46.519 78.7312 46.9389 79.1511C47.5878 79.8 47.7023 80.4107 47.7023 83.8841C47.7023 87.9683 47.3206 89.0752 45.9465 89.0752C45.5266 89.0752 45.4121 88.121 45.4121 83.7315Z" fill="#B3B8BC"/>
<path d="M49.2305 84.3803C49.2305 78.7312 49.4213 78.3877 52.7039 78.3877C54.8796 78.3877 56.4827 79.1129 56.4827 80.1435C56.4827 80.5634 55.9102 80.6779 54.0399 80.6779H51.597L51.4443 84.2658C51.2916 87.8538 50.8718 89.0752 49.7648 89.0752C49.345 89.0752 49.2305 88.121 49.2305 84.3803Z" fill="#B3B8BC"/>
<path d="M52.7797 88.4645C52.6652 88.121 52.7034 87.5484 52.9324 87.2049C53.1996 86.785 53.1996 86.4033 52.9324 85.9835C52.3598 85.0674 52.8942 84.1132 53.963 84.1132C55.0699 84.1132 55.5661 85.1437 54.8027 85.9835C54.3447 86.5179 54.3447 86.6705 54.8027 87.0904C55.2226 87.4721 55.2607 87.7775 54.9554 88.3118C54.4592 89.2279 53.1232 89.3042 52.7797 88.4645Z" fill="#B3B8BC"/>
<path d="M58.0098 83.7315C58.0098 80.7924 58.1624 78.3877 58.3151 78.3877C58.506 78.3877 58.964 78.6167 59.3839 78.9221C59.9946 79.3801 60.1473 80.029 60.2236 83.3116C60.3381 86.4033 60.2618 87.3957 59.7656 88.121C59.422 88.6553 58.8877 89.0752 58.5823 89.0752C58.0861 89.0752 58.0098 88.1973 58.0098 83.7315Z" fill="#B3B8BC"/>
<path d="M63.7733 88.0828C63.1244 87.5484 62.4373 86.4797 62.2083 85.7163C61.7503 84.075 61.6739 78.3877 62.132 78.3877C62.2846 78.3877 62.819 78.6549 63.277 78.9984C63.9641 79.4946 64.1168 79.9527 64.1168 81.823C64.1168 84.1513 64.613 85.9835 65.3764 86.4797C66.1398 86.9759 67.8574 86.8232 68.4681 86.1743C68.9262 85.7163 69.0788 84.762 69.0788 82.2047C69.0788 78.8076 69.3079 78.1968 70.3384 78.6167C71.1782 78.9221 71.7507 80.5252 71.7507 82.51C71.7507 86.8232 70.0331 89.0752 66.7887 89.0752C65.3764 89.0752 64.6893 88.8462 63.7733 88.0828Z" fill="#B3B8BC"/>
<path d="M77.8581 87.1667V85.2582H76.4458C74.0793 85.22 72.6288 83.5024 73.0487 81.2122C73.6594 78.0441 78.0489 77.3952 79.5757 80.2579C79.881 80.9068 80.1482 81.7466 80.1482 82.2046C80.1482 82.8153 80.3773 82.968 81.4078 82.968C82.8201 82.968 84.3469 83.8841 84.3469 84.7238C84.3469 85.1055 83.8125 85.2582 82.2476 85.2582H80.1482V86.5178C80.1482 87.2812 79.8429 88.0827 79.4612 88.4263C78.2397 89.5332 77.8581 89.2278 77.8581 87.1667ZM77.7817 82.1664C77.5909 80.945 76.4839 80.3343 75.7587 81.0977C74.8808 81.9756 75.4152 82.968 76.7893 82.968C77.7054 82.968 77.8962 82.8153 77.7817 82.1664Z" fill="#B3B8BC"/>
<path d="M8.77026 80.487C8.38856 80.029 8.35039 79.6854 8.61758 79.2274C9.19013 78.3877 9.64816 78.3113 10.4879 78.922C11.0986 79.3801 11.175 79.6091 10.8314 80.1816C10.2589 81.0977 9.38098 81.2122 8.77026 80.487Z" fill="#B3B8BC"/>
<path d="M29.839 80.6015C28.6939 79.4564 29.8772 77.8151 31.2131 78.6548C32.091 79.1892 32.1674 79.7617 31.4803 80.4488C30.7169 81.174 30.4497 81.2122 29.839 80.6015Z" fill="#B3B8BC"/>
<path d="M37.8938 80.4488C37.6648 79.8 38.1228 78.7312 38.7717 78.5022C38.9625 78.4258 39.4969 78.6167 39.8786 78.9221C40.4893 79.3801 40.5657 79.6091 40.2221 80.1817C39.6496 81.0977 38.2373 81.2886 37.8938 80.4488Z" fill="#B3B8BC"/>
<path d="M65.911 80.8305C65.4148 80.3343 65.6438 78.8457 66.2545 78.6166C67.0943 78.2731 68.0104 79.1129 67.8577 80.0671C67.7432 80.8687 66.4454 81.3649 65.911 80.8305Z" fill="#B3B8BC"/>
<path d="M82.1316 80.716C81.8263 80.5633 81.6736 79.9908 81.7499 79.4946C81.8263 78.8075 82.0935 78.5785 82.8187 78.5785C83.8874 78.5785 84.3073 79.6091 83.5821 80.487C83.0477 81.1359 82.8187 81.174 82.1316 80.716Z" fill="#B3B8BC"/>
<path d="M60.4334 70.2917C58.5414 69.4508 51.1834 69.1355 45.9803 69.661L43.3525 69.9238V67.5587V65.1937L46.7687 64.3002C48.6607 63.8272 51.1309 63.4068 52.2871 63.3542C54.0215 63.3542 54.2317 63.2491 53.4434 62.7761C52.8653 62.4607 50.2374 62.3031 46.9789 62.4082L41.513 62.5659V61.1994C41.513 58.9394 42.5641 58.1511 46.5059 57.573C48.5556 57.3102 51.3937 57.0474 52.8127 56.9948L55.4405 56.8897L52.8127 56.5218C51.3937 56.2591 48.6082 56.0488 46.6636 56.0488C43.5102 55.9963 43.0897 55.8912 43.0897 54.9977C43.0897 52.1071 43.9306 51.3713 48.9761 49.742L53.8638 48.1653H47.7147L41.513 48.1128V46.0105C41.513 44.7491 41.7758 43.9082 42.1437 43.9082C42.459 43.9082 42.3539 43.5929 41.8283 43.225C40.4093 42.1738 40.8823 39.5986 42.7218 38.7577C44.9292 37.7065 58.5414 37.2861 61.2218 38.2321C63.2189 38.8628 63.324 39.0204 63.324 41.0176V43.1199L59.9604 43.5403C56.4917 43.9608 53.8113 44.9068 56.0187 44.9594C58.0158 44.9594 62.5883 46.5886 62.9036 47.377C63.0613 47.7974 62.9036 48.8486 62.5357 49.6895C61.9576 51.1085 61.6422 51.2662 59.4349 51.3187C54.3368 51.4238 54.1792 52.002 58.8042 53.3159C63.5868 54.6823 64.638 55.7335 63.6394 57.9409C63.324 58.6241 62.5882 59.3599 61.9576 59.6227C60.8539 59.9906 60.9064 60.0431 62.4831 60.6738C64.3752 61.4622 64.5329 62.198 63.1664 63.9323C62.2729 64.9835 61.7473 65.0886 58.5414 65.036C56.5442 64.9835 53.9689 65.1411 52.8127 65.3514C50.763 65.7718 50.8155 65.7718 54.442 66.1397C60.2232 66.7178 63.0613 67.8741 63.0613 69.7136C63.0613 71.08 62.5357 71.1852 60.4334 70.2917Z" fill="#B3B8BC"/>
<circle cx="52.8265" cy="24.723" r="9.723" fill="#939699"/>
</svg>
