<svg width="56" height="56" viewBox="0 0 56 56" fill="none" xmlns="http://www.w3.org/2000/svg">
<path d="M4.09074 13.8152C4.05245 13.2619 4.47181 12.7815 5.02531 12.7447L37.1691 10.6057C37.7229 10.5689 38.1993 10.9902 38.2302 11.5444L40.3332 49.2292C40.3641 49.7826 39.939 50.2572 39.3855 50.2872L7.71782 52.0041C7.17353 52.0336 6.70743 51.6217 6.66979 51.0779L4.09074 13.8152Z" fill="url(#paint0_linear_717_8480)"/>
<path d="M4.12112 12.2591C4.08503 11.7086 4.5016 11.2312 5.05201 11.1924L12.5331 10.665L37.2691 9.32396C37.8202 9.29408 38.2897 9.71641 38.3181 10.2676L40.3299 49.2321C40.3584 49.784 39.9339 50.256 39.382 50.2859L7.71375 52.0028C7.16805 52.0324 6.70122 51.6184 6.66548 51.0731L4.12112 12.2591Z" stroke="url(#paint1_linear_717_8480)" stroke-width="0.5" stroke-linecap="round" stroke-linejoin="round"/>
<path d="M11.2773 4C11.2773 3.44772 11.7251 3 12.2773 3H46.6665C47.2188 3 47.6665 3.44772 47.6665 4V46.9201C47.6665 47.4724 47.2188 47.9201 46.6665 47.9201H12.2773C11.7251 47.9201 11.2773 47.4724 11.2773 46.9201V4Z" fill="#E5F4FF"/>
<g style="mix-blend-mode:overlay">
<path d="M11.2773 3H47.6665V47.9201H11.2773V3Z" fill="url(#paint2_linear_717_8480)"/>
</g>
<path d="M12.2773 3C11.7251 3 11.2773 3.44772 11.2773 4V46.9201C11.2773 47.4724 11.7251 47.9201 12.2773 47.9201H13.3567V7.08935C13.3567 5.98478 14.2521 5.08936 15.3567 5.08936H47.6665V4C47.6665 3.44772 47.2188 3 46.6665 3H12.2773Z" fill="white"/>
<g style="mix-blend-mode:overlay" filter="url(#filter0_d_717_8480)">
<ellipse cx="23.2333" cy="34.8621" rx="4.67861" ry="4.70095" fill="black"/>
</g>
<path d="M12.2773 47.9201H46.6665C47.2188 47.9201 47.6665 47.4724 47.6665 46.9201V25.4601V14.23V4C47.6665 3.44772 47.2188 3 46.6665 3H43.1179H38.5692H29.4719H12.2773C11.7251 3 11.2773 3.44772 11.2773 4V46.9201C11.2773 47.4724 11.7251 47.9201 12.2773 47.9201Z" stroke="url(#paint3_linear_717_8480)" stroke-width="0.5" stroke-linecap="round" stroke-linejoin="round"/>
<g style="mix-blend-mode:overlay" filter="url(#filter1_d_717_8480)">
<path fill-rule="evenodd" clip-rule="evenodd" d="M16.9961 11.3573C16.9961 11.0688 17.2288 10.835 17.5159 10.835H34.151C34.4381 10.835 34.6708 11.0688 34.6708 11.3573C34.6708 11.6458 34.4381 11.8796 34.151 11.8796H17.5159C17.2288 11.8796 16.9961 11.6458 16.9961 11.3573ZM16.9961 14.4913C16.9961 14.2028 17.2288 13.9689 17.5159 13.9689H27.9128C28.1999 13.9689 28.4327 14.2028 28.4327 14.4913C28.4327 14.7797 28.1999 15.0136 27.9128 15.0136H17.5159C17.2288 15.0136 16.9961 14.7797 16.9961 14.4913ZM20.1152 17.6252C20.1152 17.3367 20.3479 17.1029 20.635 17.1029H24.7938C25.0809 17.1029 25.3136 17.3367 25.3136 17.6252C25.3136 17.9137 25.0809 18.1475 24.7938 18.1475H20.635C20.3479 18.1475 20.1152 17.9137 20.1152 17.6252Z" fill="black"/>
</g>
<g filter="url(#filter2_d_717_8480)">
<path fill-rule="evenodd" clip-rule="evenodd" d="M25.1637 37.3891C25.0997 36.8516 24.4539 36.647 24.1129 37.0564L20.7006 41.153C19.3354 42.7921 16.7813 42.3107 16.0555 40.2774C15.8857 39.8017 16.1187 39.2728 16.5759 39.0961C17.0331 38.9194 17.5414 39.1618 17.7112 39.6375C17.9697 40.3619 18.8796 40.5334 19.3659 39.9495L22.7782 35.8528C24.121 34.2407 26.6645 35.0462 26.9165 37.1633L27.386 41.1092C27.3883 41.1287 27.3933 41.1352 27.3954 41.1379C27.3995 41.1432 27.4079 41.1507 27.4211 41.1561C27.4343 41.1614 27.4453 41.1617 27.4518 41.1607C27.4551 41.1602 27.463 41.159 27.4774 41.1462L28.8008 39.9743C30.9023 38.1134 34.1261 38.8122 35.3386 41.3914C35.5529 41.8473 35.3714 42.3976 34.9333 42.6206C34.4952 42.8436 33.9663 42.6548 33.752 42.1989C33.046 40.6972 31.169 40.2903 29.9455 41.3738L28.6221 42.5457C27.5178 43.5236 25.8114 42.8324 25.6332 41.335L25.1637 37.3891Z" fill="#FFBB00"/>
</g>
<path d="M35.523 29.7087C35.1222 29.8886 34.6518 29.7854 34.3636 29.4544L30.383 24.8809C30.2091 24.6812 30.1217 24.4202 30.1398 24.1554L30.7225 15.6347C30.7773 14.8329 31.7043 14.4171 32.335 14.9114L39.0357 20.1628C39.2439 20.326 39.3788 20.5655 39.4108 20.8287L40.1445 26.8598C40.1976 27.2963 39.9603 27.7172 39.5594 27.8971L35.523 29.7087Z" fill="url(#paint4_linear_717_8480)" stroke="url(#paint5_linear_717_8480)" stroke-opacity="0.4" stroke-width="0.5" stroke-linejoin="round"/>
<path d="M42.4702 29.5396C42.3998 29.8462 42.1898 30.1021 41.9033 30.2307L35.6866 33.0209C35.4001 33.1495 35.0703 33.1359 34.7961 32.984L34.2008 32.6545C33.8113 32.4388 33.6119 31.9903 33.712 31.5549L33.8649 30.8895C33.9354 30.583 34.1453 30.3271 34.4318 30.1985L40.6486 27.4082C40.9351 27.2797 41.2648 27.2933 41.5391 27.4452L42.1344 27.7747C42.5239 27.9904 42.7233 28.4389 42.6232 28.8743L42.4702 29.5396Z" fill="url(#paint6_linear_717_8480)" stroke="url(#paint7_linear_717_8480)" stroke-opacity="0.4" stroke-width="0.5" stroke-linejoin="round"/>
<path d="M38.7979 31.6245L37.9119 32.0222C37.3876 32.2575 37.1675 32.8859 37.4304 33.3968L46.2475 50.5276C46.4593 50.9391 46.9551 51.1127 47.3774 50.9231C47.7998 50.7335 48.0019 50.2467 47.8382 49.8136L41.0203 31.7854C40.817 31.2478 40.2043 30.9933 39.6801 31.2286L38.7979 31.6245Z" fill="url(#paint8_linear_717_8480)" stroke="url(#paint9_linear_717_8480)" stroke-opacity="0.4" stroke-width="0.5" stroke-linejoin="round"/>
<g style="mix-blend-mode:overlay">
<path d="M42.3576 30.0266L35.2309 33.2253L33.5422 32.2904L33.9761 30.4028L41.1028 27.2042L42.7915 28.139L42.3576 30.0266Z" fill="url(#paint10_linear_717_8480)"/>
</g>
<g style="mix-blend-mode:overlay">
<path d="M38.7979 31.6245L36.946 32.4557L46.6249 51.2608L47.3774 50.9231L48.13 50.5853L40.6458 30.7952L38.7979 31.6245Z" fill="url(#paint11_linear_717_8480)"/>
</g>
<path d="M35.5708 24.3118C36.3679 23.954 36.7219 23.0067 36.3615 22.1958C36.001 21.385 35.0625 21.0177 34.2654 21.3755C33.4682 21.7333 33.1142 22.6806 33.4747 23.4915C33.8352 24.3023 34.7736 24.6696 35.5708 24.3118Z" fill="#EBF5FF" stroke="url(#paint12_linear_717_8480)" stroke-opacity="0.4" stroke-width="0.5" stroke-linejoin="round"/>
<path d="M31.196 14.9132L33.9711 21.0142" stroke="url(#paint13_linear_717_8480)" stroke-opacity="0.4" stroke-width="0.5" stroke-linecap="round" stroke-linejoin="round"/>
<defs>
<filter id="filter0_d_717_8480" x="16.5547" y="29.1611" width="13.3572" height="13.4019" filterUnits="userSpaceOnUse" color-interpolation-filters="sRGB">
<feFlood flood-opacity="0" result="BackgroundImageFix"/>
<feColorMatrix in="SourceAlpha" type="matrix" values="0 0 0 0 0 0 0 0 0 0 0 0 0 0 0 0 0 0 127 0" result="hardAlpha"/>
<feOffset dy="1"/>
<feGaussianBlur stdDeviation="1"/>
<feComposite in2="hardAlpha" operator="out"/>
<feColorMatrix type="matrix" values="0 0 0 0 0 0 0 0 0 0.4 0 0 0 0 1 0 0 0 0.2 0"/>
<feBlend mode="normal" in2="BackgroundImageFix" result="effect1_dropShadow_717_8480"/>
<feBlend mode="normal" in="SourceGraphic" in2="effect1_dropShadow_717_8480" result="shape"/>
</filter>
<filter id="filter1_d_717_8480" x="14.9961" y="9.83496" width="21.6748" height="11.3126" filterUnits="userSpaceOnUse" color-interpolation-filters="sRGB">
<feFlood flood-opacity="0" result="BackgroundImageFix"/>
<feColorMatrix in="SourceAlpha" type="matrix" values="0 0 0 0 0 0 0 0 0 0 0 0 0 0 0 0 0 0 127 0" result="hardAlpha"/>
<feOffset dy="1"/>
<feGaussianBlur stdDeviation="1"/>
<feComposite in2="hardAlpha" operator="out"/>
<feColorMatrix type="matrix" values="0 0 0 0 0 0 0 0 0 0.4 0 0 0 0 1 0 0 0 0.2 0"/>
<feBlend mode="normal" in2="BackgroundImageFix" result="effect1_dropShadow_717_8480"/>
<feBlend mode="normal" in="SourceGraphic" in2="effect1_dropShadow_717_8480" result="shape"/>
</filter>
<filter id="filter2_d_717_8480" x="12" y="32" width="25.4285" height="14" filterUnits="userSpaceOnUse" color-interpolation-filters="sRGB">
<feFlood flood-opacity="0" result="BackgroundImageFix"/>
<feColorMatrix in="SourceAlpha" type="matrix" values="0 0 0 0 0 0 0 0 0 0 0 0 0 0 0 0 0 0 127 0" result="hardAlpha"/>
<feOffset dx="-1"/>
<feGaussianBlur stdDeviation="1.5"/>
<feComposite in2="hardAlpha" operator="out"/>
<feColorMatrix type="matrix" values="0 0 0 0 1 0 0 0 0 0.823529 0 0 0 0 0.341176 0 0 0 0.6 0"/>
<feBlend mode="normal" in2="BackgroundImageFix" result="effect1_dropShadow_717_8480"/>
<feBlend mode="normal" in="SourceGraphic" in2="effect1_dropShadow_717_8480" result="shape"/>
</filter>
<linearGradient id="paint0_linear_717_8480" x1="31.4595" y1="44.0812" x2="2.04272" y2="51.0999" gradientUnits="userSpaceOnUse">
<stop stop-color="#FFBB00"/>
<stop offset="1" stop-color="#FFE18F"/>
</linearGradient>
<linearGradient id="paint1_linear_717_8480" x1="-10.6528" y1="-1.7729" x2="43.1096" y2="53.7205" gradientUnits="userSpaceOnUse">
<stop stop-color="#1B217C"/>
<stop offset="1" stop-color="#1B217C" stop-opacity="0"/>
</linearGradient>
<linearGradient id="paint2_linear_717_8480" x1="55.4995" y1="-1.50002" x2="25.8597" y2="41.008" gradientUnits="userSpaceOnUse">
<stop/>
<stop offset="1" stop-opacity="0"/>
</linearGradient>
<linearGradient id="paint3_linear_717_8480" x1="-6.3974" y1="-5.98403" x2="39.3438" y2="33.419" gradientUnits="userSpaceOnUse">
<stop stop-color="#1B217C"/>
<stop offset="1" stop-color="#1B217C" stop-opacity="0"/>
</linearGradient>
<linearGradient id="paint4_linear_717_8480" x1="41.0412" y1="25.0202" x2="32.2863" y2="28.9124" gradientUnits="userSpaceOnUse">
<stop stop-color="#008FFF"/>
<stop offset="1" stop-color="#33A5FF"/>
</linearGradient>
<linearGradient id="paint5_linear_717_8480" x1="42.3449" y1="26.6469" x2="28.6508" y2="31.5471" gradientUnits="userSpaceOnUse">
<stop stop-color="white"/>
<stop offset="1" stop-color="white" stop-opacity="0"/>
</linearGradient>
<linearGradient id="paint6_linear_717_8480" x1="42.961" y1="29.3413" x2="34.2061" y2="33.2335" gradientUnits="userSpaceOnUse">
<stop stop-color="#008FFF"/>
<stop offset="1" stop-color="#33A5FF"/>
</linearGradient>
<linearGradient id="paint7_linear_717_8480" x1="43.5987" y1="29.4698" x2="30.0764" y2="29.9971" gradientUnits="userSpaceOnUse">
<stop stop-color="white"/>
<stop offset="1" stop-color="white" stop-opacity="0"/>
</linearGradient>
<linearGradient id="paint8_linear_717_8480" x1="48.0524" y1="47.7845" x2="44.5505" y2="49.3414" gradientUnits="userSpaceOnUse">
<stop stop-color="#008FFF"/>
<stop offset="1" stop-color="#33A5FF"/>
</linearGradient>
<linearGradient id="paint9_linear_717_8480" x1="49.297" y1="50.0616" x2="43.9126" y2="52.3062" gradientUnits="userSpaceOnUse">
<stop stop-color="white"/>
<stop offset="1" stop-color="white" stop-opacity="0"/>
</linearGradient>
<linearGradient id="paint10_linear_717_8480" x1="40.9688" y1="27.6044" x2="42.0215" y2="31.8523" gradientUnits="userSpaceOnUse">
<stop/>
<stop offset="1" stop-opacity="0"/>
</linearGradient>
<linearGradient id="paint11_linear_717_8480" x1="40.9791" y1="32.971" x2="34.0097" y2="39.2286" gradientUnits="userSpaceOnUse">
<stop/>
<stop offset="1" stop-opacity="0"/>
</linearGradient>
<linearGradient id="paint12_linear_717_8480" x1="37.07" y1="23.6389" x2="32.7517" y2="24.9708" gradientUnits="userSpaceOnUse">
<stop stop-color="white"/>
<stop offset="1" stop-color="white" stop-opacity="0"/>
</linearGradient>
<linearGradient id="paint13_linear_717_8480" x1="33.5269" y1="20.9718" x2="28.6259" y2="13.6204" gradientUnits="userSpaceOnUse">
<stop stop-color="white"/>
<stop offset="1" stop-color="white" stop-opacity="0"/>
</linearGradient>
</defs>
</svg>
