<svg width="104" height="104" viewBox="0 0 104 104" fill="none" xmlns="http://www.w3.org/2000/svg">
<g clip-path="url(#clip0_3517_195109)">
<path d="M95.8274 49.8393C95.14 46.2948 92.3293 43.5268 88.8162 42.9031C84.6162 42.1558 80.8654 44.4495 79.2804 47.9517C79.1616 48.2116 79.0717 48.4845 78.9787 48.7606C78.8408 49.1635 78.7092 49.5664 78.6322 49.9919H78.6226C77.9263 53.3187 74.4482 55.6091 70.7615 54.2349C68.5604 53.4129 67.1582 51.2102 67.1582 48.8354V45.8204H64.0363C62.5539 45.8204 61.3507 47.0387 61.3507 48.5397V48.7639H61.3443V48.7704C61.3443 48.8159 61.3507 48.8581 61.3507 48.9036V51.9249C61.3507 53.4259 60.1507 54.641 58.6683 54.641H52.4404C50.9581 54.641 49.7548 53.4227 49.7548 51.9217V39.7192C49.7548 38.2183 48.5516 37 47.0692 37H43.9473V51.5741C43.9473 56.5155 47.9034 60.5181 52.7806 60.5181H58.3507C61.0426 60.5181 63.4202 59.2705 65.0342 57.3439C65.278 57.5746 65.5315 57.7988 65.7978 58.0067C65.8363 58.0359 65.8748 58.0652 65.9101 58.0945C66.2438 58.3511 66.5903 58.5915 66.9497 58.8124C67.0171 58.8547 67.0877 58.8968 67.1551 58.9391C67.9572 59.407 68.8171 59.7838 69.7251 60.0502C69.8438 60.086 69.9658 60.112 70.0844 60.1444C70.4278 60.2321 70.7743 60.3036 71.1208 60.3588C71.2524 60.3816 71.3872 60.4043 71.5187 60.4206C71.9872 60.4791 72.462 60.5181 72.9465 60.5181C75.9273 60.5181 78.6386 59.3712 80.6953 57.4999C80.7466 57.4544 80.7883 57.3959 80.8365 57.3505C81.9595 56.2914 82.8611 55.0081 83.4996 53.5721C83.8205 52.8509 84.0997 52.1036 84.2729 51.311C84.2825 51.2654 84.2986 51.22 84.3082 51.1745C84.3114 51.1518 84.3082 51.1258 84.3146 51.103C84.3242 51.0543 84.3339 51.0055 84.3435 50.9568C84.6965 49.4136 86.2205 48.3221 87.9211 48.7119C88.9959 48.9589 89.8687 49.8393 90.1157 50.9243C90.5617 52.8931 89.0954 54.641 87.2281 54.641C87.0259 54.641 86.8302 54.615 86.644 54.5662C86.1339 54.4363 85.6012 54.5987 85.2964 55.0275L82.4729 59.0268C83.8461 59.9397 85.4633 60.5082 87.2281 60.5082C92.6505 60.5082 96.9242 55.5247 95.8206 49.8327L95.8274 49.8393Z" fill="#B3B8BC"/>
<path d="M18.8503 49.5143C18.5647 49.8879 18.4877 50.372 18.6192 50.8235C18.7283 51.1972 18.77 51.6066 18.7091 52.0451C18.5486 53.2244 17.6984 54.2283 16.5657 54.5369C14.6534 55.0632 12.7989 53.6208 12.8053 51.6196C12.8053 50.4207 13.5529 49.3292 14.647 48.8645C15.0609 48.6891 15.4684 48.6274 15.8598 48.6436C16.3315 48.6664 16.7808 48.465 17.0695 48.0849L20.169 44.0109C18.077 42.7698 15.4973 42.3377 12.863 43.2669C9.4555 44.4689 7.05227 47.812 7.00093 51.4603C6.9175 57.4576 12.4748 61.7915 18.1797 60.1801C21.645 59.199 24.2246 56.0022 24.5071 52.37C24.7252 49.563 23.6664 47.1525 21.9626 45.4208L18.8503 49.5143Z" fill="#B3B8BC"/>
<path d="M35.2318 39.7192V51.9217C35.2318 53.4227 34.0286 54.641 32.5462 54.641H29.2286C27.7462 54.641 26.543 55.8593 26.543 57.3602V60.5213H32.2029C37.0832 60.5213 41.0362 56.5155 41.0362 51.5773V37H37.9142C36.4319 37 35.2286 38.2183 35.2286 39.7192H35.2318Z" fill="#B3B8BC"/>
<path d="M59.2394 61.9897C57.5999 61.9897 56.2715 63.3348 56.2715 64.9949C56.2715 66.6551 57.5999 68 59.2394 68C60.8791 68 62.2074 66.6551 62.2074 64.9949C62.2074 63.3348 60.8791 61.9897 59.2394 61.9897Z" fill="#B3B8BC"/>
<path d="M51.8488 61.9897C50.2093 61.9897 48.8809 63.3348 48.8809 64.9949C48.8809 66.6551 50.2093 68 51.8488 68C53.4884 68 54.8167 66.6551 54.8167 64.9949C54.8167 63.3348 53.4884 61.9897 51.8488 61.9897Z" fill="#B3B8BC"/>
</g>
<defs>
<clipPath id="clip0_3517_195109">
<rect width="89" height="31" fill="white" transform="translate(7 37)"/>
</clipPath>
</defs>
</svg>
