<svg width="432" height="425" viewBox="0 0 432 425" fill="none" xmlns="http://www.w3.org/2000/svg">
<g clip-path="url(#clip0_2520_268589)">
<path d="M30.2994 82C-11.4078 136.802 -21.0141 216.379 73.2323 310.661C222.099 459.584 333.303 372.712 370.296 310.661C398.847 270.299 431.796 139.629 432 82H30.2994Z" fill="url(#paint0_linear_2520_268589)"/>
<path d="M52.9578 206.564C52.6849 206.486 54.3131 189.403 55.1953 187.084C56.2013 182.486 57.0302 178.47 57.6211 175.499C58.2258 172.303 58.6336 168.353 58.7242 166.089C59.0092 160.812 53.039 159.306 51.6911 164.701C51.3513 166.144 50.3747 170.187 49.4705 173.765C48.5513 177.18 47.5907 182.019 46.944 184.761C45.6062 189.392 43.7662 199.697 43.8495 199.724C45.0282 202.976 52.9463 206.565 52.9463 206.565L52.9578 206.564Z" fill="#F9E6EA" stroke="#040A1F" stroke-linecap="round" stroke-linejoin="round"/>
<path d="M47.2637 201.364C46.9761 201.381 43.1592 184.671 43.2535 182.195C42.7738 177.522 42.2918 173.447 41.931 170.429C41.5049 167.206 40.6369 163.335 40.0077 161.166C38.622 156.077 32.4802 156.584 32.9011 162.121C33.0382 163.599 33.3766 167.747 33.6488 171.431C33.8498 174.97 34.4542 179.866 34.6914 182.673C34.8724 187.494 36.3634 197.835 36.4573 197.849C38.6161 200.546 47.2637 201.364 47.2637 201.364Z" fill="#F9E6EA" stroke="#040A1F" stroke-linecap="round" stroke-linejoin="round"/>
<g style="mix-blend-mode:multiply">
<path d="M43.8938 199.713C43.8938 199.713 44.5867 195.36 45.4918 191.055C47.1089 192.701 48.8599 194.299 50.6504 195.575C52.2533 196.694 52.9743 198.254 53.4246 200.005C53.0754 203.585 52.8633 206.529 52.9808 206.552C52.9808 206.552 45.0712 202.964 43.8938 199.713Z" fill="#F9E6EA"/>
</g>
<g style="mix-blend-mode:multiply">
<path d="M40.0371 184.588C41.1852 186.151 42.7616 188.107 44.5562 190.052C45.6612 195.388 47.0914 201.372 47.2639 201.366C47.2639 201.366 44.8896 201.134 42.3312 200.533L42.332 199.793C42.332 199.793 39.5118 197.235 36.7261 193.428C32.9228 188.221 38.2533 182.137 40.0257 184.589L40.0371 184.588Z" fill="#F9E6EA"/>
</g>
<path d="M44.4445 199.043C39.5023 197.695 26.3779 199.969 24.2484 201.742C22.1304 203.514 19.6905 224.361 29.9688 235.677C37.1792 243.603 45.3314 238.412 48.1612 236.111C51.3029 233.567 49.4798 235.04 54.2922 227.508C60.0593 218.46 52.675 203.793 52.675 203.793C52.675 203.793 49.4096 200.388 44.4434 199.031L44.4445 199.043Z" fill="#F9E6EA" stroke="#040A1F" stroke-linecap="round" stroke-linejoin="round"/>
<g style="mix-blend-mode:multiply">
<path d="M23.967 203.893C25.9257 202.265 40.2734 199.998 46.401 200.699C47.4845 210.295 48.682 220.5 48.5064 230.315C45.8372 229.62 43.2559 228.13 43.2559 228.13L36.0782 222.805C34.0667 213.021 25.6327 217.29 23.438 209.014C22.6981 206.249 23.3776 204.374 23.9659 203.881L23.967 203.893Z" fill="#F9E6EA"/>
</g>
<path d="M22.4366 196.564C21.8676 199.391 21.9216 204.961 23.0611 207.677C23.6035 208.925 25.4288 210.574 26.6084 210.855C27.8326 211.121 30.1348 211.067 30.8935 208.42C32.0274 204.468 32.0245 198.951 30.422 195.097C29.0876 191.896 23.1165 193.315 22.4366 196.564Z" fill="#F9E6EA" stroke="#040A1F" stroke-linecap="round" stroke-linejoin="round"/>
<g style="mix-blend-mode:multiply">
<path d="M29.0135 193.666C29.6202 193.958 30.1156 194.426 30.4102 195.101C32.0203 198.958 32.0232 204.48 30.8839 208.434C30.8674 208.506 30.8269 208.569 30.7885 208.655C29.1299 203.652 28.9163 198.234 29.0146 193.678L29.0135 193.666Z" fill="#F9E6EA"/>
</g>
<path d="M33.8455 190.881C31.993 191.442 30.3836 192.882 30.1847 195.098C29.8538 198.63 30.7742 206.204 33.2015 208.862C34.0239 209.766 35.6801 210.951 36.8571 210.575C38.0903 210.181 39.4791 208.352 39.6298 206.365C39.9139 202.826 39.4317 196.37 38.1466 192.835C37.6568 191.534 35.6315 190.351 33.858 190.892L33.8455 190.881Z" fill="#F9E6EA" stroke="#040A1F" stroke-linecap="round" stroke-linejoin="round"/>
<path d="M50.2151 234.178C50.2151 234.178 54.2808 227.67 55.6765 224.29C57.0825 220.897 55.8415 212.356 54.839 207.513C54.0868 203.878 54.2379 200.023 51.1146 197.834C46.888 194.828 42.8088 190.045 40.4822 186.861C38.6967 184.409 33.361 190.496 37.167 195.693C39.945 199.513 42.7668 202.061 42.7668 202.061L42.7473 208.709C42.7473 208.709 39.2555 211.394 36.5218 215.659C34.5934 218.646 37.0949 225.465 37.0949 225.465" fill="#F9E6EA"/>
<path d="M50.2151 234.178C50.2151 234.178 54.2808 227.67 55.6765 224.29C57.0825 220.897 55.8415 212.356 54.839 207.513C54.0868 203.878 54.2379 200.023 51.1146 197.834C46.888 194.828 42.8088 190.045 40.4822 186.861C38.6967 184.409 33.361 190.496 37.167 195.693C39.945 199.513 42.7668 202.061 42.7668 202.061L42.7473 208.709C42.7473 208.709 39.2555 211.394 36.5218 215.659C34.5934 218.646 37.0949 225.465 37.0949 225.465" stroke="#040A1F" stroke-linecap="round" stroke-linejoin="round"/>
<path d="M165.19 285.265C164.903 285.37 164.629 285.511 164.342 285.628L164.308 285.511L63.6263 328.3C54.7086 331.54 49.8205 341.681 52.7053 350.934C55.5901 360.187 65.1488 365.064 74.0665 361.813L176.797 330.382C177.542 330.195 178.286 329.972 179.03 329.703C190.855 325.399 197.334 311.97 193.522 299.699C189.699 287.429 177.015 280.972 165.201 285.277L165.19 285.265Z" fill="#7682B2" stroke="#040A1F" stroke-linecap="round" stroke-linejoin="round"/>
<path fill-rule="evenodd" clip-rule="evenodd" d="M299.55 377.064L310.333 342.151C310.562 341.718 310.78 341.273 310.986 340.829L311.043 340.63H311.054C312.256 337.893 313.103 334.933 313.493 331.787H313.481C315.519 315.34 311.936 302.04 294.467 299.034L184.704 285.543L158.274 311.422C158.174 311.994 157.668 314.03 156.919 317.043C154.013 328.728 147.449 355.121 146.73 367.946C207.837 402.104 259.911 397.056 299.55 377.064Z" fill="#008BCC"/>
<path d="M310.333 342.151L309.891 341.917C309.877 341.944 309.865 341.973 309.855 342.003L310.333 342.151ZM299.55 377.064L299.775 377.51C299.896 377.449 299.987 377.341 300.027 377.212L299.55 377.064ZM310.986 340.829L311.439 341.039C311.45 341.016 311.459 340.992 311.466 340.967L310.986 340.829ZM311.043 340.63V340.13C310.82 340.13 310.624 340.277 310.562 340.492L311.043 340.63ZM311.054 340.63V341.13C311.253 341.13 311.432 341.013 311.512 340.831L311.054 340.63ZM313.493 331.787L313.989 331.848C314.006 331.706 313.962 331.563 313.867 331.455C313.772 331.348 313.636 331.287 313.493 331.287V331.787ZM313.481 331.787L312.985 331.725C312.967 331.867 313.012 332.01 313.107 332.118C313.201 332.225 313.338 332.287 313.481 332.287V331.787ZM294.467 299.034L294.552 298.541C294.544 298.54 294.536 298.539 294.528 298.538L294.467 299.034ZM184.704 285.543L184.765 285.047C184.614 285.028 184.463 285.079 184.354 285.186L184.704 285.543ZM158.274 311.422L157.925 311.064C157.85 311.137 157.8 311.232 157.782 311.335L158.274 311.422ZM156.919 317.043L157.404 317.164L157.404 317.164L156.919 317.043ZM146.73 367.946L146.23 367.918C146.22 368.108 146.319 368.289 146.486 368.382L146.73 367.946ZM309.855 342.003L299.072 376.917L300.027 377.212L310.811 342.298L309.855 342.003ZM310.532 340.618C310.329 341.057 310.115 341.493 309.891 341.917L310.775 342.384C311.009 341.942 311.23 341.49 311.439 341.039L310.532 340.618ZM310.562 340.492L310.505 340.69L311.466 340.967L311.523 340.768L310.562 340.492ZM311.054 340.13H311.043V341.13H311.054V340.13ZM312.996 331.725C312.613 334.822 311.78 337.734 310.597 340.429L311.512 340.831C312.733 338.051 313.593 335.045 313.989 331.848L312.996 331.725ZM313.481 332.287H313.493V331.287H313.481V332.287ZM294.382 299.527C302.984 301.007 308.097 304.999 310.84 310.59C313.601 316.218 313.999 323.538 312.985 331.725L313.977 331.848C315.001 323.589 314.626 316.036 311.738 310.15C308.832 304.228 303.419 300.067 294.552 298.541L294.382 299.527ZM184.643 286.039L294.406 299.53L294.528 298.538L184.765 285.047L184.643 286.039ZM158.624 311.779L185.054 285.9L184.354 285.186L157.925 311.064L158.624 311.779ZM157.404 317.164C158.149 314.167 158.663 312.103 158.767 311.508L157.782 311.335C157.686 311.885 157.187 313.893 156.434 316.922L157.404 317.164ZM147.229 367.974C147.586 361.605 149.399 351.836 151.493 342.173C153.585 332.519 155.951 323.007 157.404 317.164L156.434 316.922C154.981 322.765 152.612 332.291 150.516 341.961C148.422 351.621 146.593 361.461 146.23 367.918L147.229 367.974ZM146.486 368.382C207.739 402.622 259.989 397.576 299.775 377.51L299.324 376.618C259.833 396.535 207.935 401.586 146.974 367.509L146.486 368.382Z" fill="#040A1F"/>
<g style="mix-blend-mode:multiply">
<path d="M261.426 324.557C261.426 324.557 192.683 363.194 171.814 355.017C150.945 346.841 150.922 342.501 150.922 342.501C150.922 342.501 145.473 363.299 147.133 363.638C148.793 363.978 223.26 384.214 223.26 384.214L261.426 324.557Z" fill="#008BCC"/>
</g>
<g style="mix-blend-mode:multiply">
<path d="M254.898 305.421C254.898 305.421 235.06 305.679 206.486 302.988C198.118 302.204 204.598 290.413 204.598 290.413L270.044 298.157L254.91 305.409L254.898 305.421Z" fill="#008BCC"/>
</g>
<path fill-rule="evenodd" clip-rule="evenodd" d="M308.71 372.056C316.041 347.906 320.278 325.523 315.081 314.461C308.109 299.629 292.85 298.237 288.751 298.143C287.813 298.12 286.885 298.038 285.958 297.921L260.51 294.669C260.132 297.886 258.816 300.904 256.71 303.325L197.8 371.31C197.8 371.31 196.391 377.148 195.184 387.778C240.044 399.315 278.474 389.886 308.71 372.056Z" fill="#7682B2"/>
<path d="M308.71 372.056L308.964 372.487C309.072 372.423 309.152 372.322 309.188 372.202L308.71 372.056ZM315.081 314.461L315.533 314.248L315.533 314.248L315.081 314.461ZM288.751 298.143L288.739 298.643L288.74 298.643L288.751 298.143ZM285.958 297.921L285.895 298.417L285.896 298.417L285.958 297.921ZM260.51 294.669L260.573 294.173C260.441 294.156 260.307 294.193 260.202 294.275C260.097 294.357 260.029 294.478 260.014 294.611L260.51 294.669ZM256.71 303.325L256.332 302.997L256.332 302.997L256.71 303.325ZM197.8 371.31L197.422 370.983C197.37 371.043 197.333 371.115 197.314 371.193L197.8 371.31ZM195.184 387.778L194.688 387.722C194.659 387.97 194.818 388.2 195.06 388.262L195.184 387.778ZM309.188 372.202C312.857 360.115 315.758 348.452 317.089 338.416C318.417 328.404 318.197 319.918 315.533 314.248L314.628 314.673C317.162 320.066 317.422 328.303 316.098 338.285C314.777 348.243 311.893 359.847 308.231 371.911L309.188 372.202ZM315.533 314.248C308.431 299.138 292.895 297.737 288.763 297.643L288.74 298.643C292.804 298.736 307.787 300.119 314.628 314.673L315.533 314.248ZM288.764 297.643C287.846 297.62 286.936 297.54 286.021 297.425L285.896 298.417C286.835 298.535 287.779 298.619 288.739 298.643L288.764 297.643ZM286.022 297.425L260.573 294.173L260.447 295.165L285.895 298.417L286.022 297.425ZM260.014 294.611C259.647 297.73 258.371 300.653 256.332 302.997L257.087 303.653C259.261 301.154 260.617 298.042 261.007 294.727L260.014 294.611ZM256.332 302.997L197.422 370.983L198.178 371.637L257.087 303.652L256.332 302.997ZM197.8 371.31C197.314 371.193 197.314 371.193 197.314 371.193C197.314 371.193 197.314 371.193 197.314 371.193C197.314 371.193 197.314 371.194 197.314 371.194C197.313 371.195 197.313 371.196 197.313 371.198C197.312 371.201 197.311 371.206 197.31 371.211C197.307 371.223 197.303 371.241 197.297 371.264C197.286 371.311 197.27 371.38 197.25 371.471C197.208 371.654 197.148 371.926 197.072 372.285C196.92 373.003 196.705 374.07 196.452 375.469C195.948 378.267 195.292 382.395 194.688 387.722L195.681 387.834C196.283 382.531 196.935 378.425 197.437 375.647C197.687 374.258 197.9 373.201 198.05 372.492C198.125 372.138 198.184 371.87 198.225 371.692C198.245 371.603 198.26 371.536 198.271 371.492C198.276 371.47 198.28 371.454 198.282 371.443C198.284 371.437 198.285 371.433 198.285 371.431C198.286 371.43 198.286 371.429 198.286 371.428C198.286 371.428 198.286 371.428 198.286 371.427C198.286 371.427 198.286 371.427 198.286 371.427C198.286 371.427 198.286 371.427 197.8 371.31ZM195.06 388.262C240.064 399.836 278.628 390.375 308.964 372.487L308.456 371.626C278.319 389.397 240.025 398.793 195.309 387.294L195.06 388.262Z" fill="#040A1F"/>
<path fill-rule="evenodd" clip-rule="evenodd" d="M174.05 380.927C174.185 380.074 174.253 379.629 174.253 379.629L212.626 288.401L178.958 284.435L159.062 308.625L141.554 364.972C152.684 371.545 163.523 376.815 174.05 380.927Z" fill="#7682B2"/>
<path d="M177.525 278.539L212.626 282.293L174.253 371.589C174.253 371.589 173.754 374.771 172.795 380.432C162.012 376.136 150.903 370.623 139.491 363.741L159.062 302.09" stroke="#040A1F" stroke-linecap="round" stroke-linejoin="round"/>
<g style="mix-blend-mode:overlay" opacity="0.5">
<path d="M223.259 384.214L261.426 324.557C261.426 324.557 242.365 335.272 221.279 344.221L197.811 371.312C197.811 371.312 197.376 373.125 196.781 376.529C211.377 380.763 223.259 384.214 223.259 384.214Z" fill="#3F3F3F"/>
</g>
<path fill-rule="evenodd" clip-rule="evenodd" d="M246.847 302.826L223.78 299.796C216.694 298.86 211.703 292.041 212.63 284.543L212.699 283.969C213.626 276.483 220.117 271.161 227.192 272.085L250.258 275.115C257.345 276.05 262.336 282.87 261.408 290.368L261.34 290.941C260.413 298.427 253.922 303.75 246.847 302.826Z" fill="#F9E6EA"/>
<path fill-rule="evenodd" clip-rule="evenodd" d="M246.847 302.826L223.78 299.796C216.694 298.86 211.703 292.041 212.63 284.543L212.699 283.969C213.626 276.483 220.117 271.161 227.192 272.085L250.258 275.115C257.345 276.05 262.336 282.87 261.408 290.368L261.34 290.941C260.413 298.427 253.922 303.75 246.847 302.826Z" stroke="#040A1F" stroke-linecap="round" stroke-linejoin="round"/>
<path fill-rule="evenodd" clip-rule="evenodd" d="M212.627 288.391C211.963 289.104 211.562 289.9 211.459 290.765C210.818 296.006 221.396 301.714 235.099 303.516C248.801 305.317 260.432 302.521 261.073 297.281C261.176 296.415 260.982 295.55 260.512 294.684C257.158 298.345 247.153 300.041 235.705 298.544C224.258 297.035 214.985 292.812 212.627 288.403V288.391Z" fill="#00408C" stroke="#040A1F" stroke-linecap="round" stroke-linejoin="round"/>
<g style="mix-blend-mode:overlay">
<g style="mix-blend-mode:multiply" opacity="0.5">
<path d="M307.692 338.301C307.486 338.535 307.268 338.745 307.051 338.979L307.131 339.061L231.199 419.118C224.948 426.429 214.279 427.002 207.365 420.404C200.45 413.795 199.912 402.519 206.163 395.197L273.028 308.472C273.475 307.829 273.967 307.197 274.482 306.589C282.77 296.892 296.919 296.132 306.089 304.881C315.258 313.643 315.968 328.603 307.68 338.301H307.692Z" fill="#3F3F3F"/>
</g>
<g style="mix-blend-mode:multiply" opacity="0.5">
<path d="M145.944 349.106C150.25 337.371 151.686 333.949 155.343 320.018L156.866 317.281L159.59 332.756C161.33 342.652 168.371 350.712 177.804 353.601L184.787 355.741L177.071 372.937L145.944 349.106Z" fill="#3F3F3F"/>
</g>
</g>
<path d="M52.1219 348.712C51.9846 348.104 51.893 347.507 51.8243 346.899L28.8814 241.639C28.6478 240.567 29.3209 239.508 30.3902 239.263L54.5067 233.755C55.5488 233.517 56.5938 234.14 56.8794 235.17L85.7093 339.155C85.9039 339.729 86.0756 340.313 86.2015 340.922" fill="#7682B2"/>
<path d="M29.0455 242.389L49.8186 237.644C50.8095 237.417 51.801 238.021 52.0777 239.019L80.8671 322.214L56.8628 235.108C56.586 234.109 55.5946 233.506 54.6037 233.732L30.3267 239.277C29.2957 239.513 28.6463 240.558 28.876 241.611L29.0455 242.389Z" fill="#9CA7D7"/>
<path d="M52.1219 348.712C51.9846 348.104 51.893 347.507 51.8243 346.899L28.8814 241.639C28.6478 240.567 29.3209 239.508 30.3902 239.263L54.5067 233.755C55.5488 233.517 56.5938 234.14 56.8794 235.17L58.2028 239.943L60.0365 246.558M86.2015 340.922C86.0756 340.313 85.9039 339.729 85.7093 339.155L71.0391 286.242L67.3716 273.014L63.7041 259.786M61.8703 253.172L60.9534 249.865" stroke="#040A1F" stroke-linecap="round" stroke-linejoin="round"/>
<path d="M131.11 365.729C131.11 365.729 114.841 356.929 110.056 351.061C110.056 351.061 133.024 341.771 141.637 346.659" fill="#F9E6EA"/>
<path d="M131.11 365.729C131.11 365.729 114.841 356.929 110.056 351.061C110.056 351.061 133.024 341.771 141.637 346.659" stroke="#040A1F" stroke-linecap="round" stroke-linejoin="round"/>
<path d="M306.348 339.647C306.131 339.869 305.89 340.056 305.661 340.267L305.741 340.36L223.616 413.761C216.793 420.522 206.113 420.195 199.759 413.036C193.406 405.866 193.772 394.578 200.595 387.817L274.226 307.011C274.73 306.403 275.256 305.818 275.829 305.257C284.872 296.285 299.033 296.717 307.459 306.216C315.884 315.714 315.392 330.687 306.348 339.659V339.647Z" fill="#7682B2"/>
<path d="M275.829 305.258C275.256 305.819 274.73 306.404 274.226 307.012L200.595 387.818C193.772 394.579 193.406 405.867 199.759 413.037C206.113 420.196 216.793 420.523 223.616 413.762L305.741 340.361L305.661 340.268C305.89 340.057 306.131 339.87 306.348 339.648V339.659" stroke="#040A1F" stroke-linecap="round" stroke-linejoin="round"/>
<path d="M219.896 384.89C219.358 384.597 218.808 384.34 218.259 384.118L145.07 343.564C144.069 343.01 142.809 343.406 142.305 344.432L131.258 366.947C130.813 367.855 131.115 368.952 131.961 369.504L202.77 415.677C203.262 416.016 203.777 416.344 204.315 416.636" fill="#7682B2"/>
<path d="M219.896 384.89C219.358 384.597 218.808 384.34 218.259 384.118L145.07 343.564C144.069 343.01 142.809 343.406 142.305 344.432L131.258 366.947C130.813 367.855 131.115 368.952 131.961 369.504L202.77 415.677C203.262 416.016 203.777 416.344 204.315 416.636" stroke="#040A1F" stroke-linecap="round" stroke-linejoin="round"/>
<path d="M292.94 299.535L278.883 297.687C271.19 296.681 264.55 299.161 264.047 303.22L260.658 330.755C260.154 334.826 265.981 338.944 273.674 339.949L287.755 341.798C295.447 342.804 302.098 340.324 302.591 336.253L305.945 308.718C306.437 304.647 300.61 300.541 292.929 299.535H292.94Z" fill="#7682B2"/>
<path d="M279.758 291.617L178.309 277.206C144.734 272.433 121.346 239.786 126.062 204.261L138.769 108.647C143.486 73.1334 174.543 48.2063 208.119 52.9788L309.568 67.39C343.144 72.1625 366.531 104.81 361.815 140.335L349.108 235.949C344.391 271.462 313.334 296.39 279.758 291.617Z" fill="#008BCC" stroke="#040A1F" stroke-linecap="round" stroke-linejoin="round"/>
<path d="M146.934 88.2817L368.548 56.1139C378.645 57.5527 385.685 67.3668 384.266 78.0582L367.919 201.021C366.499 211.701 357.158 219.199 347.061 217.772L133.746 187.475C123.649 186.037 116.609 176.223 118.029 165.531L126.076 105.032C127.496 94.3526 136.837 86.8546 146.934 88.2817Z" fill="#008BCC"/>
<path fill-rule="evenodd" clip-rule="evenodd" d="M368.478 55.6058C368.524 55.5991 368.571 55.599 368.618 55.6056C379.004 57.0857 386.218 67.1718 384.764 78.1273L368.416 201.09C366.962 212.035 357.38 219.748 346.992 218.28L346.992 218.28L133.677 187.984L133.677 187.984C123.29 186.504 116.076 176.418 117.531 165.462L117.531 165.462L125.578 104.963C125.578 104.963 125.578 104.963 125.578 104.963C127.03 94.0432 136.572 86.3399 146.932 87.7635L368.478 55.6058ZM368.548 56.6324L147.004 88.79C146.958 88.7967 146.911 88.7968 146.865 88.7902C137.059 87.4043 127.958 94.6869 126.574 105.101L126.574 105.102L118.526 165.6C118.526 165.6 118.526 165.6 118.526 165.6C117.142 176.028 124.008 185.57 133.816 186.967L347.13 217.263C356.936 218.649 366.037 211.367 367.421 200.952L383.768 77.9893C385.149 67.5866 378.319 58.065 368.548 56.6324Z" fill="#040A1F"/>
<path d="M122.275 133.574L124.415 117.443C124.976 113.197 122.183 109.29 118.165 108.717L108.778 107.383C101.406 106.33 96.2657 99.16 97.3074 91.3695C98.3492 83.5674 105.16 78.093 112.533 79.1458L130.208 81.6607C134.226 82.2339 137.935 79.251 138.507 75.0049C139.068 70.7587 136.275 66.8518 132.257 66.2787L100.055 61.705C93.5068 60.7809 88.9507 54.4058 89.8665 47.481C90.7823 40.5561 96.8381 35.69 103.386 36.6258L135.817 41.2346C137.099 41.4217 138.278 40.4625 138.462 39.1057C138.645 37.7488 137.752 36.5088 136.47 36.3217L125.366 34.7425C116.219 33.4441 109.877 24.4605 111.331 14.7634C112.762 5.24175 121.496 -1.12162 130.517 0.16509L139.835 1.48689L200.599 10.1196L345.229 30.6602C363.797 33.2921 376.732 51.3645 374.122 71.0044L373.756 73.7767" fill="#008BCC"/>
<path fill-rule="evenodd" clip-rule="evenodd" d="M124.415 117.443L119.626 158.418L125.627 156.419L131.114 117.443C131.675 113.197 128.882 109.29 124.864 108.717L115.477 107.383C108.105 106.33 102.965 99.16 104.006 91.3695C104.81 85.3549 109.041 80.7235 114.316 79.3995L112.533 79.1458C105.16 78.093 98.3492 83.5674 97.3074 91.3695C96.2657 99.16 101.406 106.33 108.778 107.383L118.165 108.717C122.183 109.29 124.976 113.197 124.415 117.443ZM133.812 81.2204L136.907 81.6607C140.925 82.2339 144.634 79.251 145.206 75.0049C145.767 70.7588 142.974 66.8518 138.956 66.2787L106.754 61.705C100.206 60.7809 95.6497 54.4058 96.5655 47.481C97.2584 42.2422 100.893 38.1817 105.457 36.9201L103.386 36.6258C96.8381 35.69 90.7823 40.5561 89.8665 47.481C88.9507 54.4058 93.5068 60.7809 100.055 61.705L132.257 66.2787C136.275 66.8518 139.068 70.7588 138.507 75.0049C138.115 77.9184 136.245 80.2371 133.812 81.2204ZM137.761 40.5588L142.516 41.2346C143.798 41.4217 144.978 40.4626 145.161 39.1057C145.344 37.7488 144.451 36.5088 143.169 36.3217L132.065 34.7425C122.918 33.4441 116.576 24.4605 118.03 14.7634C119.16 7.24004 124.851 1.68841 131.639 0.324283L130.517 0.16509C121.496 -1.12162 112.762 5.24175 111.331 14.7634C109.877 24.4605 116.219 33.4441 125.366 34.7425L136.47 36.3217C137.752 36.5088 138.645 37.7488 138.462 39.1057C138.384 39.6803 138.128 40.1837 137.761 40.5588Z" fill="#1FB4FA"/>
<path d="M122.275 133.574L124.415 117.443C124.976 113.197 122.183 109.29 118.165 108.717L108.778 107.383C101.406 106.33 96.2657 99.16 97.3074 91.3695C98.3492 83.5674 105.16 78.093 112.533 79.1458L130.208 81.6607C134.226 82.2339 137.935 79.251 138.507 75.0049C139.068 70.7587 136.275 66.8518 132.257 66.2787L100.055 61.705C93.5068 60.7809 88.9507 54.4058 89.8665 47.481C90.7823 40.5561 96.8381 35.69 103.386 36.6258L135.817 41.2346C137.099 41.4217 138.278 40.4625 138.462 39.1057C138.645 37.7488 137.752 36.5088 136.47 36.3217L125.366 34.7425C116.219 33.4441 109.877 24.4605 111.331 14.7634C112.762 5.24175 121.496 -1.12162 130.517 0.16509L345.229 30.6602C363.797 33.2921 376.732 51.3645 374.122 71.0044L373.756 73.7767" stroke="#1F0404" stroke-linecap="round" stroke-linejoin="round"/>
<path fill-rule="evenodd" clip-rule="evenodd" d="M199.394 42.3911C199.432 42.1103 199.686 41.9143 199.96 41.9533L258.446 50.2584C258.721 50.2975 258.913 50.5567 258.875 50.8375C258.837 51.1183 258.583 51.3143 258.308 51.2752L199.822 42.9701C199.547 42.9311 199.356 42.6718 199.394 42.3911Z" fill="#040A1F"/>
<path fill-rule="evenodd" clip-rule="evenodd" d="M161.846 26.764C161.884 26.4832 162.138 26.2872 162.413 26.3262L304.478 46.5042C304.753 46.5432 304.944 46.8025 304.906 47.0833C304.868 47.3641 304.614 47.56 304.339 47.521L162.275 27.343C162 27.304 161.808 27.0447 161.846 26.764Z" fill="#040A1F"/>
<path fill-rule="evenodd" clip-rule="evenodd" d="M166.059 15.6863C166.097 15.4056 166.351 15.2096 166.626 15.2486L297.518 33.8357C297.793 33.8748 297.985 34.134 297.946 34.4148C297.908 34.6956 297.655 34.8916 297.38 34.8525L166.488 16.2654C166.213 16.2264 166.021 15.9671 166.059 15.6863Z" fill="#040A1F"/>
<g style="mix-blend-mode:multiply">
<path d="M347.698 212.906L134.383 182.61C124.287 181.171 117.246 171.357 118.666 160.666L118.025 165.52C116.605 176.2 123.646 186.026 133.742 187.464L347.057 217.761C357.154 219.199 366.495 211.701 367.915 201.01L368.556 196.156C367.136 206.835 357.795 214.333 347.698 212.906Z" fill="#008BCC"/>
</g>
<path d="M145.972 177.837C148.159 185.393 146.636 189.932 135.669 197.056C124.714 204.168 110.427 200.588 103.753 189.055C97.091 177.521 100.571 162.396 111.526 155.273C122.482 148.161 142.424 165.59 145.961 177.837H145.972Z" fill="#F9E6EA" stroke="#040A1F" stroke-linecap="round" stroke-linejoin="round"/>
<g style="mix-blend-mode:multiply">
<path d="M112.416 160.349C123.337 153.26 143.176 170.549 146.816 182.784C146.793 181.252 146.495 179.638 145.969 177.836C142.431 165.601 122.49 148.16 111.534 155.272C102.342 161.238 98.4383 172.841 101.346 183.24C100.716 174.339 104.7 165.355 112.416 160.349Z" fill="#F9E6EA"/>
</g>
<g style="mix-blend-mode:multiply">
<path d="M125.364 179.86C125.364 179.86 110.677 167.355 113.23 188.2C113.23 188.2 104.644 172.385 120.155 162.138C120.155 162.138 115.37 167.706 120.945 171.683C130.035 178.164 125.376 179.86 125.376 179.86H125.364Z" fill="#F9E6EA"/>
</g>
<path d="M113.083 187.816C105.195 170.878 120.111 162.432 120.111 162.432" stroke="#040A1F" stroke-linecap="round" stroke-linejoin="round"/>
<path d="M125.196 179.24C125.196 179.24 122.22 169.742 111.951 172.047" stroke="#040A1F" stroke-linecap="round" stroke-linejoin="round"/>
<path d="M336.55 204.894C332.474 211.561 332.76 216.357 341.449 226.265C350.149 236.173 364.837 236.711 374.269 227.458C383.702 218.206 384.298 202.671 375.597 192.764C366.897 182.856 343.155 194.086 336.55 204.894Z" fill="#F9E6EA"/>
<path fill-rule="evenodd" clip-rule="evenodd" d="M366.778 188.447C370.42 188.623 373.68 189.812 375.971 192.421C384.853 202.536 384.244 218.385 374.617 227.828C364.981 237.281 349.966 236.733 341.075 226.608L341.075 226.608C336.72 221.642 334.397 217.879 333.72 214.466C333.036 211.011 334.054 208.007 336.123 204.622C339.505 199.088 347.203 193.522 355.116 190.578C359.081 189.103 363.139 188.271 366.778 188.447ZM355.46 191.543C347.675 194.439 340.199 199.891 336.976 205.166L336.976 205.166C334.969 208.448 334.093 211.176 334.705 214.262C335.325 217.391 337.489 220.98 341.823 225.922C350.332 235.613 364.692 236.141 373.922 227.088C383.16 218.026 383.742 202.807 375.223 193.106C373.164 190.761 370.194 189.639 366.731 189.472C363.265 189.305 359.343 190.098 355.46 191.543Z" fill="#040A1F"/>
<g style="mix-blend-mode:multiply">
<path d="M373.424 197.408C364.758 187.535 341.141 198.659 334.444 209.421C334.868 207.959 335.578 206.473 336.551 204.894C343.156 194.097 366.91 182.856 375.599 192.764C382.891 201.081 383.623 213.328 378.117 222.534C381.048 214.135 379.548 204.379 373.424 197.408Z" fill="#F9E6EA"/>
</g>
<g style="mix-blend-mode:multiply">
<path d="M355.861 212.589C355.861 212.589 373.261 204.647 365.373 224.006C365.373 224.006 377.76 211.174 365.511 196.985C365.511 196.985 368.67 203.688 362.26 205.957C351.819 209.653 355.861 212.601 355.861 212.601V212.589Z" fill="#F9E6EA"/>
</g>
<path fill-rule="evenodd" clip-rule="evenodd" d="M365.818 196.912C365.621 196.713 365.303 196.715 365.108 196.917C364.913 197.118 364.915 197.443 365.112 197.642L365.112 197.642L365.112 197.642L365.113 197.643L365.118 197.648L365.14 197.672C365.161 197.693 365.192 197.726 365.233 197.771C365.315 197.86 365.435 197.993 365.585 198.169C365.885 198.522 366.303 199.044 366.769 199.714C367.701 201.057 368.819 202.987 369.569 205.342C369.827 206.151 370.041 207.011 370.19 207.916C365.787 205.834 362.25 206.653 359.78 208.082C358.476 208.836 357.479 209.754 356.809 210.481C356.473 210.845 356.217 211.163 356.044 211.392C355.958 211.506 355.892 211.599 355.846 211.664C355.824 211.696 355.807 211.722 355.795 211.74L355.78 211.761L355.776 211.768L355.775 211.77L355.774 211.771C355.774 211.771 355.774 211.771 356.194 212.053L355.774 211.771C355.622 212.008 355.686 212.326 355.918 212.482C356.15 212.637 356.461 212.572 356.614 212.335L356.614 212.335L356.614 212.335L356.615 212.332L356.625 212.318C356.633 212.305 356.647 212.285 356.666 212.258C356.704 212.203 356.762 212.122 356.839 212.019C356.995 211.813 357.229 211.521 357.54 211.185C358.162 210.511 359.081 209.666 360.275 208.976C362.596 207.633 365.988 206.847 370.346 209.136C370.721 213.242 369.655 218.15 365.235 223.341C365.053 223.555 365.075 223.88 365.284 224.066C365.493 224.252 365.811 224.229 365.993 224.015C370.683 218.505 371.779 213.239 371.326 208.835C371.328 208.783 371.322 208.731 371.309 208.68C371.164 207.38 370.885 206.156 370.525 205.024C369.735 202.544 368.562 200.522 367.588 199.12C367.101 198.418 366.662 197.87 366.343 197.496C366.184 197.309 366.055 197.165 365.964 197.067C365.919 197.018 365.883 196.98 365.859 196.954L365.83 196.924L365.822 196.916L365.819 196.913L365.818 196.913C365.818 196.912 365.818 196.912 365.465 197.277L365.818 196.912Z" fill="#040A1F"/>
<path d="M279.762 291.617L178.313 277.206C144.737 272.433 121.35 239.786 126.066 204.261L138.773 108.647C143.489 73.1334 174.547 48.2063 208.123 52.9788L309.571 67.39C343.147 72.1625 366.535 104.81 361.818 140.335L349.112 235.949C344.395 271.462 313.338 296.39 279.762 291.617Z" fill="#F3CFD7" stroke="#040A1F" stroke-linecap="round" stroke-linejoin="round"/>
<path d="M279.762 291.617L178.313 277.206C144.737 272.433 121.35 239.786 126.066 204.261L138.773 108.647C143.489 73.1334 174.547 48.2063 208.123 52.9788L309.571 67.39C343.147 72.1625 366.535 104.81 361.818 140.335L349.112 235.949C344.395 271.462 313.338 296.39 279.762 291.617Z" fill="#F3CFD7" stroke="#040A1F" stroke-linecap="round" stroke-linejoin="round"/>
<path d="M279.762 291.617L178.313 277.206C144.737 272.433 121.35 239.786 126.066 204.261L138.773 108.647C143.489 73.1334 174.547 48.2063 208.123 52.9788L309.571 67.39C343.147 72.1625 366.535 104.81 361.818 140.335L349.112 235.949C344.395 271.462 313.338 296.39 279.762 291.617Z" fill="#F3CFD7" stroke="#040A1F" stroke-linecap="round" stroke-linejoin="round"/>
<path d="M277.109 280.854L176.301 266.536C144.591 262.033 122.497 231.187 126.962 197.651L138.318 112.26C142.783 78.7117 172.1 55.1765 203.81 59.68L304.618 73.9976C336.327 78.5011 358.421 109.347 353.957 142.883L342.601 228.274C338.136 261.822 308.819 285.358 277.109 280.854Z" fill="#F9E6EA"/>
<path fill-rule="evenodd" clip-rule="evenodd" d="M178.313 277.206L279.762 291.617C283.51 292.15 287.227 292.312 290.88 292.131C289.098 292.043 287.304 291.873 285.504 291.617L184.055 277.206C150.479 272.433 127.092 239.786 131.808 204.261L144.515 108.647C148.705 77.0982 173.682 53.9041 202.747 52.4643C171.292 50.9102 143.236 75.0378 138.773 108.647L126.066 204.261C121.35 239.786 144.737 272.433 178.313 277.206Z" fill="white"/>
<path d="M279.762 291.617L178.313 277.206C144.737 272.433 121.35 239.786 126.066 204.261L138.773 108.647C143.489 73.1334 174.547 48.2063 208.123 52.9788L309.571 67.39C343.147 72.1625 366.535 104.81 361.818 140.335L349.112 235.949C344.395 271.462 313.338 296.39 279.762 291.617Z" stroke="#040A1F" stroke-linecap="round" stroke-linejoin="round"/>
<path d="M371.698 80.6432C368.023 108.284 343.857 127.678 317.734 123.97C296.83 120.999 282.269 100.669 285.211 78.5611L286.768 66.8286" fill="#F3CFD7"/>
<g style="mix-blend-mode:multiply">
<path d="M241.337 212.565C242.665 207.173 239.46 201.698 234.182 200.341C230.908 199.499 227.829 200.704 225.265 202.552C216.873 208.576 210.554 212.565 193.372 211.138C183.675 210.331 172.01 206.787 158.777 198.002C157.506 197.089 154.484 195.218 151.782 194.516C141.605 191.896 131.28 198.212 128.715 208.6C126.838 216.238 129.631 224.017 135.355 228.544C140.094 232.298 154.656 242.885 175.021 244.674C191.528 246.113 213.084 241.153 232.477 223.713C234.343 222.04 240.135 217.419 241.337 212.553V212.565Z" fill="#F9E6EA"/>
</g>
<g style="mix-blend-mode:multiply">
<path d="M239.173 212.239C239.402 206.682 243.981 202.366 249.419 202.6C252.796 202.74 255.406 204.787 257.364 207.302C263.74 215.514 268.685 221.175 285.559 224.778C295.084 226.813 307.252 226.802 322.386 222.216C323.863 221.702 327.274 220.789 330.056 220.906C340.542 221.351 348.693 230.393 348.258 241.108C347.937 248.98 343.095 255.624 336.352 258.314C330.766 260.537 313.858 266.468 293.847 262.28C277.615 258.876 258.337 247.869 244.577 225.515C243.26 223.374 238.979 217.257 239.185 212.25L239.173 212.239Z" fill="#F9E6EA"/>
</g>
<path d="M226.568 243.387C229.659 244.112 232.612 245.001 235.577 245.446C238.588 245.89 241.621 246.077 244.781 246.253C243.293 246.826 241.713 247.107 240.122 247.224C238.554 247.364 236.939 247.282 235.36 247.072C233.757 246.814 232.2 246.37 230.746 245.726C229.281 245.118 227.873 244.381 226.579 243.399L226.568 243.387Z" fill="#1D1D1B"/>
<path d="M263.405 219.455C261.517 232.802 249.405 242.054 236.343 240.136C223.282 238.217 214.227 225.83 216.104 212.483C216.104 212.483 236.733 196.212 262.123 216.846L263.405 219.467V219.455Z" fill="#471B12"/>
<path d="M252.327 236.731C249.282 231.807 244.199 228.192 238.063 227.292C231.928 226.391 226.135 228.344 221.865 232.134C225.483 236.322 230.508 239.27 236.346 240.135C242.185 241.001 247.725 239.644 252.327 236.731Z" fill="#CD4016"/>
<path d="M261.042 224.473L261.66 225.725C262.496 223.771 263.091 221.666 263.411 219.455L262.129 216.835C236.738 196.201 216.11 212.472 216.11 212.472C215.778 214.823 215.789 217.127 216.11 219.373C220.632 216.437 239.051 206.588 261.065 224.485L261.042 224.473Z" fill="white"/>
<path d="M236.953 235.76C224.589 233.935 215.534 224.694 216.209 212.389C216.141 212.435 216.106 212.471 216.106 212.471C214.218 225.817 223.284 238.205 236.346 240.123C249.408 242.053 261.531 232.789 263.408 219.442L263.339 219.29C260.592 231.315 249.339 237.573 236.964 235.748L236.953 235.76Z" fill="white"/>
<path fill-rule="evenodd" clip-rule="evenodd" d="M216.572 212.768C214.859 225.754 223.697 237.76 236.415 239.628C249.148 241.498 260.958 232.525 262.884 219.549L261.724 217.178C249.181 207.022 237.856 205.971 229.679 207.432C225.572 208.166 222.247 209.536 219.95 210.721C218.803 211.314 217.913 211.86 217.312 212.256C217.012 212.454 216.784 212.614 216.633 212.724C216.611 212.74 216.591 212.754 216.572 212.768ZM263.489 219.424L263.855 219.237L262.523 216.515L262.436 216.445C249.623 206.032 237.971 204.909 229.506 206.421C225.282 207.176 221.862 208.584 219.497 209.805C218.315 210.416 217.394 210.98 216.768 211.393C216.454 211.6 216.214 211.769 216.051 211.887C215.969 211.946 215.907 211.993 215.865 212.025C215.844 212.041 215.827 212.053 215.816 212.062L215.803 212.072L215.799 212.075L215.798 212.076C215.797 212.077 215.797 212.077 216.104 212.483L215.798 212.076L215.636 212.204L215.607 212.41C213.69 226.037 222.935 238.685 236.272 240.644C249.095 242.527 261.021 233.865 263.634 221.082L263.908 221.641V219.455L263.489 219.424Z" fill="#040A1F"/>
<path d="M240.96 207.418C241.189 201.861 245.768 197.545 251.206 197.779C254.583 197.919 257.193 199.966 259.151 202.481C265.527 210.693 270.472 216.355 287.346 219.957C296.871 221.993 309.039 221.981 324.173 217.396C325.65 216.881 329.061 215.969 331.843 216.085C342.329 216.53 350.48 225.572 350.045 236.287C349.724 244.159 344.882 250.803 338.139 253.494C332.553 255.716 315.645 261.647 295.634 257.459C279.402 254.055 260.124 243.048 246.364 220.694C245.047 218.554 240.766 212.436 240.972 207.429L240.96 207.418Z" fill="#008BCC"/>
<path fill-rule="evenodd" clip-rule="evenodd" d="M251.206 197.779C245.768 197.545 241.189 201.861 240.96 207.418L240.972 207.429C240.905 209.046 241.306 210.777 241.924 212.454C241.926 212.409 241.927 212.364 241.929 212.319L241.917 212.307C242.146 206.751 246.725 202.435 252.163 202.669C255.54 202.809 258.15 204.856 260.108 207.371C266.484 215.582 271.429 221.244 288.303 224.847C297.828 226.882 309.996 226.87 325.13 222.285C326.607 221.77 330.018 220.858 332.8 220.975C340.876 221.317 347.567 226.759 350.017 234.138C349.367 224.388 341.62 216.5 331.843 216.085C329.061 215.969 325.65 216.881 324.173 217.396C309.039 221.981 296.871 221.993 287.346 219.957C270.472 216.355 265.527 210.693 259.151 202.481C257.193 199.966 254.583 197.919 251.206 197.779Z" fill="#1FB4FA"/>
<path d="M338.138 253.494C332.552 255.716 315.644 261.647 295.633 257.459C279.401 254.055 260.123 243.048 246.363 220.694C245.321 218.998 242.436 214.822 241.372 210.681C249.683 220.027 271.96 241.866 302.88 247.399C322.97 250.99 338.997 244.791 349.929 237.807C349.094 245.013 344.457 250.99 338.138 253.505V253.494Z" fill="#004CA3"/>
<path fill-rule="evenodd" clip-rule="evenodd" d="M241.467 207.342C241.473 207.377 241.475 207.414 241.474 207.451C241.376 209.817 242.345 212.499 243.544 214.903C244.49 216.798 245.549 218.464 246.283 219.618C246.477 219.923 246.648 220.193 246.789 220.421C260.473 242.652 279.631 253.579 295.735 256.956C315.605 261.114 332.403 255.225 337.957 253.016C344.515 250.399 349.231 243.932 349.543 236.266C349.966 225.834 342.031 217.031 331.822 216.598C329.132 216.485 325.79 217.374 324.335 217.881C324.329 217.884 324.322 217.886 324.316 217.888C309.109 222.495 296.856 222.514 287.243 220.46C278.765 218.649 273.242 216.313 269.029 213.371C264.818 210.432 261.947 206.908 258.757 202.801C256.846 200.345 254.358 198.424 251.186 198.292L251.185 198.292C246.057 198.071 241.733 202.115 241.467 207.342ZM338.139 253.493L338.139 253.494L338.139 253.493L251.206 197.779L251.206 197.779M240.459 207.396C240.699 201.558 245.511 197.021 251.227 197.266C254.809 197.415 257.54 199.588 259.544 202.162L259.544 202.162C262.731 206.267 265.521 209.679 269.595 212.524C273.667 215.366 279.054 217.662 287.449 219.455L287.449 219.455C296.883 221.471 308.964 221.467 324.021 216.906C325.525 216.383 328.997 215.452 331.864 215.573L331.864 215.573C342.627 216.029 350.993 225.31 350.547 236.308C350.218 244.386 345.249 251.208 338.322 253.972L338.322 253.972C332.702 256.208 315.684 262.179 295.533 257.962L295.533 257.962C279.172 254.531 259.774 243.444 245.939 220.968L245.938 220.967C245.807 220.754 245.643 220.496 245.455 220.2C244.722 219.048 243.622 217.319 242.649 215.37C241.447 212.96 240.389 210.123 240.466 207.51C240.46 207.473 240.457 207.435 240.459 207.396Z" fill="#040A1F"/>
<path fill-rule="evenodd" clip-rule="evenodd" d="M334.141 216.165C334.364 215.996 334.679 216.044 334.844 216.271C344.568 229.657 342.91 244.781 341.226 252.183C341.163 252.459 340.893 252.631 340.623 252.567C340.353 252.503 340.185 252.227 340.248 251.951C341.906 244.661 343.5 229.91 334.037 216.883C333.872 216.655 333.919 216.334 334.141 216.165Z" fill="#040A1F"/>
<path fill-rule="evenodd" clip-rule="evenodd" d="M320.05 218.473C320.29 218.33 320.597 218.414 320.737 218.659C324.205 224.755 330.585 239.407 324.821 257.432C324.735 257.701 324.451 257.848 324.187 257.76C323.924 257.672 323.78 257.382 323.866 257.113C329.503 239.484 323.268 225.15 319.868 219.175C319.729 218.93 319.81 218.615 320.05 218.473Z" fill="#040A1F"/>
<path fill-rule="evenodd" clip-rule="evenodd" d="M263.239 206.962C263.504 207.047 263.651 207.335 263.567 207.606C260.726 216.815 253.937 222.851 250.102 225.66C249.876 225.825 249.562 225.773 249.401 225.542C249.239 225.312 249.291 224.991 249.516 224.826C253.282 222.068 259.864 216.195 262.609 207.297C262.693 207.027 262.975 206.877 263.239 206.962Z" fill="#040A1F"/>
<path fill-rule="evenodd" clip-rule="evenodd" d="M275.718 216.293C275.992 216.341 276.175 216.606 276.129 216.885C275.272 221.995 272.458 232.529 263.267 240.663C263.057 240.849 262.74 240.826 262.558 240.611C262.377 240.397 262.399 240.073 262.609 239.887C271.551 231.973 274.301 221.709 275.138 216.712C275.185 216.433 275.445 216.245 275.718 216.293Z" fill="#040A1F"/>
<path fill-rule="evenodd" clip-rule="evenodd" d="M289.764 220.222C290.037 220.172 290.298 220.358 290.347 220.637C293.376 237.929 287.596 249.121 284.251 253.896C284.09 254.126 283.776 254.179 283.55 254.014C283.325 253.85 283.273 253.529 283.434 253.298C286.661 248.692 292.328 237.776 289.358 220.818C289.309 220.539 289.491 220.272 289.764 220.222Z" fill="#040A1F"/>
<path fill-rule="evenodd" clip-rule="evenodd" d="M305.199 221.042C305.453 220.929 305.749 221.048 305.86 221.308C308.167 226.73 313.581 242.874 304.656 258.848C304.519 259.094 304.212 259.179 303.971 259.039C303.73 258.898 303.646 258.585 303.784 258.339C312.466 242.8 307.21 227.056 304.939 221.717C304.828 221.457 304.945 221.155 305.199 221.042Z" fill="#040A1F"/>
<path d="M240.069 207.714C241.347 202.347 238.104 196.904 232.807 195.554C229.52 194.711 226.456 195.908 223.893 197.741C215.542 203.73 209.256 207.7 192.045 206.255C182.33 205.44 170.622 201.908 157.293 193.155C156.011 192.236 152.974 190.379 150.265 189.685C140.053 187.075 129.771 193.343 127.3 203.691C125.486 211.294 128.354 219.034 134.118 223.551C138.895 227.288 153.568 237.838 173.956 239.633C190.496 241.083 212.018 236.16 231.288 218.816C233.133 217.155 238.903 212.557 240.055 207.722L240.069 207.714Z" fill="#008BCC"/>
<path fill-rule="evenodd" clip-rule="evenodd" d="M232.823 195.343C238.112 196.681 241.336 202.131 240.043 207.518L240.029 207.526C239.652 209.096 238.793 210.642 237.74 212.073C237.751 212.031 237.761 211.989 237.771 211.946L237.785 211.939C239.078 206.551 235.854 201.102 230.565 199.764C227.281 198.928 224.216 200.139 221.65 201.986C213.287 208.019 206.993 212.022 189.797 210.626C180.091 209.84 168.401 206.333 155.107 197.594C153.828 196.677 150.799 194.824 148.094 194.137C140.243 192.146 132.335 195.433 127.97 201.791C131.249 192.637 140.843 187.305 150.352 189.716C153.057 190.403 156.086 192.257 157.365 193.174C170.659 201.913 182.349 205.419 192.055 206.205C209.251 207.601 215.545 203.599 223.908 197.565C226.474 195.719 229.539 194.508 232.823 195.343Z" fill="#1FB4FA"/>
<path d="M134.113 223.585C138.888 227.318 153.554 237.858 173.933 239.652C190.465 241.1 211.977 236.182 231.239 218.855C232.698 217.54 236.599 214.393 238.739 210.755C228.225 217.26 200.909 231.634 169.673 227.969C149.379 225.584 135.632 215.043 126.998 205.227C125.86 212.336 128.709 219.373 134.109 223.597L134.113 223.585Z" fill="#004CA3"/>
<path fill-rule="evenodd" clip-rule="evenodd" d="M239.603 207.494C239.587 207.527 239.575 207.561 239.567 207.597C239.022 209.882 237.367 212.161 235.564 214.107C234.143 215.642 232.675 216.924 231.657 217.813C231.388 218.048 231.15 218.255 230.954 218.433C211.789 235.682 190.404 240.563 173.994 239.125C153.75 237.343 139.171 226.863 134.422 223.148C128.815 218.754 126.021 211.22 127.788 203.816C130.193 193.741 140.204 187.639 150.146 190.18C152.766 190.85 155.743 192.666 157.006 193.571C157.011 193.574 157.017 193.578 157.023 193.582C170.415 202.378 182.203 205.942 192.009 206.763C200.657 207.49 206.602 206.859 211.451 205.272C216.296 203.685 220.009 201.154 224.186 198.159C226.688 196.369 229.601 195.256 232.69 196.048L232.69 196.049C237.685 197.322 240.756 202.431 239.603 207.494ZM134.118 223.551L134.117 223.552L134.118 223.551L232.808 195.553L232.808 195.554M240.559 207.838C241.901 202.199 238.494 196.477 232.927 195.058C229.439 194.164 226.224 195.446 223.602 197.322L223.601 197.322C219.427 200.316 215.822 202.764 211.134 204.299C206.449 205.833 200.645 206.464 192.082 205.745L192.082 205.745C182.459 204.939 170.832 201.439 157.572 192.731C156.265 191.797 153.175 189.904 150.383 189.189L150.383 189.189C139.901 186.51 129.346 192.944 126.81 203.566C124.949 211.367 127.891 219.314 133.812 223.955L133.813 223.955C138.619 227.714 153.386 238.335 173.917 240.143L173.917 240.143C190.589 241.604 212.248 236.64 231.625 219.2L231.625 219.2C231.809 219.034 232.036 218.836 232.297 218.608C233.313 217.721 234.838 216.39 236.3 214.811C238.107 212.86 239.89 210.46 240.52 207.945C240.537 207.911 240.55 207.875 240.559 207.838Z" fill="#040A1F"/>
<path fill-rule="evenodd" clip-rule="evenodd" d="M148.173 189.194C148.003 188.967 147.685 188.921 147.463 189.091C134.399 199.099 131.897 214.084 131.519 221.671C131.505 221.954 131.72 222.197 132 222.215C132.279 222.232 132.517 222.016 132.531 221.733C132.904 214.26 135.366 199.652 148.079 189.913C148.301 189.743 148.343 189.421 148.173 189.194Z" fill="#040A1F"/>
<path fill-rule="evenodd" clip-rule="evenodd" d="M161.069 195.434C160.875 195.227 160.554 195.218 160.352 195.412C155.327 200.25 145.151 212.447 145.844 231.412C145.854 231.696 146.09 231.919 146.369 231.911C146.649 231.904 146.868 231.668 146.857 231.384C146.18 212.836 156.13 200.902 161.054 196.16C161.256 195.965 161.263 195.64 161.069 195.434Z" fill="#040A1F"/>
<path fill-rule="evenodd" clip-rule="evenodd" d="M218.699 200.596C218.42 200.601 218.201 200.834 218.208 201.117C218.46 210.753 223.378 218.498 226.319 222.3C226.492 222.523 226.809 222.564 227.027 222.39C227.245 222.216 227.282 221.895 227.109 221.671C224.222 217.939 219.459 210.41 219.216 201.099C219.209 200.817 218.977 200.591 218.699 200.596Z" fill="#040A1F"/>
<path fill-rule="evenodd" clip-rule="evenodd" d="M204.151 205.986C203.874 205.952 203.624 206.153 203.594 206.434C203.039 211.575 202.906 222.479 209.582 232.938C209.734 233.176 210.047 233.246 210.28 233.094C210.514 232.941 210.579 232.624 210.427 232.386C203.932 222.211 204.054 211.583 204.597 206.555C204.628 206.274 204.428 206.019 204.151 205.986Z" fill="#040A1F"/>
<path fill-rule="evenodd" clip-rule="evenodd" d="M189.606 205.746C189.355 205.619 189.051 205.721 188.928 205.974C181.294 221.675 183.858 234.088 185.803 239.64C185.897 239.908 186.187 240.05 186.451 239.957C186.714 239.865 186.852 239.572 186.758 239.304C184.881 233.949 182.351 221.833 189.838 206.436C189.961 206.182 189.857 205.874 189.606 205.746Z" fill="#040A1F"/>
<path fill-rule="evenodd" clip-rule="evenodd" d="M174.608 202.134C174.392 201.951 174.072 201.98 173.894 202.197C170.177 206.727 160.525 220.638 164.846 238.558C164.913 238.834 165.188 239.005 165.46 238.941C165.732 238.876 165.899 238.6 165.832 238.323C161.629 220.892 171.018 207.318 174.677 202.858C174.856 202.64 174.825 202.316 174.608 202.134Z" fill="#040A1F"/>
<path d="M253.759 184.705L234.996 181.935C232.443 181.558 230.075 183.365 229.706 185.971C229.338 188.576 231.109 190.994 233.662 191.371L252.425 194.14C254.978 194.517 257.346 192.71 257.714 190.105C258.083 187.499 256.312 185.082 253.759 184.705Z" fill="#F3CFD7"/>
<path fill-rule="evenodd" clip-rule="evenodd" d="M234.924 182.443C232.645 182.107 230.532 183.72 230.204 186.044C229.875 188.368 231.455 190.526 233.734 190.863L252.496 193.632C254.776 193.969 256.889 192.356 257.217 190.031C257.546 187.707 255.966 185.549 253.687 185.213L234.924 182.443ZM229.209 185.897C229.617 183.011 232.241 181.01 235.068 181.427L253.83 184.197C256.657 184.614 258.62 187.292 258.211 190.178C257.803 193.065 255.18 195.066 252.353 194.648L233.59 191.879C230.763 191.461 228.801 188.784 229.209 185.897Z" fill="#040A1F"/>
<path d="M252.968 190.726C252.213 196.036 247.393 199.721 242.196 198.949C236.999 198.177 233.393 193.252 234.148 187.942C235.751 176.572 243.707 150.779 248.904 151.539C254.101 152.311 254.548 179.578 252.968 190.714V190.726Z" fill="#F3CFD7"/>
<path fill-rule="evenodd" clip-rule="evenodd" d="M240.649 165.371C237.819 173.119 235.441 182.374 234.646 188.015L234.645 188.015C233.93 193.045 237.345 197.71 242.268 198.441C247.181 199.171 251.738 195.696 252.467 190.681C252.468 190.667 252.469 190.654 252.471 190.64C253.255 185.117 253.538 175.554 252.977 167.276C252.695 163.136 252.205 159.345 251.469 156.554C251.1 155.155 250.678 154.037 250.208 153.257C249.732 152.465 249.263 152.112 248.833 152.047C248.4 151.984 247.853 152.187 247.178 152.802C246.512 153.409 245.799 154.351 245.059 155.577C243.583 158.024 242.064 161.496 240.649 165.371ZM246.509 152.036C247.27 151.342 248.109 150.904 248.976 151.031L248.977 151.031C249.845 151.16 250.527 151.828 251.064 152.719C251.607 153.62 252.06 154.846 252.439 156.287C253.2 159.173 253.696 163.039 253.979 167.205C254.543 175.522 254.263 185.141 253.47 190.758C253.469 190.772 253.467 190.786 253.465 190.799C252.67 196.39 247.596 200.27 242.124 199.457C236.653 198.644 232.856 193.46 233.651 187.868C234.459 182.139 236.859 172.812 239.708 165.012C241.132 161.113 242.677 157.569 244.204 155.038C244.966 153.775 245.739 152.738 246.509 152.036Z" fill="#040A1F"/>
<path d="M237.869 191.989C239.746 192.246 241.418 192.714 243.066 192.96C244.737 193.217 246.466 193.299 248.32 193.65C247.473 194.129 246.569 194.387 245.63 194.551C244.714 194.691 243.776 194.691 242.826 194.574C241.887 194.422 240.971 194.129 240.147 193.697C239.311 193.264 238.533 192.737 237.869 192V191.989Z" fill="#1D1D1B"/>
<path d="M277.242 133.921L300.252 138.495C305.117 139.466 309.822 136.214 310.772 131.254C311.562 127.078 309.445 122.891 305.644 121.148L283.687 111.065C278.421 108.643 272.308 111.872 271.209 117.674L270.156 123.183C269.206 128.154 272.389 132.962 277.242 133.933V133.921Z" fill="#008BCC" stroke="#040A1F" stroke-linecap="round" stroke-linejoin="round"/>
<path fill-rule="evenodd" clip-rule="evenodd" d="M272.388 114.583C274.814 113.038 277.942 112.676 280.816 113.998L302.773 124.081C306.573 125.824 308.691 130.012 307.901 134.188C307.685 135.315 307.275 136.354 306.714 137.275C308.751 135.975 310.275 133.848 310.772 131.254C311.562 127.078 309.444 122.891 305.644 121.148L283.687 111.065C279.453 109.117 274.671 110.824 272.388 114.583Z" fill="#1FB4FA"/>
<path d="M277.239 133.922L300.248 138.496C304.873 139.42 309.349 136.519 310.586 131.969C308.731 134.121 307.369 135.186 288.206 132.366C274.663 130.366 272.122 122.775 271.023 118.54L270.141 123.184C269.191 128.155 272.373 132.963 277.227 133.934L277.239 133.922Z" fill="#004CA3"/>
<path d="M277.242 133.921L300.252 138.495C305.117 139.466 309.822 136.214 310.772 131.254C311.562 127.078 309.445 122.891 305.644 121.148L283.687 111.065C278.421 108.643 272.308 111.872 271.209 117.674L270.156 123.183C269.206 128.154 272.389 132.962 277.242 133.933V133.921Z" stroke="#040A1F" stroke-linecap="round" stroke-linejoin="round"/>
<path d="M279.538 134.377C278.279 126.412 280.969 118.305 286.602 112.761" stroke="#040A1F" stroke-linecap="round" stroke-linejoin="round"/>
<path d="M288.471 136.156C287.681 128.974 290.05 121.792 294.836 116.575" stroke="#040A1F" stroke-linecap="round" stroke-linejoin="round"/>
<path d="M297.742 138.131C297.387 131.697 299.539 125.369 303.66 120.538" stroke="#040A1F" stroke-linecap="round" stroke-linejoin="round"/>
<path d="M228.735 114.622L205.302 114.2C200.345 114.107 196.407 109.931 196.499 104.878C196.567 100.62 199.498 96.9819 203.573 96.0812L227.109 90.8875C232.765 89.6359 238.065 94.1043 237.962 100.011L237.87 105.626C237.779 110.691 233.692 114.715 228.746 114.622H228.735Z" fill="#008BCC"/>
<path fill-rule="evenodd" clip-rule="evenodd" d="M237.902 103.653C237.302 98.382 232.359 94.6152 227.109 95.777L203.573 100.971C200.25 101.705 197.689 104.259 196.818 107.485C196.595 106.656 196.482 105.781 196.499 104.878C196.567 100.62 199.498 96.9819 203.573 96.0812L227.109 90.8875C232.765 89.6359 238.065 94.1043 237.962 100.011L237.902 103.653Z" fill="#1FB4FA"/>
<path d="M228.733 114.621L205.3 114.2C200.595 114.118 196.805 110.328 196.519 105.614C197.893 108.117 199.003 109.451 218.327 110.761C231.984 111.685 236.014 104.807 237.948 100.9L237.868 105.626C237.777 110.691 233.69 114.715 228.744 114.621H228.733Z" fill="#004CA3"/>
<path fill-rule="evenodd" clip-rule="evenodd" d="M237.46 100.002C237.557 94.4247 232.553 90.2079 227.216 91.3892L203.679 96.5828C199.831 97.4333 197.066 100.868 197.001 104.886L197.001 104.887C196.914 109.657 200.631 113.599 205.311 113.687L228.739 114.108H228.756C233.423 114.197 237.282 110.399 237.368 105.617L237.46 100.002ZM238.464 100.021C238.573 93.784 232.976 89.064 227.003 90.3858ZM227.003 90.3858L203.467 95.5794C199.165 96.5303 196.069 100.372 195.996 104.869C195.9 110.205 200.059 114.615 205.292 114.714L228.726 115.135L228.742 115.135C233.963 115.231 238.276 110.982 238.372 105.636L238.464 100.021" fill="#040A1F"/>
<path fill-rule="evenodd" clip-rule="evenodd" d="M223.621 91.5035C223.851 91.3449 224.164 91.4069 224.319 91.6418C228.783 98.4011 229.777 107.081 226.866 114.76C226.766 115.025 226.475 115.156 226.217 115.054C225.958 114.951 225.829 114.654 225.93 114.39C228.72 107.026 227.768 98.6983 223.486 92.2161C223.331 91.9812 223.391 91.6621 223.621 91.5035Z" fill="#040A1F"/>
<path fill-rule="evenodd" clip-rule="evenodd" d="M214.817 93.4643C215.054 93.3179 215.363 93.396 215.506 93.6388C219.199 99.8956 220.076 107.573 217.785 114.572C217.697 114.841 217.412 114.986 217.149 114.896C216.886 114.806 216.744 114.515 216.832 114.247C219.029 107.536 218.188 100.171 214.646 94.1689C214.503 93.9262 214.579 93.6107 214.817 93.4643Z" fill="#040A1F"/>
<path fill-rule="evenodd" clip-rule="evenodd" d="M205.389 95.4684C205.632 95.3306 205.937 95.4196 206.072 95.6674C209.181 101.375 210.011 108.169 208.316 114.511C208.243 114.784 207.967 114.945 207.699 114.871C207.431 114.796 207.274 114.514 207.347 114.24C208.972 108.159 208.176 101.641 205.194 96.1665C205.06 95.9188 205.147 95.6063 205.389 95.4684Z" fill="#040A1F"/>
<path d="M225.309 153.293C221.074 157.574 213.072 158.346 209.042 153.293C208.997 153.246 209.042 153.164 209.111 153.188C209.832 153.445 210.473 153.796 211.137 154.077C215.785 156.264 220.982 156.51 225.229 153.188C225.287 153.129 225.378 153.223 225.309 153.281V153.293Z" fill="#040A1F"/>
<path d="M224.883 156.229C223.521 159.797 219.079 162.815 215.496 160.463C215.462 160.44 215.473 160.382 215.519 160.382C216.011 160.382 216.458 160.463 216.916 160.463C218.244 160.463 219.572 160.428 220.819 159.902C222.731 159.142 223.784 157.574 224.872 156.229H224.883Z" fill="#040A1F"/>
<path fill-rule="evenodd" clip-rule="evenodd" d="M193.592 141.076C193.632 140.796 193.887 140.601 194.162 140.642L197.871 141.192C198.145 141.233 198.335 141.493 198.296 141.774C198.256 142.054 198.001 142.248 197.726 142.208L194.017 141.658C193.743 141.617 193.552 141.357 193.592 141.076Z" fill="#040A1F"/>
<path fill-rule="evenodd" clip-rule="evenodd" d="M194.052 137.837C194.092 137.557 194.347 137.362 194.621 137.403L198.33 137.953C198.605 137.993 198.795 138.254 198.755 138.534C198.716 138.815 198.461 139.009 198.186 138.969L194.477 138.419C194.203 138.378 194.012 138.118 194.052 137.837Z" fill="#040A1F"/>
<path fill-rule="evenodd" clip-rule="evenodd" d="M192.848 139.255C192.888 138.974 193.143 138.78 193.417 138.82L198.099 139.51C198.374 139.551 198.564 139.811 198.525 140.091C198.485 140.372 198.23 140.567 197.956 140.526L193.274 139.836C192.999 139.796 192.809 139.535 192.848 139.255Z" fill="#040A1F"/>
<path d="M218.909 150.614C222.184 150.614 224.839 147.901 224.839 144.554C224.839 141.208 222.184 138.495 218.909 138.495C215.634 138.495 212.979 141.208 212.979 144.554C212.979 147.901 215.634 150.614 218.909 150.614Z" fill="#040A1F"/>
<path fill-rule="evenodd" clip-rule="evenodd" d="M283.949 148.486C284.158 149.012 283.91 149.61 283.396 149.823L275.96 152.903L283.517 154.667C284.058 154.794 284.396 155.344 284.272 155.897C284.149 156.449 283.61 156.795 283.069 156.669L272.4 154.177C271.972 154.077 271.658 153.705 271.622 153.259C271.587 152.812 271.84 152.393 272.246 152.225L282.641 147.92C283.155 147.707 283.741 147.961 283.949 148.486Z" fill="#111111"/>
<path d="M269.702 159.774C272.896 164.208 277.864 165.448 282.97 164.699C283.68 164.617 284.389 164.465 285.156 164.43C285.214 164.43 285.248 164.524 285.191 164.547C282.627 166.266 279.284 166.664 276.411 165.541C273.48 164.582 271.087 162.43 269.588 159.833C269.553 159.763 269.656 159.693 269.691 159.763L269.702 159.774Z" fill="#111111"/>
<path d="M269.266 162.755C269.964 166.007 272.471 168.487 275.642 169.142C276.077 169.271 276.547 169.317 277.005 169.469C277.039 169.469 277.039 169.551 277.005 169.551C275.116 170.078 272.929 169.493 271.601 167.984C270.285 166.662 269.163 164.369 269.266 162.755Z" fill="#111111"/>
<path fill-rule="evenodd" clip-rule="evenodd" d="M298.691 156.602C298.73 156.321 298.984 156.126 299.259 156.166L302.957 156.704C303.231 156.744 303.422 157.004 303.383 157.284C303.344 157.565 303.09 157.76 302.815 157.72L299.117 157.182C298.843 157.142 298.652 156.882 298.691 156.602Z" fill="#040A1F"/>
<path fill-rule="evenodd" clip-rule="evenodd" d="M299.147 153.349C299.187 153.069 299.442 152.874 299.717 152.915L303.414 153.465C303.689 153.506 303.879 153.766 303.839 154.047C303.799 154.327 303.544 154.522 303.27 154.481L299.572 153.931C299.297 153.89 299.107 153.63 299.147 153.349Z" fill="#040A1F"/>
<path fill-rule="evenodd" clip-rule="evenodd" d="M298.934 154.918C298.974 154.637 299.228 154.443 299.503 154.483L304.185 155.173C304.46 155.214 304.65 155.474 304.61 155.755C304.571 156.035 304.316 156.23 304.042 156.189L299.36 155.499C299.085 155.459 298.894 155.199 298.934 154.918Z" fill="#040A1F"/>
<path d="M318.51 74.9233C317.296 84.0941 321.475 88.4455 330.141 89.6854C338.829 90.9254 346.866 84.445 348.045 75.2275C349.19 66.2556 343.099 58.1142 334.685 56.5117C332.27 56.0555 330.049 55.7981 327.989 55.7279C309.89 55.0846 299.141 77.6137 310.726 92.2472C315.396 98.1426 322.242 102.131 330.209 102.74C344.198 103.804 357.077 93.4637 359.893 78.9121C363.179 61.9275 352.235 45.8904 336.265 43.6212C336.265 43.6212 303.479 35.4213 293.211 67.8113C285.644 91.6857 301.854 113.01 326.592 116.379C349.212 119.467 369.578 105.699 372.76 81.778L374.065 70.993" fill="#008BCC"/>
<path d="M318.51 74.9233C317.296 84.0941 321.475 88.4455 330.141 89.6854C338.829 90.9254 346.866 84.445 348.045 75.2275C349.19 66.2556 343.099 58.1142 334.685 56.5117C332.27 56.0555 330.049 55.7981 327.989 55.7279C309.89 55.0846 299.141 77.6137 310.726 92.2472C315.396 98.1426 322.242 102.131 330.209 102.74C344.198 103.804 357.077 93.4637 359.893 78.9121C363.179 61.9275 352.235 45.8904 336.265 43.6212C336.265 43.6212 303.479 35.4213 293.211 67.8113C285.644 91.6857 301.854 113.01 326.592 116.379C349.212 119.467 369.578 105.699 372.76 81.778L374.065 70.993" stroke="#040A1F" stroke-linecap="round" stroke-linejoin="round"/>
<path d="M212.629 288.389L183.552 308.321L188.257 316.697L179.649 317.059L174.119 359.287" stroke="#040A1F" stroke-linecap="round" stroke-linejoin="round"/>
<g style="mix-blend-mode:overlay" opacity="0.5">
<path d="M305.414 373.797C299.779 377.085 294.522 379.716 288.335 382.338C289.11 377.696 289.888 372.223 290.519 367.981C291.55 361.123 284.452 355.947 278.236 359.004L273.6 361.283C262.721 370.796 249.694 382.194 239.414 391.188C232.309 397.404 226.517 402.472 223.654 404.975C212.046 415.131 197.839 403.715 197.839 403.715L132.024 361.703C131.16 361.152 130.853 360.038 131.312 359.122L133.538 354.677C133.538 354.677 185.178 391.602 209.298 393.021C220.517 393.686 239.852 382.797 257.333 370.958C261.946 367.821 278.66 351.539 278.66 351.539C278.66 351.539 320.81 313.927 282.93 304.985C263.514 300.405 254.917 298.939 254.917 298.939L259.943 293.26L260.515 288.429L287.726 291.829C287.726 291.829 288.596 291.658 290.05 291.612H291.504C291.63 291.623 291.767 291.623 291.904 291.623C292.007 291.635 292.099 291.635 292.202 291.635L292.234 291.636C292.431 291.647 292.637 291.659 292.843 291.68C292.912 291.692 292.992 291.703 293.061 291.703L293.713 291.772C293.759 291.778 293.808 291.783 293.856 291.789C293.905 291.795 293.954 291.801 293.999 291.806C294.084 291.817 294.169 291.83 294.256 291.843C294.355 291.859 294.456 291.874 294.56 291.887C294.602 291.892 294.646 291.899 294.691 291.907C294.745 291.916 294.802 291.926 294.858 291.932C294.888 291.937 294.917 291.942 294.947 291.946C295.138 291.976 295.336 292.007 295.533 292.047L295.739 292.081C296.001 292.13 296.254 292.186 296.513 292.244C296.56 292.255 296.608 292.265 296.655 292.276C296.69 292.287 296.727 292.296 296.764 292.304C296.801 292.313 296.838 292.322 296.873 292.333C297.113 292.39 297.354 292.448 297.605 292.516C297.657 292.533 297.708 292.548 297.76 292.562C297.811 292.576 297.863 292.591 297.914 292.608C297.967 292.624 298.02 292.639 298.073 292.655C298.253 292.709 298.439 292.764 298.624 292.825C298.667 292.84 298.707 292.852 298.746 292.864C298.803 292.881 298.856 292.897 298.91 292.917C299.574 293.135 300.238 293.386 300.925 293.684C301.017 293.718 301.12 293.764 301.211 293.81C301.463 293.925 301.715 294.039 301.967 294.165C302.006 294.185 302.044 294.203 302.081 294.221C302.152 294.255 302.22 294.288 302.287 294.325C302.562 294.463 302.848 294.612 303.123 294.76C303.158 294.778 303.192 294.798 303.226 294.818C303.261 294.838 303.295 294.858 303.329 294.875C303.673 295.07 304.028 295.276 304.371 295.493C304.405 295.516 304.442 295.539 304.48 295.562C304.517 295.585 304.554 295.608 304.588 295.631L304.59 295.632C304.864 295.814 305.138 295.997 305.413 296.192C305.464 296.232 305.519 296.269 305.573 296.306C305.627 296.343 305.682 296.381 305.733 296.421C305.996 296.604 306.248 296.798 306.5 296.993C306.551 297.033 306.6 297.07 306.649 297.108C306.698 297.145 306.746 297.182 306.798 297.222C307.485 297.772 308.172 298.378 308.847 299.043C308.915 299.103 308.978 299.169 309.043 299.236C309.076 299.271 309.11 299.305 309.145 299.34C309.385 299.581 309.625 299.833 309.866 300.096C309.917 300.153 309.972 300.213 310.026 300.273C310.08 300.334 310.135 300.394 310.186 300.451C310.45 300.749 310.701 301.046 310.953 301.355C310.988 301.401 311.025 301.444 311.062 301.487C311.099 301.53 311.136 301.573 311.171 301.619C311.491 302.019 311.812 302.432 312.121 302.867C312.201 302.97 312.27 303.073 312.338 303.176C312.579 303.519 312.819 303.874 313.048 304.229C313.1 304.309 313.148 304.387 313.197 304.464C313.246 304.541 313.294 304.619 313.346 304.699C313.404 304.796 313.463 304.894 313.523 304.993C313.674 305.243 313.828 305.497 313.975 305.752C314.026 305.846 314.081 305.939 314.138 306.036C314.171 306.093 314.205 306.151 314.239 306.21C314.525 306.725 314.811 307.252 315.086 307.802C315.361 308.34 315.59 308.924 315.819 309.519C315.887 309.691 315.956 309.874 316.013 310.057C316.173 310.527 316.322 310.996 316.448 311.488C316.471 311.58 316.497 311.672 316.523 311.763C316.548 311.855 316.574 311.946 316.597 312.038C316.757 312.691 316.895 313.355 317.009 314.053C317.04 314.218 317.062 314.393 317.082 314.56L317.089 314.614C317.169 315.141 317.238 315.69 317.295 316.251C317.33 316.549 317.353 316.847 317.375 317.144C317.421 317.637 317.444 318.152 317.467 318.667C317.471 318.765 317.476 318.862 317.481 318.96C317.491 319.161 317.501 319.364 317.501 319.572C317.513 320.305 317.513 321.06 317.501 321.827C317.496 322.029 317.487 322.234 317.479 322.44C317.47 322.654 317.461 322.871 317.456 323.087C317.445 323.49 317.423 323.893 317.402 324.305L317.398 324.369C317.377 324.831 317.345 325.282 317.313 325.743L317.307 325.835L317.318 325.823C317.295 326.178 317.261 326.544 317.227 326.91L317.227 326.911C317.124 328.01 317.009 329.144 316.86 330.289C316.837 330.472 316.815 330.644 316.792 330.827C316.717 331.441 316.624 332.065 316.529 332.699L316.505 332.853C316.471 333.082 316.437 333.323 316.402 333.552C314.598 345.101 310.03 360.022 305.414 373.797Z" fill="#3F3F3F"/>
</g>
</g>
<defs>
<linearGradient id="paint0_linear_2520_268589" x1="-0.00183808" y1="584.389" x2="491.076" y2="-260.559" gradientUnits="userSpaceOnUse">
<stop stop-color="#007BFF"/>
<stop offset="1" stop-color="#80004D"/>
</linearGradient>
<clipPath id="clip0_2520_268589">
<rect width="432" height="425" fill="white"/>
</clipPath>
</defs>
</svg>
