<svg width="104" height="104" viewBox="0 0 104 104" fill="none" xmlns="http://www.w3.org/2000/svg">
<path fill-rule="evenodd" clip-rule="evenodd" d="M29.0396 46.27L29 79.54H30.617H32.2345L31.3134 77.7352C29.9484 75.0595 30.1772 74.9907 32.3297 77.4313C33.8921 79.2023 34.5041 79.5965 35.4945 79.4698L36.7218 79.3122L34.7092 76.3498C32.8324 73.5865 30.9488 69.2614 31.4182 68.792C31.5317 68.6785 32.1716 69.3749 32.8402 70.3397C34.4485 72.66 37.0618 75.127 36.5518 73.8431C33.9244 67.2292 33.8702 67.0054 33.8451 62.6771C33.8232 58.8675 33.9727 58.0212 35.087 55.6321C37.0299 51.4674 38.4674 49.7848 39.7968 50.1184C40.5871 50.3171 40.9795 50.174 41.1964 49.6093C41.4193 49.0287 40.6609 48.0479 38.2819 45.8384L35.0661 42.8519L35.149 39.9701C35.2046 38.0263 35.4453 36.9558 35.8887 36.68C36.4333 36.341 36.4456 36.1104 35.9603 35.3274C35.1796 34.0681 35.4621 33.7391 37.9141 33.0527C39.0557 32.7332 39.8893 32.3714 39.7672 32.2488C39.3215 31.803 40.8974 29.455 42.5646 28.0809C44.2085 26.7259 44.2304 26.6712 43.1439 26.6316C42.1558 26.5956 42.2 26.5368 43.4957 26.1626C44.3101 25.9275 44.9769 25.5815 44.9769 25.3938C44.9769 25.206 43.9451 23.6222 42.6845 21.8749C40.7885 19.247 40.5324 18.6746 41.2033 18.5689C42.0669 18.4326 61.3262 20.9798 61.5759 21.2637C62.2377 22.0144 71.8673 39.585 71.7055 39.7464C71.5902 39.8617 70.7078 39.7368 69.7444 39.4693C68.7809 39.2017 67.8453 38.9821 67.6648 38.9807C67.1557 38.9766 67.8216 40.4865 68.7112 41.3529C69.1596 41.7904 69.4117 42.5151 69.2841 43.0032C69.141 43.5496 69.5552 44.4465 70.3979 45.4137C72.4912 47.8155 73.3498 49.7588 72.7847 50.8143C72.4187 51.4989 72.0728 51.6187 71.2898 51.333C70.1231 50.9073 69.1956 48.6632 69.1574 46.1739C69.1419 45.1493 68.7982 44.1612 68.2851 43.6672C67.8193 43.2187 67.3111 42.032 67.1561 41.0302C66.8444 39.0194 65.8933 38.0664 64.1965 38.0664C63.1159 38.0664 63.0904 38.1421 63.3707 40.5248C63.6108 42.5707 63.5092 43.1631 62.765 44.0569C62.2728 44.6475 61.8635 44.9556 61.8548 44.7414C61.8466 44.5277 61.0992 45.003 60.1941 45.7974C58.4071 47.3666 56.5389 48.2507 55.8767 47.8415C55.647 47.6997 55.4601 47.9545 55.4615 48.408C55.4642 49.2803 56.126 50.3914 58.5388 53.573C59.355 54.65 59.9607 55.5929 59.8846 55.669C59.8085 55.7451 58.7493 55.5072 57.5302 55.1403C53.7009 53.9877 53.2616 54.4376 56.6597 56.0323C63.0225 59.0184 69.6523 64.3871 73.0267 69.2865C73.9756 70.6647 74.821 71.7922 74.9044 71.7922C74.9883 71.7922 75.0566 58.564 75.0566 42.3961V13H52.068H29.0793L29.0396 46.27ZM52.5287 67.5906C54.05 68.3335 56.0822 69.6324 57.0443 70.4774C59.0492 72.2375 60.9173 75.8885 60.9237 78.0588L60.9283 79.54H67.8029H74.6775L73.2145 77.6929C68.3771 71.5853 60.1818 67.1025 52.7247 66.4854L49.7623 66.2398L52.5287 67.5906Z" fill="#B3B8BC"/>
<path d="M31.9504 80.6794L33.6171 85.8682L35.2733 80.6794H37.6318V88.1324H35.8288V86.3923L36.007 82.8283L34.2041 88.1324H33.0196L31.2061 82.8283L31.3843 86.3923V88.1324H29.5919V80.6794H31.9504ZM40.9021 85.7214L40.9649 85.5013L41.8245 82.5977H43.6694L41.4157 89.0548L41.3213 89.2959C40.9999 90.0087 40.4338 90.3651 39.6232 90.3651C39.3996 90.3651 39.162 90.3336 38.9104 90.2707V89.0338H39.1305C39.3751 89.0338 39.5568 88.9989 39.6756 88.929C39.8014 88.8591 39.8992 88.7333 39.9691 88.5516L40.1159 88.1848L38.1871 82.5977H40.032L40.9021 85.7214ZM48.4344 86.7382H45.9711L45.5413 88.1324H43.623L46.3484 80.6794H48.0361L50.793 88.1324H48.8642L48.4344 86.7382ZM48.0047 85.3545L47.1975 82.7654L46.4009 85.3545H48.0047ZM54.605 84.1595C54.5002 84.1316 54.3115 84.1176 54.039 84.1176C53.4939 84.1176 53.1445 84.2888 52.9907 84.6312V88.1324H51.2611V82.5977H52.8859L52.9383 83.3105C53.2318 82.7654 53.6371 82.4929 54.1543 82.4929C54.3429 82.4929 54.5037 82.5138 54.6364 82.5557L54.605 84.1595ZM56.8577 82.5977L56.9101 83.2476C57.3015 82.7444 57.8291 82.4929 58.493 82.4929C59.1918 82.4929 59.6635 82.7724 59.9081 83.3314C60.2854 82.7724 60.827 82.4929 61.5328 82.4929C62.651 82.4929 63.2275 83.1707 63.2624 84.5264V88.1324H61.5328V84.6417C61.5328 84.3482 61.4839 84.1386 61.3861 84.0128C61.2883 83.887 61.117 83.8241 60.8725 83.8241C60.7117 83.8241 60.572 83.8556 60.4532 83.9185C60.3274 83.9813 60.2121 84.1001 60.1072 84.2749L60.1177 84.3482V88.1324H58.3881V84.6417C58.3881 84.3482 58.3392 84.1386 58.2414 84.0128C58.1436 83.887 57.9688 83.8241 57.7173 83.8241C57.5565 83.8241 57.4168 83.859 57.298 83.9289C57.1652 84.0058 57.0534 84.1211 56.9625 84.2749V88.1324H55.233V82.5977H56.8577ZM67.3749 88.1324C67.312 88.0205 67.2561 87.8563 67.2072 87.6397C66.8928 88.038 66.449 88.2372 65.876 88.2372C65.5335 88.2372 65.2191 88.1638 64.9326 88.017C64.646 87.8703 64.4189 87.6711 64.2512 87.4196C64.0835 87.168 63.9996 86.885 63.9996 86.5705C63.9996 85.9695 64.2198 85.5153 64.66 85.2078C65.1073 84.9003 65.7537 84.7466 66.5992 84.7466H67.1338V84.4531C67.1338 83.9499 66.9137 83.6983 66.4735 83.6983C66.0612 83.6983 65.855 83.8975 65.855 84.2958H64.1359C64.1359 83.9464 64.2372 83.6354 64.4399 83.3629C64.6495 83.0904 64.9361 82.8772 65.2994 82.7235C65.6698 82.5697 66.0891 82.4929 66.5573 82.4929C67.2631 82.4929 67.8187 82.6676 68.224 83.017C68.6363 83.3594 68.8495 83.8276 68.8634 84.4216V86.8745C68.8774 87.3916 68.9543 87.7829 69.094 88.0485V88.1324H67.3749ZM65.7292 86.4761C65.7292 86.6369 65.7816 86.7662 65.8865 86.864C65.9913 86.9618 66.1275 87.0107 66.2953 87.0107C66.4909 87.0107 66.6621 86.9688 66.8089 86.885C66.9556 86.7941 67.064 86.6858 67.1338 86.56V85.669H66.6307C66.0297 85.669 65.7292 85.938 65.7292 86.4761ZM71.4028 82.5977L71.4657 83.2476C71.843 82.7444 72.3706 82.4929 73.0485 82.4929C74.1946 82.4929 74.7711 83.1847 74.7781 84.5684V88.1324H73.0485V84.6417C73.0485 84.3482 72.9891 84.1386 72.8703 84.0128C72.7585 83.887 72.5558 83.8241 72.2623 83.8241C71.9269 83.8241 71.6788 83.9569 71.5181 84.2224V88.1324H69.7885V82.5977H71.4028Z" fill="#B3B8BC"/>
<path d="M41.3309 62.6771L42.1926 65.0057L44.5212 65.8674L42.1926 66.7291L41.3309 69.0577L40.4692 66.7291L38.1406 65.8674L40.4692 65.0057L41.3309 62.6771Z" fill="#B3B8BC"/>
</svg>
