<svg width="176" height="176" viewBox="0 0 176 176" fill="none" xmlns="http://www.w3.org/2000/svg">
<path opacity="0.09" d="M140.434 64.1353L133.581 80.5693C134.802 81.1963 136.166 81.5483 137.629 81.5483C142.557 81.5483 146.55 77.5443 146.55 72.6163C146.55 68.6673 143.987 65.3123 140.434 64.1353Z" fill="#4C64E5"/>
<path d="M119.071 113.587H71.9668C71.9668 114.944 73.0659 116.054 74.4341 116.054H116.603C117.96 116.054 119.071 114.955 119.071 113.587Z" fill="url(#paint0_linear_253_8787)" stroke="url(#paint1_linear_253_8787)" stroke-opacity="0.1" stroke-width="0.5" stroke-linejoin="round"/>
<path d="M116.009 113.587H119.071C119.071 114.955 117.972 116.054 116.603 116.054H113.542C114.91 116.054 116.009 114.955 116.009 113.587Z" fill="url(#paint2_linear_253_8787)" stroke="url(#paint3_linear_253_8787)" stroke-opacity="0.1" stroke-width="0.5" stroke-linejoin="round"/>
<path opacity="0.15" d="M104.828 134.839V128.133C104.828 126.159 103.235 124.566 101.272 124.566H74.5801V116.043H113.889V135.759C113.889 137.968 112.106 139.74 109.919 139.74H108.484C106.319 139.09 104.85 137.094 104.85 134.839H104.828Z" fill="#4C64E5"/>
<path d="M90.4048 128.458V139.752H108.461C106.297 139.101 104.828 137.094 104.828 134.839V128.144C104.828 126.17 103.235 124.578 101.272 124.578H94.2853C92.1431 124.578 90.416 126.316 90.416 128.458H90.4048Z" fill="url(#paint4_linear_253_8787)"/>
<path d="M90.1734 128.208H90.1548V128.458V139.752V140.002H90.4048H108.461L108.533 139.512C106.476 138.894 105.078 136.985 105.078 134.839V128.144C105.078 126.033 103.374 124.328 101.272 124.328H94.2853C92.0881 124.328 90.302 126.045 90.1734 128.208Z" stroke="url(#paint5_linear_253_8787)" stroke-opacity="0.1" stroke-width="0.5"/>
<path d="M93.1636 139.763H109.897C112.095 139.763 113.867 137.98 113.867 135.782V119.194" stroke="url(#paint6_linear_253_8787)" stroke-width="0.7" stroke-linecap="round" stroke-linejoin="round"/>
<path d="M108.461 139.763C106.297 139.112 104.827 137.116 104.827 134.851V128.155C104.827 126.181 103.235 124.589 101.272 124.589H98.1318" stroke="url(#paint7_linear_253_8787)" stroke-width="0.7" stroke-linecap="round" stroke-linejoin="round"/>
<path d="M74.5684 116.199V120.663" stroke="url(#paint8_linear_253_8787)" stroke-width="0.7" stroke-linecap="round" stroke-linejoin="round"/>
<path opacity="0.08" d="M54.0112 150.967H86.8831C88.8345 150.967 90.4046 149.386 90.4046 147.445V128.469C90.4046 126.327 92.143 124.589 94.2739 124.589H58.6543C56.086 124.589 54.0112 126.675 54.0112 129.243V150.967Z" fill="#4C64E5"/>
<path d="M58.6543 124.578H94.2739C92.8047 124.578 91.5374 125.407 90.8757 126.619H59.316C57.5104 126.619 56.0412 128.088 56.0412 129.894V150.956H54V129.232C54 126.652 56.0748 124.578 58.6431 124.578H58.6543Z" fill="white"/>
<path d="M67.8957 124.578H58.6656C56.0973 124.578 54.0225 126.664 54.0225 129.232V150.956H86.8943C88.8457 150.956 90.4159 149.374 90.4159 147.434V128.458C90.4159 126.316 92.1542 124.578 94.2851 124.578" stroke="url(#paint9_linear_253_8787)" stroke-width="0.7" stroke-linecap="round" stroke-linejoin="round"/>
<path d="M94.0273 124.578H73.5371" stroke="url(#paint10_linear_253_8787)" stroke-width="0.7" stroke-linecap="round" stroke-linejoin="round"/>
<path d="M117.085 110.929L145.651 42.426C146.828 39.5885 144.753 36.4483 141.68 36.4483H148.208C150.372 36.4483 151.83 38.6465 151 40.6428L121.65 111.041C121.011 112.577 119.508 113.575 117.848 113.575H113.115C114.854 113.575 116.413 112.532 117.085 110.929Z" fill="#F19E39"/>
<path d="M141.68 36.4595H148.207C150.372 36.4595 151.83 38.6577 151 40.654L148.174 47.4392" stroke="url(#paint11_linear_253_8787)" stroke-width="0.7" stroke-linecap="round" stroke-linejoin="round"/>
<path d="M133.919 81.612L121.65 111.052C121.011 112.588 119.508 113.587 117.848 113.587H113.115" stroke="url(#paint12_linear_253_8787)" stroke-width="0.7" stroke-linecap="round" stroke-linejoin="round"/>
<path d="M148.174 47.4392L136.679 75.0287" stroke="url(#paint13_linear_253_8787)" stroke-width="0.7" stroke-linecap="round" stroke-linejoin="round"/>
<path opacity="0.15" d="M68.8487 113.587H113.115C114.854 113.587 116.412 112.544 117.085 110.94L145.639 42.426C146.817 39.5885 144.742 36.4483 141.669 36.4483H97.4027C95.6643 36.4483 94.1054 37.4913 93.4325 39.0951L64.8673 107.598C63.6897 110.435 65.7645 113.575 68.8375 113.575L68.8487 113.587Z" fill="#4C64E5"/>
<path d="M141.68 36.4595H103.111L141.288 37.5698C143.295 37.5698 144.664 39.6222 143.89 41.4839L113.811 113.531C115.257 113.295 116.514 112.33 117.097 110.94L145.662 42.4372C146.84 39.5998 144.753 36.4595 141.692 36.4595H141.68Z" fill="white"/>
<path opacity="0.9" d="M73.2118 102.035H110.334C111.927 102.035 113.351 101.082 113.968 99.6124L136.746 44.9831C137.823 42.3923 135.927 39.5325 133.112 39.5325H98.4012C96.9881 39.5325 95.7096 40.3848 95.1713 41.6858L71.2492 99.0853C70.6548 100.498 71.6978 102.046 73.2118 102.046V102.035Z" fill="white"/>
<path d="M113.968 99.6124L136.746 44.9831C137.823 42.3923 135.927 39.5325 133.112 39.5325H134.85C137.654 39.5325 139.561 42.3923 138.484 44.9831L115.706 99.6124C115.089 101.082 113.665 102.035 112.072 102.035H110.334C111.927 102.035 113.351 101.082 113.968 99.6124Z" fill="#B7C1F5"/>
<path d="M86.1064 95.8049L88.5498 89.8918H103.927C104.469 89.8918 104.839 90.4513 104.632 90.956L102.83 95.3222C102.71 95.6075 102.439 95.794 102.124 95.794H86.1173L86.1064 95.8049Z" fill="url(#paint14_linear_253_8787)" stroke="url(#paint15_linear_253_8787)" stroke-opacity="0.1" stroke-width="0.5" stroke-linejoin="round"/>
<path d="M84.4819 94.664L86.0848 90.6927C86.2759 90.21 86.7429 89.8918 87.2525 89.8918H101.36C101.933 89.8918 102.315 90.4843 102.092 91.0328L100.489 95.0041C100.298 95.4868 99.8313 95.8049 99.3218 95.8049H85.2144C84.6412 95.8049 84.259 95.2125 84.4819 94.664Z" fill="url(#paint16_linear_253_8787)" stroke="url(#paint17_linear_253_8787)" stroke-opacity="0.1" stroke-width="0.5" stroke-linejoin="round"/>
<path d="M84.7524 56.3329H86.2664L88.2179 51.6673H86.4234C85.9748 51.6673 85.5823 51.9365 85.4029 52.3515L84.1355 55.3908C83.9561 55.8394 84.2813 56.3329 84.7524 56.3329Z" fill="#040A1F"/>
<path d="M84.7524 56.3329H86.2664L88.2179 51.6673H86.4234C85.9748 51.6673 85.5823 51.9365 85.4029 52.3515L84.1355 55.3908C83.9561 55.8394 84.2813 56.3329 84.7524 56.3329Z" fill="#4C5098"/>
<path d="M78.7967 68.1649L82.1164 60.2021C82.2622 59.8545 82.5987 59.6301 82.9688 59.6301H84.8754L82.9239 64.2957L80.9725 68.9612H79.3126C78.9089 68.9612 78.6285 68.5463 78.7855 68.1649H78.7967Z" fill="#040A1F"/>
<path d="M78.7967 68.1649L82.1164 60.2021C82.2622 59.8545 82.5987 59.6301 82.9688 59.6301H84.8754L82.9239 64.2957L80.9725 68.9612H79.3126C78.9089 68.9612 78.6285 68.5463 78.7855 68.1649H78.7967Z" fill="#4C5098"/>
<path d="M143.565 47.4392L145.651 42.4372C146.828 39.5998 144.753 36.4595 141.68 36.4595H105.265" stroke="url(#paint18_linear_253_8787)" stroke-width="0.7" stroke-linecap="round" stroke-linejoin="round"/>
<path d="M90.696 45.656L64.8898 107.609C63.7122 110.446 65.787 113.587 68.86 113.587H113.126C114.865 113.587 116.424 112.544 117.097 110.94L131.71 75.881" stroke="url(#paint19_linear_253_8787)" stroke-width="0.7" stroke-linecap="round" stroke-linejoin="round"/>
<path d="M90.2025 110.985C88.1838 110.985 86.5464 109.347 86.5464 107.317C86.5464 105.287 88.1838 103.65 90.2025 103.65C92.2213 103.65 93.8587 105.287 93.8587 107.317C93.8587 109.347 92.2213 110.985 90.2025 110.985Z" fill="#B7C1F5"/>
<path opacity="0.05" d="M97.0972 57.5909L100.631 49.1092H124.599L121.065 57.5909H97.0972Z" fill="#27BEA3"/>
<path opacity="0.1" d="M114.963 55.7957C113.658 54.8986 113.432 52.9775 114.438 51.4914C115.453 50.0143 117.328 49.534 118.633 50.4312C119.938 51.3283 120.165 53.2493 119.159 54.7354C118.144 56.2125 116.268 56.6928 114.963 55.7957Z" fill="#27BEA3"/>
<path opacity="0.15" d="M85.4375 73.9702L91.6241 59.3049H126.292L120.105 73.9702H85.4375Z" fill="#27BEA3"/>
<path d="M94.6326 69.9503C92.9733 68.8095 92.6852 66.3667 93.9643 64.477C95.2548 62.5988 97.64 61.9881 99.2993 63.1288C100.959 64.2696 101.247 66.7124 99.9676 68.6021C98.6771 70.4803 96.2919 71.091 94.6326 69.9503Z" fill="#27BEA3"/>
<path opacity="0.05" d="M86.457 83.8341L89.9093 75.5698H113.263L109.811 83.8341H86.457Z" fill="#27BEA3"/>
<path opacity="0.1" d="M104.758 82.3139C103.487 81.4398 103.266 79.568 104.246 78.12C105.235 76.6808 107.063 76.2128 108.334 77.0869C109.606 77.961 109.826 79.8329 108.846 81.2809C107.858 82.7201 106.03 83.188 104.758 82.3139Z" fill="#27BEA3"/>
<path opacity="0.15" d="M74.2661 116.054H113.878V118.073H74.2661V116.054Z" fill="#4C64E5"/>
<path opacity="0.15" d="M75.7657 50.2783L65.9034 71.9619L61.6097 65.548H27.0581C25.5419 65.5346 24.5489 63.9513 25.2064 62.5826L31.2848 49.9965C32.063 48.3863 33.6866 47.3665 35.4712 47.3665H73.9006C75.4035 47.3665 76.3964 48.9096 75.7792 50.2783H75.7657Z" fill="#4C64E5"/>
<path opacity="0.1" d="M62.2117 53.861L62.99 52.1703H37.9787L37.1602 53.861H62.2117Z" fill="#4C64E5"/>
<path opacity="0.1" d="M60.5113 59.1211L61.2761 57.417H36.2782L35.4463 59.1211H60.5113Z" fill="#4C64E5"/>
<path d="M42.6638 54.7192H39.5239L41.0133 51.2976H44.1666L42.6638 54.7192Z" fill="url(#paint20_linear_253_8787)" stroke="url(#paint21_linear_253_8787)" stroke-opacity="0.1" stroke-width="0.5" stroke-linejoin="round"/>
<path d="M55.0995 59.979H51.9463L53.4491 56.5574H56.5889L55.0995 59.979Z" fill="url(#paint22_linear_253_8787)" stroke="url(#paint23_linear_253_8787)" stroke-opacity="0.1" stroke-width="0.5" stroke-linejoin="round"/>
<path opacity="0.4" d="M107.499 24L99.2119 42.2335L94.706 36.2086L65.7002 36.1959L71.5916 24H107.499Z" fill="#4C64E5"/>
<path d="M73.0665 25.2266L67.9886 36.1896H65.707L71.5921 24H107.5L106.743 25.2266H73.0665Z" fill="white"/>
<path d="M82.339 36.2023H65.707L71.5921 24H107.5L99.2124 42.2335L94.7065 36.2086H87.5758" stroke="url(#paint24_linear_253_8787)" stroke-width="0.7" stroke-linecap="round" stroke-linejoin="round"/>
<path d="M84.4639 36.196H85.3727" stroke="#040A1F" stroke-width="0.7" stroke-linecap="round" stroke-linejoin="round"/>
<path opacity="0.09" d="M37.1106 117.752L39.2002 123.867L41.2898 117.752L46.7002 114.86L41.2898 111.981L39.2002 105.867L37.1106 111.981L31.7002 114.86L37.1106 117.752Z" fill="#4C64E5"/>
<path opacity="0.09" d="M142.2 145.867L147.7 137.864L142.2 129.867L136.7 137.864L142.2 145.867Z" fill="#4C64E5"/>
<path opacity="0.15" fill-rule="evenodd" clip-rule="evenodd" d="M104.579 42.8667H99.3707L97.7002 46.8667H102.934L104.579 42.8667Z" fill="#4C64E5"/>
<path opacity="0.15" fill-rule="evenodd" clip-rule="evenodd" d="M133.579 42.8667H128.371L126.7 46.8667H131.934L133.579 42.8667Z" fill="#4C64E5"/>
<defs>
<linearGradient id="paint0_linear_253_8787" x1="109.065" y1="115.853" x2="109.065" y2="113.355" gradientUnits="userSpaceOnUse">
<stop stop-color="#3A6EE3"/>
<stop offset="1" stop-color="#4979E6" stop-opacity="0.7"/>
</linearGradient>
<linearGradient id="paint1_linear_253_8787" x1="125.8" y1="114.866" x2="70.1914" y2="83.2919" gradientUnits="userSpaceOnUse">
<stop stop-color="white"/>
<stop offset="1" stop-color="white" stop-opacity="0"/>
</linearGradient>
<linearGradient id="paint2_linear_253_8787" x1="117.896" y1="115.853" x2="117.896" y2="113.355" gradientUnits="userSpaceOnUse">
<stop stop-color="#3A6EE3"/>
<stop offset="1" stop-color="#4979E6" stop-opacity="0.7"/>
</linearGradient>
<linearGradient id="paint3_linear_253_8787" x1="119.86" y1="114.866" x2="111.267" y2="114.293" gradientUnits="userSpaceOnUse">
<stop stop-color="white"/>
<stop offset="1" stop-color="white" stop-opacity="0"/>
</linearGradient>
<linearGradient id="paint4_linear_253_8787" x1="112.853" y1="140.798" x2="91.4677" y2="137.011" gradientUnits="userSpaceOnUse">
<stop stop-color="#4979E6"/>
<stop offset="1" stop-color="#4979E6" stop-opacity="0.43"/>
</linearGradient>
<linearGradient id="paint5_linear_253_8787" x1="111.041" y1="132.447" x2="82.8872" y2="131.45" gradientUnits="userSpaceOnUse">
<stop stop-color="white"/>
<stop offset="1" stop-color="white" stop-opacity="0"/>
</linearGradient>
<linearGradient id="paint6_linear_253_8787" x1="94.8061" y1="129.668" x2="115.802" y2="129.668" gradientUnits="userSpaceOnUse">
<stop stop-color="#1B217C"/>
<stop offset="1" stop-color="#1B217C" stop-opacity="0"/>
</linearGradient>
<linearGradient id="paint7_linear_253_8787" x1="98.9513" y1="132.316" x2="109.427" y2="132.316" gradientUnits="userSpaceOnUse">
<stop stop-color="#1B217C"/>
<stop offset="1" stop-color="#1B217C" stop-opacity="0"/>
</linearGradient>
<linearGradient id="paint8_linear_253_8787" x1="74.6477" y1="118.472" x2="75.6618" y2="118.472" gradientUnits="userSpaceOnUse">
<stop stop-color="#1B217C"/>
<stop offset="1" stop-color="#1B217C" stop-opacity="0"/>
</linearGradient>
<linearGradient id="paint9_linear_253_8787" x1="57.2167" y1="138.01" x2="98.0485" y2="138.01" gradientUnits="userSpaceOnUse">
<stop stop-color="#1B217C"/>
<stop offset="1" stop-color="#1B217C" stop-opacity="0"/>
</linearGradient>
<linearGradient id="paint10_linear_253_8787" x1="75.1627" y1="125.087" x2="95.9426" y2="125.087" gradientUnits="userSpaceOnUse">
<stop stop-color="#1B217C"/>
<stop offset="1" stop-color="#1B217C" stop-opacity="0"/>
</linearGradient>
<linearGradient id="paint11_linear_253_8787" x1="142.438" y1="42.0505" x2="152.129" y2="42.0505" gradientUnits="userSpaceOnUse">
<stop stop-color="#1B217C"/>
<stop offset="1" stop-color="#1B217C" stop-opacity="0"/>
</linearGradient>
<linearGradient id="paint12_linear_253_8787" x1="114.766" y1="97.894" x2="135.864" y2="97.894" gradientUnits="userSpaceOnUse">
<stop stop-color="#1B217C"/>
<stop offset="1" stop-color="#1B217C" stop-opacity="0"/>
</linearGradient>
<linearGradient id="paint13_linear_253_8787" x1="137.591" y1="61.4882" x2="149.249" y2="61.4882" gradientUnits="userSpaceOnUse">
<stop stop-color="#1B217C"/>
<stop offset="1" stop-color="#1B217C" stop-opacity="0"/>
</linearGradient>
<linearGradient id="paint14_linear_253_8787" x1="100.743" y1="95.3224" x2="100.743" y2="89.3365" gradientUnits="userSpaceOnUse">
<stop stop-color="#3A6EE3"/>
<stop offset="1" stop-color="#4979E6" stop-opacity="0.7"/>
</linearGradient>
<linearGradient id="paint15_linear_253_8787" x1="107.345" y1="92.9583" x2="78.5843" y2="90.2699" gradientUnits="userSpaceOnUse">
<stop stop-color="white"/>
<stop offset="1" stop-color="white" stop-opacity="0"/>
</linearGradient>
<linearGradient id="paint16_linear_253_8787" x1="98.3884" y1="95.3224" x2="98.3884" y2="89.3365" gradientUnits="userSpaceOnUse">
<stop stop-color="#3A6EE3"/>
<stop offset="1" stop-color="#4979E6" stop-opacity="0.7"/>
</linearGradient>
<linearGradient id="paint17_linear_253_8787" x1="104.691" y1="92.9583" x2="77.2161" y2="90.5068" gradientUnits="userSpaceOnUse">
<stop stop-color="white"/>
<stop offset="1" stop-color="white" stop-opacity="0"/>
</linearGradient>
<linearGradient id="paint18_linear_253_8787" x1="108.495" y1="42.0505" x2="149.791" y2="42.0505" gradientUnits="userSpaceOnUse">
<stop stop-color="#1B217C"/>
<stop offset="1" stop-color="#1B217C" stop-opacity="0"/>
</linearGradient>
<linearGradient id="paint19_linear_253_8787" x1="69.8829" y1="80.2474" x2="137.987" y2="80.2474" gradientUnits="userSpaceOnUse">
<stop stop-color="#1B217C"/>
<stop offset="1" stop-color="#1B217C" stop-opacity="0"/>
</linearGradient>
<linearGradient id="paint20_linear_253_8787" x1="43.1804" y1="54.44" x2="43.1804" y2="50.9763" gradientUnits="userSpaceOnUse">
<stop stop-color="#3A6EE3"/>
<stop offset="1" stop-color="#4979E6" stop-opacity="0.7"/>
</linearGradient>
<linearGradient id="paint21_linear_253_8787" x1="44.8298" y1="53.072" x2="37.5937" y2="52.78" gradientUnits="userSpaceOnUse">
<stop stop-color="white"/>
<stop offset="1" stop-color="white" stop-opacity="0"/>
</linearGradient>
<linearGradient id="paint22_linear_253_8787" x1="55.6027" y1="59.6998" x2="55.6027" y2="56.2361" gradientUnits="userSpaceOnUse">
<stop stop-color="#3A6EE3"/>
<stop offset="1" stop-color="#4979E6" stop-opacity="0.7"/>
</linearGradient>
<linearGradient id="paint23_linear_253_8787" x1="57.2522" y1="58.3318" x2="50.0161" y2="58.0398" gradientUnits="userSpaceOnUse">
<stop stop-color="white"/>
<stop offset="1" stop-color="white" stop-opacity="0"/>
</linearGradient>
<linearGradient id="paint24_linear_253_8787" x1="69.0226" y1="33.2848" x2="111.406" y2="33.2848" gradientUnits="userSpaceOnUse">
<stop stop-color="#1B217C"/>
<stop offset="1" stop-color="#1B217C" stop-opacity="0"/>
</linearGradient>
</defs>
</svg>
