<svg width="104" height="104" viewBox="0 0 104 104" fill="none" xmlns="http://www.w3.org/2000/svg">
<path d="M72.7625 48.0539H63.2383C63.2398 45.2322 62.1884 42.5114 60.2897 40.4239L60.1689 40.2963L60.1151 40.2425C58.7612 38.8037 57.0583 37.7394 55.1717 37.1529C54.6818 37.0022 54.2256 36.7581 53.8284 36.4342L53.1567 36.5282C52.7236 36.2765 52.3064 35.9983 51.9074 35.6954C49.8151 34.1185 48.2655 31.9296 47.4734 29.4322C46.6813 26.9348 46.6861 24.2528 47.4871 21.7583C48.2881 19.2638 49.8456 17.0804 51.9435 15.511C54.0414 13.9416 56.5758 13.064 59.1949 13V22.5174C58.6314 22.5188 58.0808 22.687 57.6127 23.0007C57.1445 23.3145 56.7797 23.7598 56.5643 24.2805C56.3488 24.8013 56.2923 25.3741 56.4018 25.9269C56.5114 26.4798 56.7822 26.9878 57.18 27.387C57.2852 27.4961 57.4023 27.5929 57.5292 27.6758C57.899 27.9549 58.3059 28.181 58.7382 28.3474H58.8121L59.1278 28.4549H59.2084C63.1979 29.9479 66.635 32.6261 69.0579 36.1296C71.4808 39.6331 72.7736 43.7942 72.7625 48.0539Z" fill="#B3B8BC"/>
<path d="M70.8103 13H59.1973V22.5174H61.3399L70.8103 13Z" fill="#B3B8BC"/>
<path d="M59.1961 28.4952H59.1155L58.7998 28.3877H58.7259C58.2936 28.2213 57.8867 27.9952 57.5169 27.7161C57.39 27.6332 57.2729 27.5364 57.1677 27.4273C56.7699 27.0281 56.4991 26.5201 56.3895 25.9672C56.28 25.4144 56.3365 24.8416 56.552 24.3208C56.7674 23.8001 57.1322 23.3548 57.6004 23.041C58.0685 22.7273 58.6191 22.5591 59.1826 22.5577H61.3252L70.8091 13H59.1961C56.5769 13.0618 54.0418 13.9371 51.9426 15.5046C49.8433 17.0721 48.284 19.2541 47.4808 21.7479C46.6776 24.2416 46.6704 26.9235 47.4602 29.4216C48.25 31.9196 49.7976 34.1099 51.8884 35.6887C52.2878 35.987 52.705 36.2607 53.1377 36.5081L53.8094 36.4141C54.2066 36.738 54.6628 36.982 55.1527 37.1327C57.0393 37.7192 58.7422 38.7835 60.0961 40.2224L60.1498 40.2761L60.2707 40.4037C62.1694 42.4912 63.2208 45.212 63.2193 48.0338H72.7435C72.7427 43.7852 71.4452 39.638 69.0244 36.1465C66.6035 32.6551 63.1747 29.9857 59.1961 28.4952Z" fill="url(#paint0_linear_3517_195121)"/>
<path d="M63.2397 48.0136C63.2397 50.2587 62.574 52.4533 61.3267 54.3199C60.0794 56.1866 58.3066 57.6415 56.2325 58.5006C54.1584 59.3598 51.876 59.5846 49.6741 59.1466C47.4723 58.7086 45.4497 57.6275 43.8622 56.04C42.2748 54.4526 41.1937 52.43 40.7557 50.2281C40.3177 48.0262 40.5425 45.7439 41.4016 43.6698C42.2608 41.5956 43.7157 39.8228 45.5823 38.5756C47.449 37.3283 49.6436 36.6626 51.8886 36.6626L58.5448 36.6021V27.1049H51.8819C47.7519 27.1049 43.7146 28.3296 40.2805 30.6241C36.8465 32.9186 34.1701 36.1799 32.5895 39.9956C31.009 43.8113 30.5955 48.0099 31.4013 52.0606C32.207 56.1113 34.1958 59.8321 37.1162 62.7525C40.0366 65.6729 43.7574 67.6617 47.8081 68.4674C51.8588 69.2732 56.0574 68.8596 59.8731 67.2791C63.6887 65.6986 66.95 63.0221 69.2446 59.5881C71.5391 56.1541 72.7638 52.1168 72.7638 47.9868L63.2397 48.0136Z" fill="#B3B8BC"/>
<path d="M70.8027 24.613V13L61.3323 22.5174V24.613C61.2576 25.2993 60.9315 25.9337 60.4168 26.3938C59.9021 26.854 59.2353 27.1072 58.5449 27.1049V36.5753C61.7453 36.5762 64.8192 35.3254 67.1097 33.0901C69.4001 30.8549 70.7255 27.8125 70.8027 24.613Z" fill="#B3B8BC"/>
<path d="M40.9943 89.7237C39.5748 90.5731 37.9467 91.0103 36.2927 90.9864C34.918 91.0829 33.5569 90.6612 32.4777 89.8043C32.0297 89.3964 31.6771 88.8949 31.4449 88.3354C31.2128 87.7759 31.1067 87.172 31.1343 86.5669C31.1247 85.9043 31.2495 85.2467 31.5012 84.6337C31.7528 84.0207 32.1262 83.4651 32.5986 83.0004C33.6015 82.0102 34.8443 81.2974 36.2054 80.9317C35.1038 79.7764 34.3583 79.2324 33.9217 79.2324C33.677 79.2282 33.4388 79.3116 33.2501 79.4674C33.0154 79.7108 32.8205 79.9896 32.6724 80.2936L31 79.6085C31.2475 78.8219 31.6545 78.0948 32.1956 77.4726C32.4219 77.2483 32.6919 77.0729 32.9888 76.9574C33.2858 76.8418 33.6033 76.7886 33.9217 76.8009C34.3639 76.8088 34.7992 76.9119 35.1979 77.1032C35.6866 77.3481 36.1388 77.6601 36.5412 78.0301C37.0181 78.4465 37.4144 78.8226 37.7367 79.1518C38.0591 79.4809 38.4689 79.9309 38.9592 80.4951C39.4342 81.0574 39.9939 81.5423 40.6182 81.9324C41.1166 82.211 41.6793 82.3546 42.2503 82.3489H42.4182V85.0355H42.2033C41.4397 85.0597 40.685 84.8664 40.0271 84.478C39.183 83.8962 38.4078 83.2202 37.7166 82.463C36.5645 82.7265 35.4845 83.2402 34.5531 83.9676C34.2201 84.2147 33.9475 84.5341 33.7556 84.9017C33.5636 85.2693 33.4574 85.6755 33.4448 86.09C33.4331 86.426 33.5117 86.759 33.6723 87.0543C33.833 87.3496 34.0699 87.5965 34.3583 87.7692C35.1061 88.1847 35.9554 88.3824 36.8099 88.3401C38.0253 88.3222 39.2255 88.0666 40.3428 87.5878L40.9943 89.7237Z" fill="#B3B8BC"/>
<path d="M42.9622 85.0558C42.8144 85.0558 42.6801 84.9215 42.5726 84.6595C42.457 84.3507 42.4044 84.0218 42.4182 83.6923C42.4081 83.3641 42.4653 83.0372 42.5861 82.7319C42.6935 82.4632 42.8279 82.3356 42.9756 82.3356H47.1869V85.0222L42.9622 85.0558Z" fill="#B3B8BC"/>
<path d="M42.2637 85.0557V82.369H46.4481C46.6026 82.369 46.7369 82.4966 46.8444 82.7653C46.9652 83.0707 47.0223 83.3975 47.0123 83.7258C47.0217 84.0562 46.9646 84.3851 46.8444 84.693C46.7369 84.9549 46.6026 85.0892 46.4481 85.0892L42.2637 85.0557Z" fill="#B3B8BC"/>
<path d="M47.1727 85.0558C47.0183 85.0558 46.8839 84.9215 46.7765 84.6595C46.6562 84.3516 46.5991 84.0227 46.6085 83.6923C46.5985 83.3641 46.6557 83.0372 46.7765 82.7319C46.8839 82.4632 47.0183 82.3356 47.1727 82.3356H51.3773V85.0222L47.1727 85.0558Z" fill="#B3B8BC"/>
<path d="M51.3778 85.0557C51.2233 85.0557 51.089 84.9213 50.9815 84.6594C50.8613 84.3515 50.8042 84.0226 50.8136 83.6922C50.8036 83.364 50.8607 83.0371 50.9815 82.7317C51.089 82.4631 51.2233 82.3355 51.3778 82.3355H51.4987C52.2902 82.3556 53.0796 82.2467 53.8361 82.0131C53.8354 80.5607 53.6641 79.1134 53.3256 77.701L55.4011 77.2107C55.6613 78.4339 55.7919 79.6811 55.7906 80.9317C55.8171 81.9895 55.6927 83.0456 55.4212 84.0683C54.8805 84.3778 54.2964 84.6043 53.6883 84.74C52.9668 84.928 52.2242 85.0228 51.4786 85.0221L51.3778 85.0557Z" fill="#B3B8BC"/>
<path d="M56.4759 88.9849C55.9264 88.9847 55.3788 88.9216 54.8438 88.7969L55.0385 86.5468C55.3405 86.5959 55.646 86.6206 55.952 86.6207C56.4207 86.6585 56.8914 86.5759 57.3192 86.3808C57.7471 86.1856 58.118 85.8844 58.3968 85.5057C58.9322 84.702 59.2023 83.7507 59.1692 82.7855C59.0879 81.3901 58.8467 80.0087 58.4506 78.6682L60.5461 77.9966C60.5461 78.1264 60.5932 78.3503 60.6872 78.6682C60.7544 78.9705 60.8014 79.1854 60.835 79.2996C60.8685 79.4138 60.9088 79.5951 60.9693 79.8235C61.0297 80.0519 61.0768 80.2265 61.1171 80.3608C61.1574 80.4952 61.2111 80.6429 61.2715 80.8041C61.332 80.9653 61.4059 81.1198 61.4798 81.2608C61.6615 81.6303 61.952 81.9352 62.3123 82.1345C62.6725 82.3339 63.0852 82.4181 63.4947 82.3758H63.9112V85.0624H63.3067C62.4802 85.113 61.6664 84.8409 61.0365 84.3035C60.9069 85.5608 60.4013 86.7499 59.5857 87.7155C59.1911 88.1408 58.7083 88.4748 58.1711 88.6941C57.634 88.9133 57.0554 89.0126 56.4759 88.9849Z" fill="#B3B8BC"/>
<path d="M63.9124 85.0558C63.7646 85.0558 63.6303 84.9215 63.5161 84.6595C63.3992 84.3507 63.3422 84.0225 63.3482 83.6923C63.3414 83.3643 63.3984 83.0381 63.5161 82.7319C63.6303 82.4632 63.7646 82.3356 63.9124 82.3356H68.1438V85.0222L63.9124 85.0558Z" fill="#B3B8BC"/>
<path d="M68.1424 85.0557C67.9946 85.0557 67.8603 84.9213 67.7461 84.6594C67.6316 84.3501 67.5769 84.0219 67.5849 83.6922C67.5761 83.3647 67.6309 83.0385 67.7461 82.7317C67.8603 82.4631 67.9946 82.3355 68.1424 82.3355H68.27C69.0681 82.3573 69.8645 82.2484 70.6275 82.0131C70.6235 80.5609 70.4522 79.114 70.117 77.701L72.1925 77.2107C72.4505 78.4341 72.5788 79.6814 72.5753 80.9317C72.6052 81.9896 72.4808 83.0463 72.2059 84.0683C71.6664 84.3802 71.0818 84.6068 70.473 84.74C69.7515 84.928 69.0089 85.0228 68.2633 85.0221L68.1424 85.0557Z" fill="#B3B8BC"/>
<path d="M70.2649 76.4047C70.8955 76.4047 71.4067 75.8935 71.4067 75.2629C71.4067 74.6323 70.8955 74.1211 70.2649 74.1211C69.6343 74.1211 69.123 74.6323 69.123 75.2629C69.123 75.8935 69.6343 76.4047 70.2649 76.4047Z" fill="#B3B8BC"/>
<path d="M52.8684 76.4047C53.499 76.4047 54.0102 75.8935 54.0102 75.2629C54.0102 74.6323 53.499 74.1211 52.8684 74.1211C52.2378 74.1211 51.7266 74.6323 51.7266 75.2629C51.7266 75.8935 52.2378 76.4047 52.8684 76.4047Z" fill="#B3B8BC"/>
<path d="M36.7024 86.7482C37.333 86.7482 37.8442 86.237 37.8442 85.6064C37.8442 84.9758 37.333 84.4646 36.7024 84.4646C36.0718 84.4646 35.5605 84.9758 35.5605 85.6064C35.5605 86.237 36.0718 86.7482 36.7024 86.7482Z" fill="#B3B8BC"/>
<path d="M67.9875 76.4047C68.6181 76.4047 69.1293 75.8935 69.1293 75.2629C69.1293 74.6323 68.6181 74.1211 67.9875 74.1211C67.3569 74.1211 66.8457 74.6323 66.8457 75.2629C66.8457 75.8935 67.3569 76.4047 67.9875 76.4047Z" fill="#B3B8BC"/>
<defs>
<linearGradient id="paint0_linear_3517_195121" x1="57.208" y1="46.5494" x2="65.8791" y2="11.7709" gradientUnits="userSpaceOnUse">
<stop stop-color="#B3B8BC"/>
<stop offset="0.53" stop-color="#7F8285"/>
<stop offset="0.85" stop-color="#9CA1A5"/>
<stop offset="1" stop-color="#B3B8BC"/>
</linearGradient>
</defs>
</svg>
